<svg xmlns="http://www.w3.org/2000/svg" viewBox="0 0 271.25 136.98"><g id="Layer_2" data-name="Layer 2"><g id="Layer_1-2" data-name="Layer 1"><path d="M29.61,52.43a8.19,8.19,0,0,1-4.16,3.11,22.3,22.3,0,0,1-6.69.81H2.17V.49H19.81q7.14,0,9.52,4.2c1.17,2,1.75,5.06,1.75,9.17q0,6.86-1.54,10.08a6.31,6.31,0,0,1-4.9,3.57,7.21,7.21,0,0,1,5.74,3.78c1.12,2,1.68,5.27,1.68,9.8Q32.06,49.07,29.61,52.43Zm-9.1-36a15.13,15.13,0,0,0-.84-5.53,2.88,2.88,0,0,0-2.8-2H12.18V24.43h5.39c.84,0,1.56-.63,2.17-1.89S20.51,19.37,20.51,16.38Zm-.07,29.68q.7-1.47.7-6.09c0-2.89-.26-4.81-.77-5.74a3.37,3.37,0,0,0-3-2H12.18V48h5A3.31,3.31,0,0,0,20.44,46.06Z"/><path d="M63.77,16.66a27.19,27.19,0,0,1-1.33,9.45q-1.39,3.36-3.78,4.2l6.79,26H54.88l-5.6-23.24H45.64V56.35H35.49V.49h16.8A12.59,12.59,0,0,1,58.1,1.78a8.16,8.16,0,0,1,3.71,3.75Q63.77,9.31,63.77,16.66Zm-10.29,1a30.92,30.92,0,0,0-.28-5.18c-.42-1.77-1.4-2.66-2.94-2.66H45.64V24.5c3,0,4.67,0,4.9-.07a2.43,2.43,0,0,0,2.38-1.75A15.11,15.11,0,0,0,53.48,17.64Z"/><path d="M78.12,42.84l-2,13.51H65.94L75.25.49H89.6l8.33,55.86H87.57L85.75,42.84Zm6.72-8.26q-2.1-16.24-2.1-16.52l-.49-8.47q-.34,5.46-.63,8.47L79.1,34.58Z"/><path d="M128.1,56.35h-9.66l-8.82-27.86V56.35H100.1V.49h9.73l8.75,27.3V.49h9.52Z"/><path d="M158.41,51q-3.09,5.32-10.29,5.32H132.44V.49h14.42a17.62,17.62,0,0,1,7.07,1.19,10.59,10.59,0,0,1,4.48,3.92q2.52,3.64,2.52,21.63,0,9.79-.49,15.5C160.11,46.54,159.43,49.3,158.41,51Zm-7.91-5.6q.63-2.86.63-18.2,0-12-.7-14.77-.78-3.29-3.85-3.29h-4.06V48.3H147A3.34,3.34,0,0,0,150.5,45.43Z"/><path d="M175,56.35H164.36V.49H175Z"/><path d="M207.27,56.35h-9.66l-8.82-27.86V56.35h-9.52V.49H189l8.75,27.3V.49h9.52Z"/><path d="M240.45,56.35h-7.56l-.49-2.52q-2.31,3-8.54,3a11.87,11.87,0,0,1-7.56-2.42,12.14,12.14,0,0,1-4.2-7q-1.41-6-1.4-18.9,0-14,1.4-19.11a12.45,12.45,0,0,1,4.34-6.69Q219.8,0,225.82,0q6.36,0,9.62,2.55a10.52,10.52,0,0,1,4,6.76A65.76,65.76,0,0,1,240,19.6H230c0-2.85-.1-5.23-.28-7.14C229.5,10.17,228.27,9,226,9a3.53,3.53,0,0,0-3.85,3.43,121.52,121.52,0,0,0-.77,16.1q0,11.55.84,16,.69,3.7,4,3.71,4,0,4.41-4.34V33.6H225V24.78h15.33V46.06c0,.93,0,1.82,0,2.66s0,1.64,0,2.41v2.1q0,.95,0,1.65c0,.47,0,.82,0,1Z"/><path d="M48.09,80.49l-7.63,55.86H28.35q-4.07-29-4.34-34.79,0,2.59-1.09,11.27t-2.2,16.1l-1,7.42H7.84L0,80.49H10.43q4.07,35.21,4.06,40.74,0-2.45,1.15-12.64t2.28-19.14l1.12-9H29.19Q34,115.7,34,121.23q0-2.45,1-12.64t2-19.14l1-9Z"/><path d="M63.56,80.07q6.3,0,9.66,2.59t4.55,8q1,4.62,1,17.29a112.59,112.59,0,0,1-1.12,17.92Q75.74,137,63.56,137,52,137,49.63,126.62q-1.18-5.18-1.19-18.34,0-12.81.91-17Q51.79,80.07,63.56,80.07Zm.14,48q2.94,0,3.92-3.22.91-2.94.91-16.38a103.76,103.76,0,0,0-.84-15.54A4.81,4.81,0,0,0,66.46,90a3.94,3.94,0,0,0-2.76-.87A3.67,3.67,0,0,0,61,90a6.53,6.53,0,0,0-1.33,3q-.77,3.43-.77,15.61,0,12.89,1,16.31Q60.77,128,63.7,128Z"/><path d="M110.46,96.66a27.19,27.19,0,0,1-1.33,9.45q-1.39,3.36-3.78,4.2l6.79,26H101.57L96,113.11H92.33v23.24H82.18V80.49H99a12.59,12.59,0,0,1,5.81,1.29,8.16,8.16,0,0,1,3.71,3.75Q110.47,89.31,110.46,96.66Zm-10.29,1a30.92,30.92,0,0,0-.28-5.18c-.42-1.77-1.4-2.66-2.94-2.66H92.33v14.7c3,0,4.67,0,4.9-.07a2.43,2.43,0,0,0,2.38-1.75A15.11,15.11,0,0,0,100.17,97.64Z"/><path d="M145.81,136.35H135.17l-8-22.61L124.88,118v18.34H114.73V80.49h10.15v22.19L135.8,80.49h9.94l-11.83,23.87Z"/><path d="M173.74,123.26q0,6.43-3.82,10.08T159.74,137q-6.51,0-10.12-2.56a9.31,9.31,0,0,1-4-7.31c-.09-1.17-.14-3.38-.14-6.65h9.73a45.48,45.48,0,0,0,.14,5c.32,2,1.68,3.08,4.06,3.08q4.2,0,4.2-4.34a12.48,12.48,0,0,0-1.19-5.74,19.14,19.14,0,0,0-4.34-5.11c-2.47-2.24-4.16-3.73-5-4.48a26.62,26.62,0,0,1-5.92-6.93,18,18,0,0,1-1.78-8.61q0-6.17,3.78-9.77t10.36-3.6q6.3,0,9.59,3.11a13.24,13.24,0,0,1,3.92,8.3,33.63,33.63,0,0,1,.42,5.74h-9.8a39.44,39.44,0,0,0-.28-4.55q-.42-3.65-3.92-3.64-4.07,0-4.06,4.2a8.56,8.56,0,0,0,1.4,4.79,25.7,25.7,0,0,0,4.13,4.66l5.11,4.62a28.17,28.17,0,0,1,5.91,7.31A19.12,19.12,0,0,1,173.74,123.26Z"/><path d="M205.38,136.35H195.16V112.9H187v23.45H176.89V80.49H187V103.8h8.12V80.49h10.22Z"/><path d="M223.93,80.07q6.3,0,9.66,2.59t4.55,8q1,4.62,1,17.29A112.59,112.59,0,0,1,238,125.85Q236.11,137,223.93,137q-11.55,0-13.93-10.36-1.19-5.18-1.19-18.34,0-12.81.91-17Q212.17,80.07,223.93,80.07Zm.14,48c2,0,3.26-1.07,3.92-3.22q.9-2.94.91-16.38a103.76,103.76,0,0,0-.84-15.54A4.81,4.81,0,0,0,226.83,90a3.94,3.94,0,0,0-2.76-.87,3.67,3.67,0,0,0-2.73.87A6.43,6.43,0,0,0,220,93q-.76,3.43-.77,15.61,0,12.89,1,16.31Q221.14,128,224.07,128Z"/><path d="M271.25,97.85q0,9.87-2.94,13.37T259,115.14l-6.16.07v21.14H242.55V80.49h16.59q6.23,0,9.31,4Q271.24,88.05,271.25,97.85ZM261,98.27a20.3,20.3,0,0,0-.7-6.23,3.09,3.09,0,0,0-3.22-2.1h-4.2v16.52h3.92q3.28,0,3.78-2.59A37.7,37.7,0,0,0,261,98.27Z"/></g></g></svg>