<svg xmlns="http://www.w3.org/2000/svg" viewBox="0 0 836.47 910"><defs><style>.cls-1{fill:#ffbc1a;}.cls-2{fill:#fff;}.cls-3{fill:#efcd9b;}.cls-4{fill:#efcd9a;}.cls-5{fill:#d3381c;}</style></defs><g id="Layer_2" data-name="Layer 2"><g id="Layer_1-2" data-name="Layer 1"><rect class="cls-1" x="499.84" y="139.96" width="11.46" height="9.49" transform="translate(11.36 324.42) rotate(-35.96)"/><path class="cls-1" d="M550.05,146.34l-6.13-8.45a18.52,18.52,0,0,1-1.68,3.1c3.17,10.12-2.49,16.47-6.31,18.48a10.24,10.24,0,0,1-7.16.89l8.58,11.83Z"/><path class="cls-1" d="M509.45,133.7a17.83,17.83,0,0,1,12-19.84,12.7,12.7,0,0,0-12,19.84Z"/><path class="cls-1" d="M575.5,250.91c.11-1.13-17-7.49-23.43-11.13-5.45-3.09-8.74-3.88-9.62-7.38l-2.32,4.73c6.43,3.19,28.84,14.28,30.92,15.09C575.12,253.8,575.4,252,575.5,250.91Z"/><path class="cls-1" d="M578.45,167.19l-.37-7.3L572,172.33l27.79,12.42a8,8,0,1,1-6.64,14.47l-25.5-12-.38-5.29-4.38,8.93,39,19.16,12.53-25.5Z"/><path class="cls-1" d="M591.31,222.73l.86-1.62L560.4,205.5C566.92,213.28,588.26,223.88,591.31,222.73Z"/><path class="cls-1" d="M587.13,229.16l-34.71-17-5.11,10.42a7.34,7.34,0,0,1,5.62,0c5.36,2.14,24.87,14.15,27.87,14.26S585.52,232.7,587.13,229.16Z"/><path class="cls-1" d="M669.3,164.35a10.08,10.08,0,0,0-16,11.93l8.13-6.11,4.87-3.63,2.45-1.8Z"/><path class="cls-1" d="M662.18,181.56a10.09,10.09,0,0,0,10.08-10.08,10.33,10.33,0,0,0-.2-2l-.6.22-2.81,1.09L663,173l-9.43,3.74A10.06,10.06,0,0,0,662.18,181.56Z"/><polygon class="cls-1" points="612 261.11 616.04 219.2 591.72 268.71 591.72 268.71 587.59 277.11 601.09 283.75 612 261.11"/><path class="cls-1" d="M644,162.25h0l-7.85,16h0l-9,18.32a66.63,66.63,0,0,1,9.76-4.34c2.69-1,5.94-2.29,9.63-3.73L657,184.42a13.93,13.93,0,1,1,19.09-12.94c0,.31,0,.61,0,.92l11.6-23.63-29.83-14.65Z"/><polygon class="cls-1" points="613.45 215.74 630.48 181.07 622.26 177.27 605.32 211.75 613.45 215.74"/><rect class="cls-1" x="573.58" y="240.36" width="41" height="9.06" transform="translate(112.3 670.08) rotate(-63.83)"/><rect class="cls-1" x="556.75" y="231.47" width="7.43" height="56.37" transform="translate(80.27 648.18) rotate(-63.83)"/><path d="M808.35,233.76s-7.58,6.44-16.07,4.08-7.74-13.92-7.74-13.92l-1.73-.85a20.47,20.47,0,0,0,8-3.6A8.55,8.55,0,0,0,791,205.9c-1.12-.88-2.36-1.77-3.67-2.72-5.79-4.19-13-9.39-17.28-18.68a4.12,4.12,0,0,0-.39-.63c-3.61-4.63-12.49-6.41-23.74-8.65-10.09-2-21.53-4.3-31.1-9a3.21,3.21,0,0,0-1.73-.31c-5.63.56-16.2,3.83-29,8.4l-3.73-1.84L692,148.75a2,2,0,0,0,.1-1.48,2,2,0,0,0-1-1.11L657.83,129.8a2,2,0,0,0-2.59.89l-13.82,28.13-61.5-30.22,3.29-6.69a1.92,1.92,0,0,0,.09-1.47,1.87,1.87,0,0,0-1-1.11l-13.57-6.67a1.92,1.92,0,0,0-2.58.88l-3.44,7L559.63,119l.14-.28a1,1,0,0,0-.48-1.39l-2-1a1,1,0,0,0-1.39.47l-6.58,13.39a1,1,0,0,0,.47,1.39l2,1a1,1,0,0,0,1.39-.48l.13-.27,3.12,1.52L552,142.43l-6.8-9.38a16.41,16.41,0,0,0,.14-2.12,18.06,18.06,0,0,0-15.67-17.88,16.58,16.58,0,0,0-24.35,21.23l-11,8a1.94,1.94,0,0,0-.43,2.7l7.84,10.81a2,2,0,0,0,1.26.77l.31,0a1.93,1.93,0,0,0,1.13-.37l10.83-7.86,20.17,27.8-26.07,53L492,233a1.93,1.93,0,0,0-1.46,2.31l3.23,14.46a2,2,0,0,0,.85,1.2,1.91,1.91,0,0,0,1,.3,2,2,0,0,0,.42,0l20.7-4.63,2.39,1.17L533.83,255l74.32,36.52,5.37,2.63c-.38,4.3-.75,8.63-1.13,13-2.35,27-4.58,52.53-4.88,60.62-.41,10.89.36,29.94,2.54,36.25,16.56,47.91,23.26,121.12,29.18,185.71,2.38,26,4.64,50.67,7.34,70.63-20.9-4.72-108.19-24.46-142.67-32.78,1-3.18,2-6.25,3-9.18a7.56,7.56,0,0,0-6.12-9.93c-9.27-1.3-23.29-5.51-37.7-12.2s-29.19-15.84-40-27a3.2,3.2,0,0,0-2.68-1c-10.87,1.24-17.54,11.1-20.45,16.6-8.18-5.69-30.43-21.31-41.68-30.67-12.36-10.31-37-16.67-45.12-18.56,0-6.15-.56-21.52-5.62-33.79l15.15-23.43a3.21,3.21,0,0,0-1.89-4.86l-30.52-7.9,16.72-40c7.83,1.41,31.2,5.26,42.05,3.39,11.26-1.94,19.54-11.79,24.63-29.29l.25-.86c3.32-11.4,5.32-18.28,15.1-43.25,10.29-26.27,16.83-67,15.65-79.63-.53-5.66-2.63-11.23-4.48-16.14-2.1-5.57-4.08-10.84-2.83-13.86s2.47-5.89,3.65-8.66a2.39,2.39,0,0,1,.13-.28c7-.13,10.88-9.44,10.88-9.44a10.55,10.55,0,0,1-4.87,2.14c.8-.86,1-3.32,1-3.32a20.15,20.15,0,0,1-3,1.07c4.42-11,7.22-20.43,5.61-29.61-.94-5.36-4.17-10.63-6.52-14.47a32.58,32.58,0,0,1-2.15-3.8c-.44-3.21-5.5-28.49-8.75-41.16-.19-.73-.41-1.55-.66-2.44,8.34-10.47,17-16.36,17.38-22.6.43-6.86-5.57-19.51-5.57-19.51S417.3,59.76,395,40.25,341.47-4.29,327.74.63C316.37,4.7,287.35,18.8,287.35,18.8c-5.09-6-9.75-11-33.56-8.58-10.3,1-16.57,2.46-20.36,3.71a66.23,66.23,0,0,0-14.72-4.77,5.46,5.46,0,0,0-4.89,1.4c-1.94,1.85-4.84,4.55-6.75,6-9.32-1.52-17.35-2.47-20.42-1.93C179,16,170.05,29,166.22,41.74A110.28,110.28,0,0,0,129,33.06C95.22,31.13,66.7,60.4,60.26,60.62s-15.44-1.5-18-13.94C36.46,57.83,41,69.62,47.4,74.34,34.53,82.7,28,106.72,28,106.72S39.25,105.44,48.25,99c-1.28,8-1.55,16.46.89,23.35-9,26.51-16,58.31-15.55,74.43-10.42,8.5-7.22,15.3-5.29,17.9,3.36,4.51,18.34,16,26,20.91-5.11,9.85-3.89,17,4,25.57,7.41,8,18.06,25.23,19.81,28.43,0,.21,0,.47-.06.69-.2,2.46-.59,7,2.8,10.35,2.24,2.2,5.55,3.28,10.07,3.28a34.57,34.57,0,0,0,3.55-.19l1.16-.15c5.51,11,13,22.49,23,31.93,2.46,15.89-11.69,31.28-11.69,31.28s9.7.48,16.11-4.66c-8,12.22-12.14,12.22-12.14,12.22s6.67,3.75,15.5-1.77c2,11.5,14.1,27.86,24.34,32.14-1,12.93-3.88,20.29-5.43,23.4l-5.2-1.34a2.84,2.84,0,0,0-.65-.1c-17.92-.88-54,9.54-55.51,10a3.2,3.2,0,0,0-2,1.65,3.24,3.24,0,0,0-.14,2.57L96,478.24,94.19,489a3.22,3.22,0,0,0,3.32,3.75l14.92-.68-5.07,23.6c-9.76,6.56-59.66,40.41-67,51.91A3.17,3.17,0,0,0,39.9,569c-.09,1.09-2,26.57,3.66,43.58-8.3,24.24-13.18,57.92-17.9,90.5-3.42,23.58-7,48-11.74,68.41-3.29,14-6.6,18.75-12.78,24a3.21,3.21,0,0,0-1.09,3,31.46,31.46,0,0,0,13,21.19L6.23,831.41a3.22,3.22,0,0,0-.42,1.94c.05.46,4.63,45.77,0,72.9a3.18,3.18,0,0,0,.72,2.61A3.22,3.22,0,0,0,9,910H427.59a3.22,3.22,0,0,0,2.55-1.25c.9-1.17,21.91-29.09,13.7-73.09-3.3-18-8.06-29.87-12-37.27,7.52,3.22,17.31,6.6,25.38,6.6a18.72,18.72,0,0,0,8-1.55c6.06-2.87,8.62-7.67,9.93-15,17.65,2,107,12,162.94,13.53,8,.22,16.08.31,24,.31,49.77,0,95.25-3.76,101.84-4.33,6.69,2.72,20.2,4.69,28.55-5.65,9.46-11.72,5-25.35,3.7-28.53-.17-7.85-2.93-85-43.15-175.19C718.92,512,692.36,440,678.71,397.56c10.14-22.42,24.55-61.9,27.92-78.13l5.86-.51c22.32-1.94,29.06-2.53,32.59-7.32,2.85-3.87,8.17-17.13,2.84-28.73,9.2-5.83,11.53-17.47,12.46-26.07A50.06,50.06,0,0,0,759,239.52l42.45,20,34,.22,1-2.53ZM644,162.26h0l13.83-28.13,29.83,14.66L676.08,172.4c0-.31,0-.61,0-.92A13.94,13.94,0,1,0,657,184.42l-10.46,4.06c-3.69,1.43-7,2.7-9.64,3.72a67,67,0,0,0-9.76,4.35l9-18.33ZM663,173l5.63-2.21,2.82-1.08.59-.23a9.61,9.61,0,0,1,.21,2,10.07,10.07,0,0,1-18.67,5.24Zm-9.69,3.3a10,10,0,0,1-1.22-4.8,10.07,10.07,0,0,1,17.2-7.12l-.53.38-2.46,1.81-4.86,3.62Zm-100.4,46.24a7.34,7.34,0,0,0-5.62,0l5.12-10.41,34.71,17c-1.61,3.53-3.33,7.72-6.33,7.61S558.29,224.66,552.93,222.52Zm22.58,28.39c-.11,1.13-.38,2.89-4.46,1.31-2.08-.81-24.48-11.9-30.91-15.09l2.32-4.72c.88,3.49,4.16,4.28,9.62,7.37C558.51,243.43,575.61,249.78,575.51,250.91Zm-12.65-60,4.39-8.92.37,5.28,25.51,12a8,8,0,1,0,6.63-14.48L572,172.33l6.11-12.43.36,7.29,35.94,17.36L601.86,210Zm29.31,30.23-.85,1.62c-3.06,1.15-24.39-9.44-30.91-17.23ZM559.4,189.18,552,185.52l16.4-33.37a14.29,14.29,0,0,1,7.23,4.09Zm39.66,35.31,8.13,4-18.08,36.79-8.13-4Zm6.26-12.74,16.94-34.48,8.22,3.81-17,34.66Zm33.28-50c-4.78,8.59-9.43,9-14.26,8.51l-52.26-25.68,6.14-12.5ZM512.45,116.18a12.65,12.65,0,0,1,9-2.32,18.08,18.08,0,0,0-12.22,17.07,18.3,18.3,0,0,0,.24,2.78A12.74,12.74,0,0,1,512.45,116.18Zm-8.73,35.74-5.57-7.69,9.27-6.72,5.58,7.68Zm9.36-21a14.17,14.17,0,0,1,24.57-9.65l-1.34,1L533,124.6l-6.59,4.76-11.54,8.43A14.13,14.13,0,0,1,513.08,130.93Zm2,7.26,13.18-5.46,7.5-3.06,3.75-1.51,1.51-.59a13.81,13.81,0,0,1,.42,3.36,14.18,14.18,0,0,1-26.36,7.26Zm13.67,22.17a10.11,10.11,0,0,0,7.16-.89c3.83-2,9.49-8.36,6.31-18.47a18.29,18.29,0,0,0,1.68-3.11l6.14,8.46-12.7,25.85Zm-31.62,86.72-2.39-10.69,12.12-2.72-1.79,3.18,3.37,1.89,3.91-7h0l.06-.09L568.79,117l10.1,5L519.91,242ZM527,236.34l.4-.82,18.31-37.25,7.44,3.66-19.25,39.18A12.12,12.12,0,0,1,527,236.34Zm57.15,39.07-50.59-24.85,3.28-6.67,50.59,24.86ZM612,261.12l-10.92,22.63-13.5-6.63,4.13-8.4h0l24.33-49.51ZM403.88,210.51A99.29,99.29,0,0,1,398.36,227c-4.29-2-12.47-5.24-18.24-3.81-5.39,1.34-13.7,5.69-18.9,10.58.26-.65.5-1.3.77-1.94.63-1.51,1.3-3,2-4.51a40.28,40.28,0,0,1,5.71-2.8,53.8,53.8,0,0,1,6.3-2A124.18,124.18,0,0,1,389.32,220a125.51,125.51,0,0,0-13.72,0,55.5,55.5,0,0,0-7,.84c-.51.09-1,.2-1.52.32.68-1.23,1.38-2.44,2.12-3.63,2.77,1,5.92.28,14.34-2.74,10.29-3.7,17.37-8.28,19.86-7.56C404.12,207.38,404.07,209.2,403.88,210.51Zm-28-178.09c1.72-1.29,6.12,1.39,9.76,9.43s2.25,28.63,2.25,28.63S381.49,53,380,44.86,373.12,34.51,375.91,32.42ZM336.35,19.23c2.57-2.89,11.9-1.5,21.87,5.15s14.37,18.33,17.48,30c0,0-10.78-7-14.23-11.77,1.36,4.67,1.77,13.19,1.77,13.19s-2.09-4.5-5.07-6S352,44.32,345.71,35.64s-14.4-13.92-14.4-15.36S333.8,18.91,336.35,19.23Zm-.7,12.06c7.05,6.89,12.46,25.39,12.62,26-.35-.46-11.64-15.2-15.75-20.9s-11.66-12.95-17.85-14.64C323.11,21.4,328.5,24.3,335.65,31.29ZM324.8,38c6.11,5.3,8.12,19.29,8.12,19.29C321.88,45,308.69,33.17,302,31.13,316.3,29.42,321.69,35.27,324.8,38Zm-38.12-5.8c1.05-1.05,9.17,3,11.66,5.47s9.57,9.4,11.74,24.12C303.49,51.8,285,33.83,286.68,32.18Zm-12.84,5.71c11.26-1.18,24.49,30.66,24.49,30.66s-5.62-6.32-11.75-14.79S271.38,39.92,273.84,37.89Zm3.28,17.37c4.25,2.89,9.16,13.29,9.16,13.29S273.17,62.94,269,58.42s-12.38-10-12.38-10C265.29,47.38,272.86,52.36,277.12,55.26Zm-24.94-.41c5.87-.8,14.16,8,16.73,11.1s5.95,13.19,5.95,13.19-10.77-7.64-14.39-13.51S248.69,55.33,252.18,54.85ZM187.77,21a8.42,8.42,0,0,1,1.48-.1c6.88,0,28.44,3.94,46.15,7.56q-15,5.55-30,11.4Q188,46.7,170.78,54.18C170.17,41.2,181.86,22,187.77,21ZM132,39.33a26,26,0,0,1,18.89,14.24s-12-5.74-22.92-7.61S105.59,43.6,98,45.61C109.53,39.33,117.89,36.76,132,39.33ZM127.22,53c-10-.14-45.11.59-45.11.59C95.86,48.42,107.2,44.84,127.22,53ZM91.43,297.47c-2.92.07-5-.43-6.05-1.43-1.22-1.2-1-3.53-.89-5.22a6.79,6.79,0,0,0-.27-3.44c-1-2.2-13.08-21.86-21.17-30.59C56.4,249.6,56,245,61.4,236.1q3-4.5,6.2-8.87c2.15-2.91,4.44-5.73,6.72-8.56,4.62-5.61,9.46-11.08,14.44-16.44,9.94-10.75,20.41-21.1,30.72-31.73,5.15-5.32,10.3-10.72,15-16.55s9.19-11.69,13.52-17.7q12.91-18.1,24.14-37.25-13,17.93-27,35.09-7,8.57-14.34,16.72c-4.88,5.4-10.19,10.44-15.51,15.53-10.7,10.11-21.58,20.18-31.82,31-9.49,10.07-18.56,20.75-26,32.71-7.1-4.55-21.54-15.76-24.1-19.21-2.37-3.18,1.6-7.18,5.34-10l1.41-1.05v-.11a132.83,132.83,0,0,1,19.61-13.5c7.4-4.23,15.1-8.15,22.8-12.38,3.84-2.14,7.65-4.41,11.4-6.86a116.07,116.07,0,0,0,10.73-8.07,104.19,104.19,0,0,0,18.45-19.56c5.23-7.41,9-15.52,12.85-23.2A128.29,128.29,0,0,1,149.4,94.51a106.17,106.17,0,0,1,39.74-31.75c-16.78,4.76-32.17,15-43.78,28.44a119.23,119.23,0,0,0-15,22c-4.1,7.75-7.92,15.34-12.89,22A100.53,100.53,0,0,1,100,153.13a124.34,124.34,0,0,1-10.11,7.53c-3.53,2.29-7.18,4.46-10.93,6.54-7.47,4.22-15.27,8.15-22.8,12.78A135,135,0,0,0,40.07,191.2,149.65,149.65,0,0,1,42.48,172a36.09,36.09,0,0,1,9-6.83c3.66-2.11,7.61-3.92,11.59-5.72,8-3.58,16.2-7.09,23.78-11.91a62.37,62.37,0,0,0,10.57-8.32,47,47,0,0,0,8.07-10.72,75,75,0,0,1,16.38-20.3,76.12,76.12,0,0,0-17.77,19.48,45.16,45.16,0,0,1-8.33,9.78,59.73,59.73,0,0,1-10.56,7.32c-7.55,4.18-15.75,7.1-24,10.21-4.12,1.58-8.28,3.18-12.38,5.21-1.49.73-3,1.52-4.42,2.41C51.22,131.53,64.62,94.31,74,86c5.82-5.18,30.33-10.09,50-14,5.47-1.1,10.72-2.15,15.62-3.2l-3.48,1.76c-3.24,1.62-6.42,3.36-9.58,5.13-12.6,7.12-24.9,15.08-35.52,25,12.64-7.07,25.35-13.54,38.26-19.71,3.23-1.54,6.43-3.12,9.69-4.6s6.47-3,9.75-4.49c6.51-3,13.12-5.73,19.7-8.56C181.63,57.67,195,52.31,208.28,47c11.31-4.55,22.63-9.09,33.9-13.82-.75,2.9-1.65,6.61-2.54,10.81-6.75,3.4-13.2,7.15-19.56,11-6.71,4.08-13.26,8.38-19.77,12.72S187.4,76.49,181,81s-12.67,9.12-18.91,13.81q9.9-6.24,20-12.19c6.7-4,13.44-7.89,20.24-11.67S216,63.47,222.9,60c5-2.48,10-4.89,15-7.1-.66,3.85-1.22,7.86-1.61,11.88a284.6,284.6,0,0,0-27.77,14.42q-14.34,8.37-28.09,17.54Q195,89,210,82.07c8.49-3.87,17.1-7.54,25.81-10.55-.3,7,.1,13.72,1.71,19.12a260.86,260.86,0,0,0-30.12,26c-5,4.87-9.86,9.87-14.73,14.8S183,141.3,178,145.93c-1.26,1.12-2.49,2.33-3.78,3.36l-4,3.31c-1.4,1.13-2.69,2.35-4,3.51s-2.58,2.43-3.83,3.67a193.36,193.36,0,0,0-14.11,15.67,178.74,178.74,0,0,0-12.31,17,98.69,98.69,0,0,0-9.47,18.67,111.88,111.88,0,0,1,11.34-17.36c4.22-5.47,8.75-10.68,13.45-15.72s9.61-9.87,14.74-14.4c1.27-1.14,2.6-2.22,3.88-3.34s2.62-2.17,4-3.16L178,154c1.47-1.07,2.78-2.25,4.17-3.37,10.7-9.27,20.33-19.25,30.31-28.83l1.81-1.74c-.53.88-1.06,1.78-1.59,2.71-20.81,35.77-57.89,82.94-82.42,114.16-6.59,8.38-12.28,15.62-16.75,21.48C97.19,279.89,92.67,292.21,91.43,297.47Zm51.89,18.78-8.09-6.82c-4.93-5.74-15.64-18.95-21.65-28.81l.79-1.19c.83,1.13,1.68,2.23,2.57,3.29a69.84,69.84,0,0,0,8.5,8.44,56.47,56.47,0,0,0,9.82,6.79c-2-3.46-4.12-6.73-6.17-10s-4-6.48-5.92-9.68c-1.29-2.21-2.52-4.42-3.65-6.61l16.94-25.48c.48.3,1,.6,1.44.91a55.2,55.2,0,0,1,7.13,5.55,21.92,21.92,0,0,0-8.84,3.62,18.13,18.13,0,0,0-4.88,5.31,15.53,15.53,0,0,0-2.26,7.21,17.68,17.68,0,0,0,1.25,7.49,17.49,17.49,0,0,0,4.31,6.49,9.1,9.1,0,0,0,4.3,2.32,26.14,26.14,0,0,1,2.79.74,22.94,22.94,0,0,1,5.2,2.31,7.86,7.86,0,0,1,3.17,3.15c.16.24.45,1.72.82,2.84a16.5,16.5,0,0,0,1.56,3.61,11.87,11.87,0,0,0,2.84,3.3A12.31,12.31,0,0,0,159,303a17,17,0,0,0,1.89.5l.93.17a9.28,9.28,0,0,0,1.06.11,9.69,9.69,0,0,0,4.35-.69,8,8,0,0,0,3.59-2.88,6.39,6.39,0,0,0,1-2.32,5,5,0,0,0-.26-2.85,4.62,4.62,0,0,0-1.85-2.11,3.74,3.74,0,0,1-.88-.68,10.43,10.43,0,0,1-1.62-2.28,17.41,17.41,0,0,1-1.68-12.13,14.75,14.75,0,0,0-2,6.42,18.1,18.1,0,0,0,.81,6.93,12.51,12.51,0,0,0,1.66,3.36,7.89,7.89,0,0,0,1.46,1.58c.27.24.18.28.2.37a2.25,2.25,0,0,1-.55,1,3.57,3.57,0,0,1-1.61.93,4.71,4.71,0,0,1-2.09.07l-.55-.12-.66-.18a11.94,11.94,0,0,1-1.24-.44,6,6,0,0,1-3.24-2.93,13.44,13.44,0,0,1-.89-2.43c-.13-.45-.24-.92-.34-1.41a12.24,12.24,0,0,0-.58-2,11.06,11.06,0,0,0-2.5-3.73,17,17,0,0,0-3.14-2.48,28.11,28.11,0,0,0-6.74-2.94A32.81,32.81,0,0,0,140,279a3.44,3.44,0,0,1-1.37-.77,9.56,9.56,0,0,1-1.22-1.24c2.82-5,9.87-10.87,15.78-12.06a67.41,67.41,0,0,1,2.71,11.86,33.82,33.82,0,0,0,1.19-13.23,28.26,28.26,0,0,0-1.72-6.75,22.19,22.19,0,0,0-1.52-3.19L153,252l-1-1.46A39.64,39.64,0,0,0,142,241c-.47-.33-.95-.64-1.43-.95l8.1-12.19a52.62,52.62,0,0,1,6,4.21l2.6,2.45c.88.8,1.56,1.76,2.37,2.63a34.82,34.82,0,0,1,3.88,5.91A38.28,38.28,0,0,1,167.37,257a65.27,65.27,0,0,1-.61,15.46,37.81,37.81,0,0,0,5.1-15.43,35.38,35.38,0,0,0-.48-10.45c3.2,1.32,8.18,1.74,16.69.83a65.61,65.61,0,0,1-13.49-8.18,37.4,37.4,0,0,0,21-1.29,29,29,0,0,1-15-5.71s9.08-.65,16.08-6.11c-11.9,1.69-18.18-4.18-18.18-4.18s15.2.08,19.87-6.44c-8.37.81-13.75-2.25-13.75-2.25s18.89-2.16,28.7-9.24c-10,.72-13.26-1.21-13.26-1.21s14.15-3.38,24-10.06a84.12,84.12,0,0,1-15.44.81s9.33-3.62,15.44-9.33c-8.77,1.37-21.23-1.21-21.23-1.21s14.47-2.65,18.5-5.14c-6.92,0-15-3.38-15-3.38s17.13-.4,28.06-9.81a28.86,28.86,0,0,1-8.76.56s7.8-2.65,12.06-6.19c-6.35-1.53-11.9-7-11.9-7s14,4.18,30.07-5.07c-9.4.24-13.83-3.38-13.83-3.38s14.4.4,25.25-6.91c-9.81.64-34-1.69-44.71-13.75,15.84,6.67,36.19,7.88,47.29,4.82a79.52,79.52,0,0,1-27.75-8s22.49,2.73,31,4a60.45,60.45,0,0,0,15.55.32s-6.46-1.61-6.14-4.34-1.77-6-1.77-6,7.8,1.12,13.59-.48,13.91-.41,18.18,1.6a41.21,41.21,0,0,0-7.07-8.83c.47.13,12.74,3.67,19.13,2.56l8.36,4.83L335,97.88l9.25,13.43S342.09,98,339.67,90.88c6.28,10.86,13.41,15.73,17.7,23,1-6.52,1-19.14,1-19.61.15.43,3.92,11.57,7.16,15.75,1.09-3.89,2.72-8.89,3.88-12.35,10.94,19.7,15.75,35.09,17.61,42.34,3.28,12.81,8.33,38.23,8.61,40.45.21,1.66,1.33,3.5,3,6.27,1.92,3.12,4.46,7.3,5.43,11.17-1.87.88-3.8,1.71-5.73,2.48q-4.22,1.69-8.55,3.06c-2.88.93-5.8,1.73-8.74,2.4s-5.91,1.17-8.88,1.59l-.8.11-.5.59a74.52,74.52,0,0,0-9.17,14.41c-1.26,2.53-2.42,5.1-3.5,7.71-.54,1.3-1.05,2.61-1.55,3.93a10.52,10.52,0,0,0-.4,1.17,10.89,10.89,0,0,0-.25,1.29,9.34,9.34,0,0,0,.77,5.1l.86,1.94c.57,1.3,1.21,2.54,1.81,3.81,1.24,2.52,2.52,5,3.83,7.46,2.62,4.93,5.34,9.78,8.1,14.61s5.58,9.62,8.41,14.4l4.26,7.15,1.06,1.77.25.44a2.1,2.1,0,0,1,.2.36,1.9,1.9,0,0,1,.17.51,6.11,6.11,0,0,1-.36,3.06,17.84,17.84,0,0,1-4,6.25,33.1,33.1,0,0,1-6.07,4.94,45.57,45.57,0,0,1-7.08,3.66c-2.47,1-5,1.83-7.61,2.67l-.27.08-.09,0a3,3,0,0,0-1,.91,2.8,2.8,0,0,0-.45,1.08,4,4,0,0,0,0,1.66,7,7,0,0,0,1,2.34,5.29,5.29,0,0,0,1.61,1.75,2.72,2.72,0,0,0,2.52.29c-.35-.89-.49-1.44-.71-2s-.5-1-.7-1.48a4.88,4.88,0,0,1-.32-1.31,46.47,46.47,0,0,0,7.51-2.47,50.88,50.88,0,0,0,7.69-4,36.25,36.25,0,0,0,6.8-5.54,21.51,21.51,0,0,0,4.89-7.66,10,10,0,0,0,.49-5.12,6.67,6.67,0,0,0-.81-2l-.26-.46-1.07-1.8L383.22,282q-4.23-7.14-8.35-14.35c-2.74-4.81-5.43-9.64-8-14.52-1.29-2.43-2.55-4.88-3.76-7.35a.08.08,0,0,1,0,0c.51.22,1,.43,1.53.61a33.92,33.92,0,0,0,8.42,1.64,40.9,40.9,0,0,0,8.36-.29,30.29,30.29,0,0,0,7.93-2.19H389a47.35,47.35,0,0,1-7.66-.44,55.18,55.18,0,0,1-6.2-1.19c4.15-4.46,4.79-11.83,2.57-15.72a6.42,6.42,0,0,1,2.23-.45c6.27.34,11,4.67,15,7.26-1.17,2.74-2.39,5.59-3.62,8.56a11.73,11.73,0,0,0-.48,1.49c-1.28,5.05.92,10.92,3.24,17.1,1.79,4.75,3.64,9.67,4.09,14.46,1.1,11.78-5.43,51.66-15.23,76.69-9.89,25.24-12,32.63-15.29,43.81l-.24.86c-4.35,14.93-10.93,23.26-19.55,24.74-11.71,2-42-3.78-42.32-3.84l-.42-.09L301.8,418c-1.22-.25-2.48-.65-3.72-1-2.48-.62-5-1.51-7.46-2.26l-7.44-2.56-7.41-2.76c-9.84-3.78-19.65-7.76-29.34-12-4.86-2.11-9.65-4.36-14.46-6.56s-9.67-4.32-14.6-6.29-9.51-3.69-13.55-6.7A54.83,54.83,0,0,1,193,366.78a38.58,38.58,0,0,0,2.26,6c2.67,6.37,7.36,16.56,19.85,20.7C231.21,414.1,263.66,437,291.06,447L284,464l-39-10.1c-2.09-3.61-4.45-7-6.84-10.44s-5-6.93-7.7-10.3c-1.31-1.71-2.63-3.41-4-5.1s-2.69-3.37-4.08-5.05c-2.76-3.34-5.56-6.67-8.58-9.89a128.21,128.21,0,0,0,4.86,12.21c.9,2,1.82,4,2.8,5.9s2,3.89,3,5.81c2,3.87,4.25,7.59,6.6,11.26.54.81,1.08,1.62,1.64,2.42l-80.91-20.94c2.39-5.27,5.84-16,5.86-34.19,0-12-1.47-27.72-3.12-41.48q3.59,11.15,7.82,22.05c1.67,4.27,3.39,8.52,5.23,12.72s3.73,8.39,5.87,12.51c.54,1,1.06,2.06,1.67,3.07L176,406a12.27,12.27,0,0,1,.62,1.62c.37,1.09.8,2.13,1.17,3.19s.8,2.08,1.18,3.12c.82,2,1.56,4.08,2.33,6.05l1.1,2.93c.2.47.35.95.53,1.41l.25.68c.09.18.18.48.23.49l6.41-.58,0-1.19c0-.34-.07-.68-.12-1-.09-.65-.23-1.28-.37-1.89a27.15,27.15,0,0,0-1.16-3.54,35.47,35.47,0,0,0-3.44-6.37c-.68-1-1.4-1.94-2.13-2.88s-1.52-1.83-2.39-2.66a12,12,0,0,1-1.21-1.28l-.88-1.41c-.6-.92-1.14-1.91-1.7-2.89-2.21-3.91-4.24-8-6.19-12.09s-3.81-8.27-5.61-12.44q-5.44-12.54-10.06-25.43c-.28-.81-.56-1.61-.83-2.42-.52-4-1-7.68-1.49-10.93,6,6.95,12.85,12.61,20.75,12.48a11.26,11.26,0,0,0,9.29-4.42c4.09,8.62,9,18.81,9.35,19.5-.36-1.76-12-58-18.59-58-.8,0-.92,2.3-.63,5.61h0c-.51.09-1,.12-1.53.17s-1,.11-1.51.13-1,.09-1.49.08A35,35,0,0,1,162,312a23.52,23.52,0,0,1-5.61-1.4c-1.88-.71-3.74-1.66-5.74-2.58a17.19,17.19,0,0,0,4.46,4.86,16.17,16.17,0,0,0,6.23,2.88,16,16,0,0,0,6.88,0,12.64,12.64,0,0,0,1.63-.45,12.38,12.38,0,0,0,1.58-.57l1.14-.49a115.4,115.4,0,0,0,3,14.73,5.05,5.05,0,0,1-2.49,1.23C165.94,331.67,152.42,324.12,143.32,316.25Zm218.9,1.63c0-.1,0-.17,0-.15S362.27,317.8,362.22,317.88Zm-261,168.22,1.28-7.66a3.35,3.35,0,0,0-.16-1.66L95,457.27c11.76,3.49,23.24,10.85,24.59,11.53,1.51.75,5.79.75,5.79.75s-.53-9.44-6-13.19c-4.78-3.28-18.51-6.48-27.43-7.2l-2.74-7.27c9.33-2.54,35.82-9.36,49.74-8.81L314.34,478.5a68.67,68.67,0,0,0-23.88,18l-.43,11.9h13a79.43,79.43,0,0,1,2.85,14c-10.22-1.38-37.22-5.19-48.66-8.35-14.36-4-46.2-7.49-67.31-6.23-5.76.35-13,.46-20.75.58-14.69.23-30.69.48-43.66,2.26a13.6,13.6,0,0,0-.69-5.74c6-.85,25.32-12.28,47.14-13.48l2.37.07c6.44.23,12.89.51,19.32,1-12.69-2.42-25.54-4.1-38.42-5.39-6.45-.62-12.91-1.15-19.39-1.54s-13-.81-19.5-.2h0ZM438.76,865.27c-2.08,20.49-10.16,34.23-12.85,38.3H19.48c6.73-23.8.47-68.19.47-68.19s19.73,4.29,53,9.22,65,1.5,79.78,1.07l-.18-.06c6.18-.15,12.36-.36,18.53-.54l26.2-1c8.74-.38,17.46-.68,26.21-.77-17.42-1.89-35-2.29-52.43-2.8s-34.94-.71-52.29-1.46c-4.34-.18-8.67-.45-13-.8-2.12-.22-4.3-.32-6.38-.62s-4.19-.51-6.36-.87c-4.29-.66-8.57-1.39-12.83-2.16s-8.52-1.53-12.73-2.45a238.44,238.44,0,0,1-24.92-6.62,153.05,153.05,0,0,1-23.61-9.79h0a2,2,0,0,0-.25-.14c-.09,0-9.17-4.21-11.95-16.45,6.16-5.57,10.06-11.67,13.46-26.2C25,752.25,28.59,727.73,32,704c2-13.8,4-27.81,6.34-41.16,6.41-30.41,13.94-34.6,20.19-44.53s39.24-73.5,53.39-88.62c-16.88,11.42-27.82,26.38-40.85,48.09-12.49,8.63-19.41,14.26-24.19,19.69a159.08,159.08,0,0,1-.64-27.12c7.27-9.84,49.18-39,65.46-49.91,12.28-4.9,37.36-5.29,57.54-5.61,7.78-.12,15.13-.23,21-.59,14.18-.84,31.86.46,46,2.39-12.67,2.92-37.71,8.94-63.8,16.6C160.63,555.17,151.83,600.79,155,647.4c.26,3.65.68,7.14,1.22,10.49-3.57-.21-7-.52-10.22-.92a53,53,0,0,0,10.87,4.59,92.65,92.65,0,0,0,9.84,27.4c-6.6-1.63-13.06-3.31-17.5-4.65-13.07-4-32.36-14.68-39.23-21.11.17.5,5.93,16.54,35.27,26.26a131.46,131.46,0,0,0,25.41,5.82c6.51,9.37,14,15.45,20.19,18.35l-4.53-.26c-20.78-1.29-52.54-6.44-54.69-2.79s7.93,10.18,23.27,11c12.28.69,57.14,1.18,86.31-6.11,0,0-24.78-.62-45-1.61A70.54,70.54,0,0,1,179,696c9.06.35,14-.81,14-.81s-7.68-1.72-17-3.94a102.48,102.48,0,0,1-10.67-27.51c17.18,3.49,43.94,4.38,83.95-2.43C308.82,651.12,345.9,621,347,620.1c-1.51.51-66.33,22.9-101.93,29.9-28.27,5.55-57.32,8.66-81,8.19-10.19-52.07,8.28-114.17,11.69-116,4.94-2.57,71-19.72,78.92-18.65s36,16.94,63,23.59a96,96,0,0,1,23.8,9.27c-19-2.82-49-6.94-69.26-8-37.31-1.93-56,34.31-56,34.31C237,565,241.61,561,258.4,558.54c17.5-2.57,68.31,2,98.32,7.71,4.68,3.4,9.13,6.82,13.74,10-11.48-.15-19,1.52-27.35.31-16.68-2.41-29.81-3.43-56.83,1.08,46-2.42,55,5.79,76.23,8.52,13.33,1.72,26.21,8.69,31.7,12-6.4,16.46-13.65,39.44-20.33,63.78-4.74-4.69-15-13.92-22.63-14.48-15.86-1.18-150.53,41.17-150.53,41.17C252.83,679,328.1,657.4,341.6,660.94c9.36,2.45,18.22,20.12,22.78,30.76-3.29,9.44-19.23,55.62-22,72.81-16.57-2.41-24.61-11.26-39.73-25.57-14.87-14.1-39.73-23.35-40.5-23.63l42.76,41.16-56-10.78c13.67-6.11,17.37-15.6,17.37-15.6s-20.91,3.86-42.62,7.4-52.75,13-52.75,13,35.86,3.53,58.7-1.61l13.51,14s-69.8,20.26-103.25,28.31-40.64,3.86-42.46,4.61-1.61,5.89-1.61,5.89C128,818.44,244.68,823.16,255,820.58s56.83-38.81,63.69-33.66-25.09,36.24-51,64.76c39-29.17,46.11-42.25,57.47-47.18s32.38-5.36,66.91,12.44C425.39,834.15,438.52,855.18,438.76,865.27ZM295.45,787S266.18,807.93,253,812s-106.15-4.82-115.48-7.72c24.77-5.79,101.65-30.39,101.65-30.39S262.8,789.28,270,789.76s22.67-8.2,22.67-8.2S295.61,784.13,295.45,787Zm177.74-48.35c-1.77,13.15-2.4,23.74-2.9,32.25-1,17.58-1.71,23.81-7.83,26.71-7.75,3.66-27.31-4.09-38.57-10.2h0a139.37,139.37,0,0,0-13.4-7.47c-4.57-2.28-9.27-4.32-14-6.34S387,769.73,382.18,768a99.23,99.23,0,0,0-14.84-4.22c4.64,2.17,9,4.7,13.47,7.22L394,778.6c3.28,1.89,6.54,3.82,9.83,5.68-14.26-2.14-33.43-5.12-46-7.53.25-33.9,27.4-143.58,46.28-185.81a.94.94,0,0,0,.06-.15c.06-.14,5.4-13.6,15.41-15.93,9.61,9.59,22,17.71,34.48,24.09a28.59,28.59,0,0,0-7.31,2.3,26.65,26.65,0,0,0-9.42,7.71,34.34,34.34,0,0,0-3.09,5c-.42.88-.9,1.74-1.26,2.63l-1,2.69-.49,1.35-.38,1.36-.73,2.72a26.5,26.5,0,0,0-.57,2.73l-.48,2.74-1.62,10.45c-1.09,6.92-2.26,13.83-3.68,20.69-.64,3.44-1.42,6.85-2.15,10.28s-1.58,6.82-2.47,10.2c-1.66,6.8-3.74,13.48-5.89,20.13-4.62,13.14-10.08,26.23-19.2,37.12,5.28-4.74,9.52-10.56,13.37-16.56a148.66,148.66,0,0,0,9.68-19.09,268.65,268.65,0,0,0,12.95-40.71q2.46-10.38,4.36-20.88l1.79-10.46a61.39,61.39,0,0,1,2.42-9.63l.85-2.27c.3-.74.69-1.42,1-2.14a13.4,13.4,0,0,1,1.14-2c.44-.64.83-1.3,1.26-1.93a19.45,19.45,0,0,1,6.75-5.67c5.2-2.67,11.78-2.78,18.43-2.21,12.16,5,23.49,8.17,31.47,9.28a1.14,1.14,0,0,1,.91,1.5C489.56,649.52,478.73,697.55,473.19,738.67ZM776,216.85c-1.57-3.3-3.93-8.21-5.38-11.06-2-3.86-6.27-4.24-12.34-3.64l-.29-.56a17.85,17.85,0,0,0-2.24-3.26,9.31,9.31,0,0,0-1.88-1.6,11,11,0,0,0-2.07-1,27.5,27.5,0,0,0-7.21-1.29c-2.23-.16-4.41-.23-6.58-.27-4.62-.11-9.3,0-14,.3l-8.46-6.67,3,7.08q-3.3.3-6.57.71c-8.6,1.05-17,3.16-25.3,5.24-2.1.51-4.19,1.07-6.27,1.61a30.82,30.82,0,0,1-3.12.76,19.91,19.91,0,0,1-3.17.15,16.91,16.91,0,0,0-2.83.14c-.88.18-1.73.3-2.68.44a48.67,48.67,0,0,0-6.49,1,13.17,13.17,0,0,0,5.95,3.88,11.88,11.88,0,0,0,3.71.51,9.24,9.24,0,0,0,3.47-.87c1-.47,2-1,3-1.37a25.92,25.92,0,0,1,3.08-.82q3.07-.73,6.19-1.26c8.36-1.34,16.81-2.14,25.15-3,4.18-.43,8.36-.75,12.54-.91s8.34-.11,12.57-.07c2.09,0,4.18.09,6.19.23a22.84,22.84,0,0,1,5.36.86,3.16,3.16,0,0,1,1.37.8,12.32,12.32,0,0,1,1.39,2,51,51,0,0,1,2.5,5c1.13,7.54-.12,12.61-4.41,17.6-12.94,1.43-25.83,3-38.7,4.5-3.32.38-6.64.75-9.94,1.08-1.65.16-3.3.31-4.92.43-.81.06-1.64.13-2.4.15a12.29,12.29,0,0,1-2,0,23.64,23.64,0,0,1-4.21-1.33,22.91,22.91,0,0,0-4.76-1.07,52.42,52.42,0,0,0-10.41-.68,35.08,35.08,0,0,0,8.35,6.52,18.13,18.13,0,0,0,4.78,2.07,54,54,0,0,0,5.57.91c.53.06,1,0,1.58.06s.92,0,1.4,0c.91,0,1.75-.1,2.62-.16,1.71-.13,3.4-.29,5.08-.46,3.36-.33,6.7-.71,10-1.1,12.67-1.47,25.29-3.07,37.9-4.39,2.14,4.1,4.72,13.31,3.77,22.14-1.31,12-4.78,19.06-10.9,22.08-2.16-.4-4.84-.83-7.77-1.27,3.08-2.33,4.94-5.94,9.32-11.14-5.8,2.2-33.33,4-40.89,3.24l1.17-.83a12.51,12.51,0,0,0-6.46-.42,17.65,17.65,0,0,0-6,2.26,17.3,17.3,0,0,0-4.81,4.26,12.12,12.12,0,0,0-2.54,6c2-1,3.64-2,5.26-3l4.73-2.82.39-.24L700,279l1.17.13c.3,0,28.24,3.13,40.32,5.32,4.72,8.64.94,19.91-1.59,23.35-1.81,2.45-10.56,3.21-28,4.73l-8.31.73-.16,0h0a39.44,39.44,0,0,0-6,.87c-2,.44-3.94.94-5.89,1.56s-3.91,1.23-5.84,1.95a59.58,59.58,0,0,0-5.74,2.45,60.44,60.44,0,0,0,6.21.62c2.06.12,4.1.15,6.13.13.78,0,1.56,0,2.34,0-.21.21-.44.41-.65.61-1.25,1.22-2.53,2.41-3.72,3.71a52.91,52.91,0,0,0-3.56,4.2,16.38,16.38,0,0,0,5.54-1.21,35.12,35.12,0,0,0,4.93-2.4c.49-.28,1-.58,1.45-.87-2.07,7.51-5.4,17.66-9.26,28.45-10.4,26-30.9,50.55-30.9,50.55s8.67-1.42,14-4.46c1.94,6,4.14,12.66,6.59,19.82.65,1.91,1.32,3.84,2,5.83.18.51.37,1,.55,1.55.53,1.52,1.06,3.06,1.61,4.62q1.5,4.26,3.09,8.71c.47,1.33,1,2.68,1.45,4,.82,2.28,1.65,4.59,2.51,6.94l1.37,3.75q1.63,4.45,3.35,9.05,3.06,8.2,6.36,16.84,2.9,7.59,6,15.49,2,5.19,4.13,10.49c10.57,26.63,22.55,55.32,35.64,84.67,4.65,10.43,8.79,20.68,12.48,30.66q4.65,12.57,8.38,24.53c4,12.86,7.32,25.1,10,36.47q1.47,6.24,2.69,12.1c.6,2.82,1.15,5.57,1.67,8.25q1.61,8.39,2.78,15.83,1.08,6.81,1.84,12.76c.59,4.52,1,8.63,1.41,12.31,1.27,12.74,1.36,20.11,1.36,20.35a3.13,3.13,0,0,0,.29,1.31c0,.13,5.51,12.46-2.58,22.49-7.73,9.57-21.13,3.74-21.69,3.49a3.2,3.2,0,0,0-1.62-.28c-.13,0-3.11.28-8.31.68-2.52.19-5.55.41-9,.65-8.21.57-18.92,1.22-31.21,1.77l-2.69.12c-7.65.33-15.86.62-24.42.83l-2.88.07q-7.26.15-14.78.22-2.69,0-5.4,0c-9,0-18.09-.06-27.18-.3-28.45-.78-65.58-3.76-97.46-6.75q13.92-.78,27.81-1.8,37.64-2.75,75.14-6.68c-12.69-.92-25.29-1.16-37.87-1.3l-9.44-.06L587,779l-9.42.07-9.4.2-9.4.16-9.38.33c-3.13.09-6.26.17-9.38.37l-3.83.19v0c-19.79-.16-44.71-2.9-49.22-9-2.85-3.87-3.57-24.73-2.78-44.86.21-5.29.53-10.52.93-15.39.49-5.83,1.11-11.13,1.85-15.34h0c.61-3.07,1.24-6.15,1.89-9.22l.81-3.77c3.75-17.3,8-34.17,12.36-49l9.33,2.23,5.46,1.29,18.35,4.28,5.27,1.22,21.27,4.89,6.49,1.49c15,3.43,30,6.85,43,9.8l9.57,2.18,2.07.46,4.55,1,20.07,4.54v0l2.24.48A107.21,107.21,0,0,0,672,670.23a44.3,44.3,0,0,0,6.75-.41l4.61-.79-2.39-4c-.32-.53-7.72-12.58-29.32-16-.49-4.17-1-8.51-1.46-13-.13-1.28-.27-2.57-.41-3.86q-.78-7.59-1.55-15.61c-.22-2.23-.43-4.49-.65-6.76-.34-3.64-.68-7.34-1-11.06l-.48-5.22c-.14-1.46-.27-2.91-.41-4.38l-.09-1q-.28-3.23-.59-6.47-.56-6-1.12-12.07c-.5-5.4-1-10.84-1.55-16.29-.28-2.89-.57-5.79-.86-8.68-.18-1.75-.35-3.49-.53-5.23q-.6-5.83-1.24-11.66c-.19-1.77-.39-3.54-.59-5.31-1.1-9.8-2.28-19.53-3.57-29.11l-.72-5.22q-1-6.82-2-13.52t-2.13-12.94q-1.44-8.22-3-16.1c-.27-1.29-.53-2.58-.8-3.85q-1.29-6.14-2.71-12c-.31-1.3-.63-2.6-1-3.88s-.72-2.85-1.09-4.25q-.75-2.82-1.53-5.57c-.46-1.62-.92-3.22-1.4-4.79q-1.44-4.79-3-9.29c-1.54-4.47-2.41-19-2.28-30.06,0-1.34,0-2.63.09-3.85.29-7.93,2.51-33.37,4.86-60.3,2.79-32.1,5.69-65.3,5.86-74.79v-.51c.27-14.55.42-22.56,2.23-26.6,1.46-3.27,4.13-4.41,12.42-7.58,2.62-1,5.88-2.27,9.59-3.71,18.47-7.18,52.45-20.4,64-22,10.12,4.76,21.62,7.06,31.8,9.09,8.5,1.7,17.28,3.45,19.73,6.08,5,10.57,13.18,16.47,19.17,20.79,1.26.91,2.44,1.77,3.45,2.56a2.1,2.1,0,0,1,.8,1.7,2.08,2.08,0,0,1-.84,1.66A14.77,14.77,0,0,1,776,216.85Zm29.3,29c-2.91-1-3.06-4.73-.22-4.77,1.88,0,13.91,6.38,20.81,14.72C822.24,252.49,808.2,246.93,805.29,245.88Z"/><path class="cls-2" d="M805.06,241.1c-2.84.05-2.69,3.73.22,4.78s17,6.61,20.59,10C819,247.49,807,241.07,805.06,241.1Z"/><path class="cls-1" d="M552,185.52l7.44,3.66,16.19-32.94a14.22,14.22,0,0,0-7.23-4.09Z"/><path class="cls-1" d="M533.88,241.1l19.25-39.17-7.45-3.66-18.3,37.25-.4.82A12.08,12.08,0,0,0,533.88,241.1Z"/><path class="cls-1" d="M578.21,132.07l-6.14,12.5,52.26,25.68c4.84.47,9.48.08,14.27-8.51Z"/><path class="cls-1" d="M519.9,242l59-120-10.11-5L512.41,231.69s0,.06,0,.1h0l-3.91,7-3.36-1.89,1.79-3.18-12.13,2.71,2.39,10.7Z"/><path class="cls-1" d="M527.27,116.73a14.21,14.21,0,0,0-14.2,14.19,14.07,14.07,0,0,0,1.78,6.86l11.54-8.42L533,124.6l3.32-2.37,1.35-1A14.15,14.15,0,0,0,527.27,116.73Z"/><path class="cls-1" d="M539.53,128.16l-3.75,1.51-7.51,3.06-13.18,5.45A14.16,14.16,0,0,0,541,127.57Z"/><path class="cls-1" d="M772.7,739.26c-9.22,3.17-13.93,11.88-15.73,16.12-1.45-2-2.9-4-4.34-6L739.85,731.9l-.67-.92C748.73,727.79,766.91,729.63,772.7,739.26Z"/><path class="cls-1" d="M709.78,550.41a142.25,142.25,0,0,0-7.52-15.31c-2.5-4.16-4.09-5.52-5-6a3.11,3.11,0,0,0-.44-.07l-.59,0a2.09,2.09,0,0,0-1.26,1.12c-1.61,3.61,2.87,14.86,6.6,23.41A13.13,13.13,0,0,1,709.78,550.41Z"/><path class="cls-1" d="M706.44,571.89c-1,2.55-.75,5.86.52,10.39,1.13,4.05,6.46,13.88,12.61,22.31,1.57-1.45,3.18-2.89,4.83-4.29a85,85,0,0,1-11.21-21C711.06,578.2,708.88,575.81,706.44,571.89Z"/><path class="cls-1" d="M684.28,501.8c-.19-12.94,2.52-21.94,4.19-26.2-5.39.33-8.13,3.57-10,11.29-.71,3-1,8.56-.71,14.88A15.53,15.53,0,0,1,684.28,501.8Z"/><path class="cls-2" d="M623.11,413.85c3.23-12.67-.42-24.28-4-31.72v29q.71,2.35,1.4,4.79c.74-.31,1.5-.6,2.27-.88Z"/><path class="cls-1" d="M632.07,739.3c15.28-12.24,39.32-31,63.71-49.16-2.64-.51-5.13-.92-7.33-1.12,4.13-1,8.26-1.86,12.23-2.5,12.9-9.5,25.72-18.65,37.25-26.4-2.43-3-4.93-6.34-7.28-9.68C689.8,678.57,649.18,716.86,632.07,739.3Z"/><path class="cls-2" d="M755.3,671.12c0,.23,0,.45,0,.68a8.36,8.36,0,0,0,8.36,8.36h.12a6.36,6.36,0,0,0,.94-3.32,6.44,6.44,0,0,0-6.44-6.43A6.37,6.37,0,0,0,755.3,671.12Z"/><path class="cls-1" d="M742.27,647.52c-.24-.34-.47-.68-.72-1l-2.11-2.92a178.72,178.72,0,0,0-11.36-13.8,10.36,10.36,0,0,1-3.57,2.27c4.48,11.84,20.12,30.85,26.61,37.38a10.3,10.3,0,0,1,3-2c-1.46-3-3.54-6.95-6.31-11.51Z"/><path class="cls-1" d="M701.12,501.5a15.62,15.62,0,0,1,6.5-.46c0-1.75-.12-3.45-.23-5.05q-3.07-7.87-6-15.49c-.71,1.73-1.58,3.75-2.47,5.65A80.26,80.26,0,0,1,701.12,501.5Z"/><path class="cls-2" d="M650.48,451a75.36,75.36,0,0,0,5.9-7.67,52.75,52.75,0,0,1,5.51-9.8,46,46,0,0,0,4.2-15.35h0c-4.44,6.14-15,21-19.52,29A11.68,11.68,0,0,1,650.48,451Z"/><path class="cls-2" d="M662,444.15c6.74-3.91,14.51-8.89,19.7-17.58l-.54-1.56C676.32,429.81,668.2,437.78,662,444.15Z"/><path class="cls-1" d="M733.52,585.85c.73-1.1,1.47-2.18,2.2-3.23.27-.38.53-.77.8-1.16-2.77-5.76-5.84-11.05-7.62-13.07-2.85-3.25-5.12-4.81-7.14-4.91a4.94,4.94,0,0,0-2.08.39c.38,1,.73,2.08,1,3.08A70.77,70.77,0,0,1,733.52,585.85Z"/><path class="cls-2" d="M768,646.35a179.25,179.25,0,0,0-16,9.18c2.61,4.4,4.56,8.18,5.92,11h.31A10.29,10.29,0,1,1,748,676.83a10.19,10.19,0,0,1,.91-4.21c-2.1-2.08-5.14-5.44-8.5-9.49-9.88,6.64-20.74,14.32-31.79,22.38,11.29-1,19.76.41,20,6,.24,6.42-14.42,2.6-27.7-.28-4,2.94-8,5.92-11.93,8.89,12.77-.57,24.65,1.35,23.53,7.46s-15.27-3.6-24.19-7c-23.46,17.65-45.52,35-58.42,45.47v0l-.72.58c-6.12,5-11.14,9.11-14.14,11.71l-6.21,5.41,3.16-7.61c.23-.54,23.7-55,113.52-113.7a57.69,57.69,0,0,1-4.83-9.76,10.29,10.29,0,1,1,9.72-6.17q3.72,4.07,7.16,8.28c7.15-4.41,14.57-8.76,22.14-13-3.69-10-7.83-20.23-12.48-30.66-13.09-29.35-25.07-58-35.64-84.67-.14,10.62-1.6,22-5.49,27.4A164,164,0,0,1,713.38,549h0l.51,1.18c.3.68.59,1.37.88,2s.69,1.58,1.05,2.4c.82,1.86,1.65,3.78,2.44,5.69a8.71,8.71,0,0,1,3.69-.65c3.18.17,6.21,2.09,9.85,6.23,2.15,2.45,5.56,8.33,8.68,15l.47,1-.62.91-1.44,2.1c-1.42,2-2.76,4-4,6.06L733,594.15l-1.52-3.48a76.9,76.9,0,0,0-9.62-16.51,7.57,7.57,0,0,1-.53,2.51,5.24,5.24,0,0,1-3,2.92,7.42,7.42,0,0,1-.77.22,83.08,83.08,0,0,0,11,19.64l1.09,1.47-1.4,1.17c-2.62,2.19-5.18,4.48-7.6,6.78l-1.57,1.49-1.3-1.71c-7-9.25-13.21-20.57-14.54-25.33-1.46-5.21-2.25-10.81,1-15.34-1.75-3.24-3.63-7.19-5.72-11.94-3.41-7.77-5.62-13.58-6.74-18a11.69,11.69,0,0,1-1.66.12,14.16,14.16,0,0,1-5.15-1.06c-11.35-4.35-12.24-42.67-10.2-51.15,1.8-7.45,5.17-14.9,16.27-14.2a78.38,78.38,0,0,1,4-8.11q-1.71-4.6-3.35-9.05a23.77,23.77,0,0,1-2.55.14c-8.31,0-17.8-4.05-22.46-8.92-1.62,1-3.2,1.9-4.72,2.76-2,1.13-3.75,2.16-5.31,3.18,8.9.29,19.49,2.76,25.35,6.22l2.27,1.33-2,1.76c-5,4.49-15.56,7.42-24,7.42a24.74,24.74,0,0,1-6.88-.84,3.9,3.9,0,0,1-.19.35,9.56,9.56,0,0,1,3.09,2.7c3.12,4.21,2.57,11.14-1.36,17.24-2.85,4.43-6.89,6.85-11.4,6.85h-.27a13.23,13.23,0,0,1-5.82-1.52c1.29,9.58,2.47,19.31,3.57,29.11,27.19,4.21,47.59,25.81,55.29,44.69l.95,1.49-.41.45c1,6.59-5.12,17-16,22.28-10,4.86-10,4.92-8.8,8,3.53,9.22,4.21,15.85,2,19.7a7,7,0,0,1-5.09,3.48,8.5,8.5,0,0,1-1.49.13,7.67,7.67,0,0,1-5.68-2.46c-2.87-3-3.88-8.63-2.58-14.21a3.24,3.24,0,0,0-.77-3c-1.72-2.1-5.74-3.76-10-4.28.34,3.72.68,7.42,1,11.06,10.36,12.09,13.3,17.71,11.54,21.79-1.58,3.68-5.71,4.44-8.85,4.44h-.08c.48,4.47,1,8.81,1.46,13,21.6,3.47,29,15.52,29.32,16l2.39,4-4.61.79a44.3,44.3,0,0,1-6.75.41,107.21,107.21,0,0,1-22.24-2.61l-2.24-.48v0l-20.07-4.54,4.18,10.63a2,2,0,0,1-.08,1.59,1.91,1.91,0,0,1-1.25,1L556.5,694l41.9,7.13a1.94,1.94,0,0,1,1.6,2l-.21,3.64,1-.25a49.84,49.84,0,0,1,9-1.09,33.78,33.78,0,0,1,9,.81c-3,.34-5.93.74-8.84,1.19s-5.8.95-8.66,1.61l-1.73.38-.87,15.58,0,.18a.22.22,0,0,1,0,.08l-1.61,8.38a1.93,1.93,0,0,1-1.48,1.52l-41,9c-1.09,7.78-.55,15.48,1.41,18h0a1.89,1.89,0,0,1,.36,1.55l-2.36,12.11a1.93,1.93,0,0,1-1.89,1.56H552l-10.5-1a2,2,0,0,1-.55-.13l-.16-.1a3.3,3.3,0,0,1-.32-.18,2.5,2.5,0,0,1-.22-.24,1.22,1.22,0,0,1-.15-.17,2.15,2.15,0,0,1-.14-.26,1.79,1.79,0,0,1-.12-.24c-.1-.27-2.78-7.32-16.57-9.42-13.86-1.92-18.15,5.3-18.2,5.38l-.06.1-.12.17-.05.05a1.93,1.93,0,0,1-2,.57l-7.5-2.25a2,2,0,0,1-1.35-1.5l-2-11a2,2,0,0,1,0-.42s0-.08,0-.12a1.59,1.59,0,0,1,.06-.3l0-.12a1.66,1.66,0,0,1,.15-.33s0,0,0-.05a2,2,0,0,1,.25-.33l0,0s0,0,.06,0a1.55,1.55,0,0,1,.24-.19l.11-.08.27-.12.12,0a0,0,0,0,0,0,0c.41-.13,10-3.34,10.8-16.78l-2.28-.3a1.87,1.87,0,0,1-.82-.31L484.21,726.4c-.79,20.13-.07,41,2.78,44.86,4.51,6.11,29.43,8.85,49.22,9v0l3.83-.19c3.12-.2,6.25-.28,9.38-.37l9.38-.33,9.4-.16,9.4-.2L587,779l9.41-.06,9.44.06c12.58.14,25.18.38,37.87,1.3q-37.51,3.93-75.14,6.68-13.9,1-27.81,1.8c31.88,3,69,6,97.46,6.75,9.09.24,18.22.33,27.18.3-10-32.57,16.85-44.9,19.23-45.92a49.64,49.64,0,0,1,1.67-7.66,39.75,39.75,0,0,1,8.22-14.66,42.83,42.83,0,0,1,13.55-9.95,49.73,49.73,0,0,1,7.83-2.9c1.34-.37,2.69-.7,4.06-1,1.14-.21,2.2-.39,3.41-.52a42.23,42.23,0,0,1,2.94-5.07,32,32,0,0,1,10.29-9.79,31.44,31.44,0,0,1,13.68-4.14,36.47,36.47,0,0,1,7.09.2c1.17.14,2.33.33,3.49.58l1.16.28c4.85-7.76,10.59-11.22,16-12.47C775.35,671.45,772.07,659.21,768,646.35ZM658.12,508.41l-3.08.3a23.26,23.26,0,0,1,1,3.38,14.37,14.37,0,0,1,.25,4.81c-.82-1.42-1.49-2.79-2.16-4.17-.31-.66-.59-1.33-.89-2-.36.61-.71,1.22-1.09,1.81a21.1,21.1,0,0,1-3.59,4.33c.53-1.83,1.13-3.55,1.8-5.26.34-.85.69-1.71,1-2.55l-3.14.28c-1.67.15-3.34.28-5.12.31a16.47,16.47,0,0,1,4.72-2.28,25.84,25.84,0,0,1,3.58-.84c-.29-.75-.57-1.51-.83-2.27a33.07,33.07,0,0,1-1.22-4.58,17.78,17.78,0,0,1,3,3.7c.33.51.62,1,.91,1.56.55-1.08,1.12-2.15,1.73-3.2a35.52,35.52,0,0,1,3.13-4.63,28.13,28.13,0,0,1-1.3,5.45c-.42,1.24-.9,2.46-1.41,3.66a22.75,22.75,0,0,1,2.72.19,11.67,11.67,0,0,1,5,1.69C661.41,508.13,659.78,508.27,658.12,508.41Zm20,135.82c2.15-2.94,4.4-5.69,6.75-8.36l-4.33-.86c-2-.39-4.07-.78-6.18-1.26a21.93,21.93,0,0,1,6.38-.74,33.12,33.12,0,0,1,4.87.42c-.09-1.12-.17-2.24-.23-3.37a46.9,46.9,0,0,1,0-5.81,26,26,0,0,1,2,5.51c.22.9.42,1.81.58,2.73,1.16-1.22,2.33-2.42,3.54-3.59a53.36,53.36,0,0,1,5.2-4.47,41.37,41.37,0,0,1-3.7,5.8c-1,1.41-2.17,2.78-3.33,4.11a29.39,29.39,0,0,1,3.58,1.28,15.56,15.56,0,0,1,5.36,3.59c-2-.71-4-1.21-6-1.7q-2.07-.48-4.14-.9a33.66,33.66,0,0,1,0,4.71,19.13,19.13,0,0,1-1.22,5.76c-.31-2-.55-3.84-.78-5.72-.13-1.07-.26-2.15-.38-3.22-.75.72-1.51,1.43-2.3,2.12A29.64,29.64,0,0,1,678.16,644.23Zm-44.08,43.85c-1.41-.77-2.8-1.54-4.29-2.4a13.36,13.36,0,0,1,5,.54,23.17,23.17,0,0,1,3.7,1.38,23.77,23.77,0,0,1,1.52-2.69,15.61,15.61,0,0,1,2.67-3.1,18.78,18.78,0,0,1-.85,4c-.19.62-.4,1.22-.63,1.81.79-.18,1.59-.35,2.39-.48a22.59,22.59,0,0,1,5.22-.35,31.91,31.91,0,0,1-4.67,2.28c-.65.26-1.29.51-1.94.75.48.34,1,.7,1.42,1.08a14.8,14.8,0,0,1,3.35,3.78c-1.57-.67-3-1.38-4.46-2.1-1-.48-1.9-1-2.85-1.46-.31.62-.63,1.24-1,1.85-.66,1.14-1.34,2.24-2.16,3.4a11,11,0,0,1,.27-4.13c0-.24.14-.48.21-.73-.84.24-1.68.46-2.52.67-1.65.42-3.3.79-5.06,1.07a18,18,0,0,1,4.35-2.94c.77-.39,1.56-.74,2.35-1.07Zm-36.7,71.53a21.2,21.2,0,0,1,3.24,5.54L592.55,758c-1.22,3.1-2.54,6.15-4.07,9.22a24.52,24.52,0,0,1,.73-6.35c.2-.87.44-1.73.68-2.58-3,1.16-6.09,2.25-9.29,3.3a22.71,22.71,0,0,1,5-3.84,40.74,40.74,0,0,1,4.23-2.12c-1.07-.92-2.14-1.83-3.23-2.72-1.6-1.29-3.2-2.55-5-3.78a16.51,16.51,0,0,1,6.09,2.12,29,29,0,0,1,3.73,2.46c.63-1.59,1.31-3.16,2.08-4.68a35,35,0,0,1,3.3-5.45,46.31,46.31,0,0,1-1.44,6.18c-.42,1.44-.89,2.85-1.38,4.26,1.06-.33,2.12-.64,3.19-.9a29.29,29.29,0,0,1,6.22-.93,55,55,0,0,1-5.57,2.83c-1.09.49-2.18,1-3.28,1.42A32.15,32.15,0,0,1,597.38,759.61Zm55.32.88a25.7,25.7,0,0,1,2.5,6.44c-2.35-2.94-4.56-5.81-6.75-8.73-.28,1-.58,2-.92,3a28.26,28.26,0,0,1-2.92,6.35c.45-3.79,1-7.44,1.73-11.09-3.89.63-7.75,1.37-11.78,2.08a24.53,24.53,0,0,1,6.25-3.17,38.48,38.48,0,0,1,4.61-1.31c-.79-1.11-1.58-2.23-2.35-3.36a66.57,66.57,0,0,1-3.6-5.81,34,34,0,0,1,5.16,4.55c.89.93,1.74,1.9,2.57,2.9.38-1.68.78-3.35,1.23-5a55.77,55.77,0,0,1,2.17-6.59,41.23,41.23,0,0,1-.2,7c-.2,1.92-.49,3.82-.85,5.71a34,34,0,0,1,5.05-.15,18.71,18.71,0,0,1,6.88,1.48c-2.35.06-4.58.27-6.81.52-1.59.19-3.18.41-4.76.65A47.25,47.25,0,0,1,652.7,760.49Z"/><path class="cls-2" d="M674.74,440.24a63.86,63.86,0,0,1,11.62-.34q-1.59-4.45-3.08-8.71A45.2,45.2,0,0,1,674.74,440.24Z"/><path class="cls-2" d="M671,444.62a30.59,30.59,0,0,0,19.32,6.25q-1.29-3.53-2.52-6.94C682.47,443.16,675.26,444,671,444.62Z"/><path class="cls-2" d="M694.78,492.88c-1.47.7-4.14-.19-6-1.45-1,8.94-.83,21.17,3.43,36a6.2,6.2,0,0,1,3.17-2.18h0a90.81,90.81,0,0,0,.7-33.79A4.19,4.19,0,0,1,694.78,492.88Z"/><path class="cls-2" d="M653.23,459.27a16.28,16.28,0,0,1-.39,4.78c6.21,1.76,17.93-.26,24.43-4.07C671.51,459.69,659.35,459.15,653.23,459.27Z"/><path class="cls-1" d="M648.17,454.73c-1.38-2.94-3.67-4.81-5.67-4.72-3.29.11-4.28,2.35-6.68,8.81-.69,1.87-1.5,4-2.51,6.43h.11a4.68,4.68,0,0,1,4,2.22,24.62,24.62,0,0,1,10.09-.72A12.32,12.32,0,0,0,648.17,454.73Z"/><path class="cls-2" d="M639.93,418.57c-5.3.47-13.41,2-17.88,2.95.37,1.4.74,2.81,1.1,4.24C629.26,426,635.34,422.36,639.93,418.57Z"/><path class="cls-1" d="M787,731.76a27.64,27.64,0,0,0-7.58,6.43c-.27-.84-.55-1.69-.82-2.54l-6.08-18.87-.46-1.4a30.18,30.18,0,0,1,13.1,3.62Q786.25,725.81,787,731.76Z"/><path class="cls-2" d="M655.53,630c1-2.39-3.2-8.39-7.35-13.51.52,5.34,1,10.55,1.56,15.6C652,632.19,654.75,631.82,655.53,630Z"/><path class="cls-1" d="M554.6,725.79l40.4-2.66.72-12.73c-1,.24-2,.48-2.92.75-2.86.74-5.66,1.66-8.6,2.43a39.55,39.55,0,0,1,8-4.32c1.21-.52,2.45-1,3.7-1.36l.18-3.22-30-5.1L559.9,720l2.66-21-15.44-2.63-1.59.39,1,3.42a.53.53,0,0,1,0,.12l0,.18a2.17,2.17,0,0,1,0,.26s0,.07,0,.11l-.75,11.2a1.94,1.94,0,0,1-1.72,1.79l-21,2.31h-.21A1.93,1.93,0,0,1,521,714.7l-2-7.93a.13.13,0,0,0,0-.06s0,0,0-.05L515.85,691l-.94-.16c-2,3.21-4,6.45-6,9.73-1.09,1.84-2.16,3.7-3.18,5.57s-2,3.77-2.91,5.73c.57-2.07,1.29-4.1,2-6.13s1.52-4,2.33-6c1.28-3.19,2.62-6.35,4-9.51l-22.35-3.8q-1,4.6-1.9,9.22h0c-.74,4.21-1.36,9.51-1.85,15.34l19.42,8.19Z"/><path class="cls-1" d="M503.16,756.46c2.06-2.6,8.28-8.46,21.63-6.73s18.34,8.4,19.88,11.15l6.73.42c-1.45-4.62-1.33-11.4-.65-16.87l-42.84-5.64c-.63,9.15-4.79,14.32-8.34,17.09Z"/><path class="cls-2" d="M512.07,672.14a1.93,1.93,0,0,1,1.47-2.26l21-4.72a1.93,1.93,0,0,1,2.28,1.35l3.16,10.9c8.85-2.6,46.08-13.41,71.29-18.51-13-2.95-28-6.37-43-9.8l-19.78,14.41,13.3-15.9c-7.25-1.66-14.42-3.31-21.27-4.9l-5.53,16,.26-17.18c-6.56-1.52-12.75-3-18.36-4.29a35.43,35.43,0,0,0-.93,7.77,44.06,44.06,0,0,0,1.66,11.61,45.25,45.25,0,0,1-4.85-11.17,38.83,38.83,0,0,1-1.13-6.21c-.11-1.09-.17-2.19-.21-3.28L502,633.7c-4.37,14.81-8.61,31.68-12.35,49L515,687Z"/><ellipse class="cls-3" cx="753.91" cy="638.76" rx="2.41" ry="1.16"/><path class="cls-1" d="M543.27,688.94c10.78-3.12,65.65-18.89,81.86-21.61l-2.28-5.79-2.06-.47c-23.72,3.79-70,17.19-79.79,20Z"/><path class="cls-1" d="M685.62,795.55q-7.26.15-14.78.22A40.4,40.4,0,0,1,668.51,779c10.62-7.84,23.56-8.39,23.56-8.39S681.88,783.24,685.62,795.55Z"/><polygon class="cls-1" points="539.03 700.05 542.25 699.29 533.57 669.33 516.23 673.23 522.37 703.95 539.03 700.05"/><path class="cls-3" d="M703.75,727.52c-1.26,1-2.52,2.09-3.76,3.26A35.43,35.43,0,0,1,703.75,727.52Z"/><path class="cls-1" d="M762.65,712.72s-19.28,4.91-25.2,15.91L728.21,716c.31-.57.62-1.13,1-1.69C748.73,703.17,762.65,712.72,762.65,712.72Z"/><path class="cls-1" d="M721.16,781.4a26.18,26.18,0,0,0-8.24,13.25c-7.65.33-15.86.62-24.42.83C694.42,786.34,712.7,776,721.16,781.4Z"/><path class="cls-1" d="M746.82,792.76c-8.21.57-18.92,1.22-31.21,1.77,4.2-2.91,12-7.72,19.11-9C739.91,788.65,743.84,791,746.82,792.76Z"/><path class="cls-1" d="M787.49,788.22c-7.73,9.57-21.13,3.74-21.69,3.49a3.2,3.2,0,0,0-1.62-.28c-.13,0-3.11.28-8.31.68-3.56-2-12.79-7.54-24.1-14.47,7.37-4.66,22-10.61,38,1.31,1,1,1.93,2,2.94,2.95.65.64,1.33,1.26,2,1.87a13.48,13.48,0,0,0,2.18,1.71c-1-1.5-1.83-3.16-2.78-4.7s-1.87-3.12-2.81-4.67c-1.93-3.07-3.88-6.13-5.94-9.1-2.35-3.39-4.78-6.73-7.21-10.06,4.85-1.58,17.43-3.78,27.57,10.92.3.58.59,1.16.9,1.74a30.78,30.78,0,0,0,2.62,4.31c-.81-3.23-1.35-6.53-2.18-9.74s-1.6-6.43-2.5-9.61c-1.19-4.25-2.53-8.44-3.89-12.63a17.76,17.76,0,0,1,7.78,2.13c1.27,12.74,1.36,20.11,1.36,20.35a3.13,3.13,0,0,0,.29,1.31C790.12,765.86,795.58,778.19,787.49,788.22Z"/><path class="cls-1" d="M766,696.77l.39,1.17,3.87,11.82a35.91,35.91,0,0,1,12.16-6.59c-.51-2.68-1.07-5.44-1.66-8.25A25.18,25.18,0,0,0,766,696.77Z"/><path class="cls-1" d="M634.2,452.47a8.37,8.37,0,0,0-3-5.49,6.13,6.13,0,0,0-3.57-1.47q1.6,7.88,3,16.1c.58-1.46,1.09-2.84,1.57-4.13C632.89,455.64,633.52,454,634.2,452.47Z"/><path class="cls-1" d="M649.92,569.72a8.69,8.69,0,0,1-1.54.26,11.84,11.84,0,0,1-4.55-.41c.38,4,.75,8.07,1.12,12.06a31.56,31.56,0,0,0,13-6.92A9.55,9.55,0,0,1,649.92,569.72Z"/><path class="cls-2" d="M644.09,387.2l-.12.28c11-3.64,24.32-13.74,26.81-26.83Z"/><path class="cls-1" d="M649.73,485.87c3-4.68,3.64-10,1.5-12.86s-6.81-3.4-13.35-1.69a4.68,4.68,0,0,1-4.46,3.29,4.91,4.91,0,0,1-.66-.06q1.05,6.69,2,13.52a10.05,10.05,0,0,0,6.62,2.88C644.65,491,647.55,489.26,649.73,485.87Z"/><path d="M660.45,599.72a8.37,8.37,0,0,1,1.8,7.42c-.88,3.77-.33,7.76,1.32,9.51a2.59,2.59,0,0,0,2.55.79,1.9,1.9,0,0,0,1.49-1c1.29-2.27.39-8.14-2.36-15.31-2.9-7.57,1-9.46,11.36-14.5a25.29,25.29,0,0,0,12.24-12.12c-12.07,8.84-31,12.85-43.31,13.56l.09,1c.13,1.46.27,2.92.4,4.38C651.26,593.91,657.31,595.86,660.45,599.72Z"/><path d="M639.65,527.71q.63,5.82,1.23,11.66a82.76,82.76,0,0,1,39,13.53C671.26,542.05,657.84,530.93,639.65,527.71Z"/><path class="cls-1" d="M648.38,552.29a8.64,8.64,0,0,1,6.6,4,9.21,9.21,0,0,1,3.33-.62,9.5,9.5,0,0,1,6,2.16,20,20,0,0,0-3.08-8.71,80.82,80.82,0,0,0-19.86-4.53c.3,2.9.58,5.8.87,8.69A10.54,10.54,0,0,1,648.38,552.29Z"/><path class="cls-2" d="M627.7,410.57c-.06.37-.11.75-.18,1.13a76.87,76.87,0,0,1,8.93-1.49,30,30,0,0,0,15.82-12.69Z"/><path class="cls-2" d="M638.18,375.62c-3.31,6.47-6.63,19.57-7.89,26.42A35.55,35.55,0,0,0,638.18,375.62Z"/><path class="cls-2" d="M660.63,571.75a19.57,19.57,0,0,0,2.8-5.28,19.82,19.82,0,0,0,1-4.63,6.92,6.92,0,0,0-8.39-3.2,9.67,9.67,0,0,1,.33,2.5,8.79,8.79,0,0,1-4.05,7.54,7,7,0,0,0,6,3.48A6.82,6.82,0,0,0,660.63,571.75Z"/><path class="cls-2" d="M717.92,617.38a8.36,8.36,0,0,0,8.37,8.36h.12a6.36,6.36,0,0,0,.94-3.32,6.45,6.45,0,0,0-6.44-6.43,6.38,6.38,0,0,0-2.95.73C717.94,616.93,717.92,617.15,717.92,617.38Z"/><path class="cls-2" d="M668.39,552.14a25.53,25.53,0,0,1-.1,16,26.08,26.08,0,0,1-10.35,13.18c11.28-2.23,23.56-6.6,30.79-13.32C684.61,562.42,677.58,556.62,668.39,552.14Z"/><path class="cls-2" d="M712.32,238.36c-3.34.38-6.68.76-10,1.1-1.68.17-3.37.33-5.08.46-.86.06-1.7.13-2.62.16-.47,0-.85,0-1.4,0s-1,0-1.57-.07a50.78,50.78,0,0,1-5.57-.9,18.38,18.38,0,0,1-4.79-2.07,35,35,0,0,1-8.34-6.52,52.44,52.44,0,0,1,10.41.67,23.72,23.72,0,0,1,4.76,1.07,22.62,22.62,0,0,0,4.2,1.34,13.65,13.65,0,0,0,2.05,0c.76,0,1.59-.09,2.39-.15,1.63-.12,3.28-.27,4.93-.44,3.3-.32,6.62-.69,9.94-1.07,12.87-1.47,25.75-3.07,38.7-4.5,4.28-5,5.53-10.06,4.41-17.61a54.39,54.39,0,0,0-2.5-5,11.45,11.45,0,0,0-1.4-2,3,3,0,0,0-1.36-.8,22.93,22.93,0,0,0-5.36-.86c-2-.14-4.1-.2-6.2-.24-4.22,0-8.39-.09-12.56.08s-8.36.47-12.54.91c-8.34.87-16.8,1.67-25.16,3q-3.11.52-6.19,1.25a25.82,25.82,0,0,0-3.07.83c-1,.36-2,.9-3,1.37a9.25,9.25,0,0,1-3.48.87,11.79,11.79,0,0,1-3.7-.52,13.18,13.18,0,0,1-6-3.87,48.8,48.8,0,0,1,6.5-1c.94-.14,1.8-.27,2.67-.44a17,17,0,0,1,2.83-.14,22.5,22.5,0,0,0,3.17-.15c1.06-.16,2.08-.5,3.12-.76,2.09-.54,4.18-1.1,6.27-1.61,8.34-2.08,16.71-4.19,25.31-5.24q3.27-.4,6.57-.71l-3-7.08,8.46,6.67c4.66-.29,9.33-.41,14-.3,2.16,0,4.34.11,6.58.27a27,27,0,0,1,7.2,1.29,11.57,11.57,0,0,1,2.07,1,9.76,9.76,0,0,1,1.89,1.61,17.42,17.42,0,0,1,2.23,3.26c.11.19.2.37.3.56,6.06-.6,10.37-.22,12.34,3.64,1.45,2.85,3.8,7.75,5.38,11.06a14.78,14.78,0,0,0,11-2.54,2.13,2.13,0,0,0,.84-1.67A2.1,2.1,0,0,0,787,211c-1-.79-2.2-1.65-3.46-2.56-6-4.33-14.15-10.23-19.16-20.79-2.46-2.63-11.24-4.38-19.73-6.08-10.19-2-21.69-4.33-31.8-9.09-11.54,1.64-45.51,14.85-64,22-3.7,1.44-7,2.71-9.59,3.71-8.28,3.17-10.95,4.31-12.42,7.58-1.81,4-2,12.05-2.22,26.6v.51c-.18,9.49-3.07,42.68-5.87,74.79-2.34,26.93-4.56,52.37-4.86,60.3,0,1.22-.07,2.51-.09,3.85.07-.13.12-.22.13-.25l1.42-2.49,1.77,2.25A57.1,57.1,0,0,1,625.68,388c3.35-10.52,10.35-21.84,10.74-22.46l2-3.14,1.46,3.4a40,40,0,0,1,2.28,16.3c10.15-21.2,29.61-25.8,30.53-26l2.51-.56-.17,2.57c-1.2,18.6-20.78,31.37-33.63,34.14l-1.34.29c-.37,1-.77,2.08-1.25,3.13a48.55,48.55,0,0,1,16.87-2l2.45.26-.85,2.32a30.9,30.9,0,0,1-11.36,13.53c2.16,0,3.49.17,3.64.18l3.45.37-2.13,2.74c-.56.72-12.88,16.33-26.74,16.6q1.41,5.88,2.71,12a9.9,9.9,0,0,1,6.82,2.35A12.89,12.89,0,0,1,637,448.3a6.5,6.5,0,0,1,.69-.59c3-13.63,8.78-27.09,29.84-34.14l2.5-.84,0,2.64A39.51,39.51,0,0,1,668.62,426a42.62,42.62,0,0,1,10.49-6.85c-2.44-7.15-4.64-13.78-6.58-19.81-5.37,3-14,4.46-14,4.46s20.49-24.59,30.9-50.55c3.86-10.79,7.18-20.94,9.26-28.46-.49.3-1,.6-1.46.88a34.47,34.47,0,0,1-4.92,2.4,16.44,16.44,0,0,1-5.54,1.21,52.85,52.85,0,0,1,3.55-4.2c1.2-1.31,2.47-2.49,3.72-3.71l.66-.61c-.78,0-1.56,0-2.34,0q-3.06,0-6.13-.13a58,58,0,0,1-6.22-.63,62.28,62.28,0,0,1,5.75-2.44c1.93-.73,3.88-1.37,5.83-2s3.92-1.11,5.9-1.56a40.35,40.35,0,0,1,6-.87h0l.16,0,8.31-.73c17.42-1.52,26.16-2.28,28-4.73,2.53-3.44,6.32-14.71,1.59-23.35-12.08-2.19-40-5.29-40.31-5.32L700,279l-4.5-4.77-.39.23-4.73,2.82c-1.63,1-3.26,2-5.26,3a12.09,12.09,0,0,1,2.54-6,17,17,0,0,1,4.81-4.26,17.68,17.68,0,0,1,6-2.26,12.5,12.5,0,0,1,6.46.42l-1.16.83c7.56.76,35.09-1,40.88-3.24-4.38,5.2-6.23,8.81-9.32,11.14,2.94.43,5.61.86,7.78,1.26,6.11-3,9.59-10.06,10.89-22.08,1-8.82-1.62-18-3.76-22.13C737.6,235.29,725,236.89,712.32,238.36Zm-77.75-13.75c3.11-.33,8.85,8.57,12.71,16C633.71,237.53,632.42,224.83,634.57,224.61Zm9.06,33c2.26-1.72,9.76,4.61,14.37,10.61C646.42,266.69,640.84,259.71,643.63,257.58Zm11.75,38.76c1.93-2.26,12.54,4.18,18.81,10.61C662.77,306.15,652.61,299.56,655.38,296.34Z"/><path d="M730.34,626.53a10.29,10.29,0,1,0-9.71,6.16,57.27,57.27,0,0,0,4.82,9.77c-89.82,58.68-113.28,113.15-113.51,113.7l-3.17,7.6,6.22-5.4c3-2.61,8-6.77,14.14-11.72l.71-.58h0c12.9-10.43,35-27.83,58.42-45.47,8.92,3.37,23.08,13.1,24.2,7s-10.77-8-23.54-7.46c4-3,7.94-6,11.93-8.9,13.29,2.88,27.94,6.7,27.7.29-.21-5.56-8.67-7-20-6,11-8.06,21.9-15.75,31.78-22.38,3.36,4,6.41,7.41,8.5,9.48a10.29,10.29,0,1,0,9.38-6.07h-.31c-1.36-2.85-3.3-6.62-5.91-11a182.38,182.38,0,0,1,16-9.19q-3.74-11.93-8.37-24.52c-7.57,4.23-15,8.58-22.14,13Q734.08,630.6,730.34,626.53Zm21.16,12.23c0-.41.91-1.17,2.41-1.17s2.41.76,2.41,1.17-.91,1.16-2.41,1.16S751.5,639.17,751.5,638.76Zm-24.15-16.35a6.36,6.36,0,0,1-.94,3.32h-.12a8.36,8.36,0,0,1-8.37-8.36c0-.23,0-.45,0-.67a6.38,6.38,0,0,1,2.95-.73A6.45,6.45,0,0,1,727.35,622.41Zm-26.67,64.11c-4,.64-8.1,1.5-12.23,2.5,2.2.2,4.69.61,7.33,1.12-24.39,18.11-48.43,36.92-63.71,49.16,17.11-22.44,57.73-60.73,98.58-88.86,2.35,3.34,4.85,6.64,7.28,9.68C726.4,667.87,713.58,677,700.68,686.52Zm64-9.69a6.36,6.36,0,0,1-.94,3.32h-.12a8.36,8.36,0,0,1-8.36-8.36c0-.23,0-.45,0-.68a6.37,6.37,0,0,1,3-.72A6.44,6.44,0,0,1,764.69,676.83Zm-13.57-7.4c-6.49-6.53-22.13-25.54-26.61-37.38a10.36,10.36,0,0,0,3.57-2.27,178.72,178.72,0,0,1,11.36,13.8l2.11,2.92c.25.34.48.68.72,1l5.5,8.4c2.77,4.56,4.85,8.5,6.31,11.51A10.3,10.3,0,0,0,751.12,669.43Z"/><path d="M501.81,738l2.28.3c-.84,13.44-10.39,16.65-10.81,16.78h0l-.12,0a1.23,1.23,0,0,0-.26.12l-.12.08a2.23,2.23,0,0,0-.24.19l-.06,0,0,0a2.1,2.1,0,0,0-.26.33l0,.05a1.22,1.22,0,0,0-.14.33.56.56,0,0,0,0,.12,2.34,2.34,0,0,0-.05.3.49.49,0,0,0,0,.12,2,2,0,0,0,0,.42l2,11a1.94,1.94,0,0,0,1.34,1.5l7.51,2.25a1.92,1.92,0,0,0,2-.58l0-.05a1,1,0,0,0,.12-.17.86.86,0,0,0,.07-.1c0-.07,4.34-7.29,18.19-5.37,13.8,2.1,16.48,9.14,16.58,9.42a1.79,1.79,0,0,0,.12.24,1.26,1.26,0,0,0,.13.26,1.14,1.14,0,0,0,.15.16,1.32,1.32,0,0,0,.23.24,1.61,1.61,0,0,0,.31.19l.16.09a2.12,2.12,0,0,0,.55.14l10.5,1h.18a1.93,1.93,0,0,0,1.89-1.56l2.37-12.12a1.84,1.84,0,0,0,0-.41,1.91,1.91,0,0,0-.41-1.14h0c-1.95-2.54-2.49-10.24-1.4-18l41-9a1.91,1.91,0,0,0,1.48-1.52l1.62-8.38v-.08a1.13,1.13,0,0,0,0-.18l.88-15.58,1.72-.39c2.86-.65,5.76-1.12,8.66-1.6s5.84-.85,8.85-1.19a33.85,33.85,0,0,0-9-.81,49.63,49.63,0,0,0-9,1.09l-1,.25.2-3.64a1.92,1.92,0,0,0-1.6-2L556.49,694l73.76-18.26a1.93,1.93,0,0,0,1.33-2.58l-4.18-10.63-4.55-1,2.28,5.79c-16.21,2.72-71.08,18.49-81.86,21.61L541,681.12c9.76-2.86,56.07-16.26,79.79-20l-9.57-2.17c-25.21,5.1-62.44,15.91-71.29,18.51l-3.16-10.9a1.93,1.93,0,0,0-2.28-1.35l-21,4.72a1.93,1.93,0,0,0-1.47,2.26L515,687l-25.36-4.32q-.42,1.89-.81,3.78l22.35,3.8c-1.38,3.16-2.72,6.32-4,9.51q-1.22,3-2.33,6c-.74,2-1.46,4.06-2,6.13.87-2,1.88-3.85,2.91-5.73s2.09-3.73,3.18-5.57c1.93-3.28,3.93-6.52,6-9.73l.94.16L519,706.66s0,0,0,.05a.13.13,0,0,1,0,.06l2,7.93a1.93,1.93,0,0,0,1.87,1.45h.21l21-2.31a1.94,1.94,0,0,0,1.72-1.79l.75-11.2s0-.08,0-.11a2.17,2.17,0,0,0,0-.26l0-.18a.53.53,0,0,0,0-.12l-1-3.42,1.59-.39L562.56,699l-2.66,21,6.15-20.43,30,5.1-.18,3.22c-1.25.4-2.49.84-3.7,1.36a39.55,39.55,0,0,0-8,4.32c2.94-.77,5.74-1.69,8.6-2.43,1-.27,2-.51,2.92-.75L595,723.13l-40.4,2.66-50-6.59L485.14,711c-.41,4.87-.72,10.1-.93,15.39L501,737.67A1.9,1.9,0,0,0,501.81,738Zm31.76-68.65,8.68,30-3.22.75L522.37,704l-6.14-30.72Zm-25.66,69.46,42.84,5.64c-.68,5.47-.8,12.25.65,16.87l-6.73-.42c-1.54-2.75-6.61-9.43-19.88-11.15s-19.57,4.13-21.63,6.73l-3.59-.58C503.12,753.11,507.28,747.94,507.91,738.79Z"/><path d="M512.7,645.42a45.25,45.25,0,0,0,4.85,11.17A44.06,44.06,0,0,1,515.89,645a35.43,35.43,0,0,1,.93-7.77l-5.46-1.28c0,1.09.1,2.19.21,3.28A38.83,38.83,0,0,0,512.7,645.42Z"/><path d="M568.2,649.1l-6.48-1.49-13.3,15.9Z"/><path d="M540.45,642.71l-5.27-1.21-.26,17.18Z"/><path d="M674.73,486c-2,8.48-1.16,46.8,10.19,51.15a14.2,14.2,0,0,0,5.15,1.06,11.94,11.94,0,0,0,1.67-.12c1.12,4.39,3.32,10.19,6.74,18,2.09,4.74,4,8.7,5.71,11.94-3.19,4.53-2.4,10.13-1,15.34,1.34,4.76,7.5,16.07,14.54,25.32l1.31,1.72,1.56-1.49c2.42-2.3,5-4.59,7.61-6.79l1.4-1.17-1.1-1.46a83.23,83.23,0,0,1-11-19.65c.25-.06.5-.12.76-.21a5.25,5.25,0,0,0,3.05-2.92,7.57,7.57,0,0,0,.52-2.51,77,77,0,0,1,9.63,16.51l1.51,3.47,1.92-3.26c1.22-2.08,2.56-4,4-6.06l1.45-2.1.61-.91-.47-1c-3.12-6.65-6.52-12.52-8.68-15-3.63-4.13-6.67-6.05-9.84-6.22a8.66,8.66,0,0,0-3.69.65c-.79-1.91-1.63-3.83-2.45-5.69l-1.05-2.4c-.29-.66-.58-1.35-.87-2l-.52-1.17h0A162.73,162.73,0,0,0,706,533.89c3.89-5.4,5.35-16.79,5.5-27.41-1.41-3.53-2.78-7-4.14-10.49.11,1.6.19,3.3.23,5.05a15.62,15.62,0,0,0-6.5.46,80.26,80.26,0,0,0-2.19-15.35c.89-1.9,1.76-3.92,2.47-5.65q-3.3-8.61-6.36-16.83a78.18,78.18,0,0,0-4,8.11C679.9,471.08,676.52,478.53,674.73,486Zm3.75.91c1.86-7.72,4.6-11,10-11.29-1.67,4.26-4.38,13.26-4.19,26.2a15.53,15.53,0,0,0-6.51,0C677.52,495.45,677.77,489.86,678.48,486.89ZM695,530.18a2.09,2.09,0,0,1,1.26-1.12l.59,0a3.11,3.11,0,0,1,.44.07c.86.43,2.45,1.79,5,6a142.25,142.25,0,0,1,7.52,15.31,13.13,13.13,0,0,0-8.16,3.18C697.89,545,693.41,533.79,695,530.18Zm24.55,74.41c-6.15-8.43-11.48-18.26-12.61-22.31-1.27-4.53-1.49-7.84-.52-10.39,2.44,3.92,4.62,6.31,6.75,7.41a85,85,0,0,0,11.21,21C722.75,601.7,721.14,603.14,719.57,604.59Zm2.19-41.11c2,.1,4.29,1.66,7.14,4.91,1.78,2,4.85,7.31,7.62,13.07-.27.39-.53.78-.8,1.16-.73,1-1.47,2.13-2.2,3.23A70.77,70.77,0,0,0,720.71,567c-.3-1-.65-2-1-3.08A4.94,4.94,0,0,1,721.76,563.48Zm-26.39-38.2h0a6.2,6.2,0,0,0-3.17,2.18c-4.26-14.87-4.48-27.1-3.43-36,1.9,1.26,4.57,2.15,6,1.45a4.19,4.19,0,0,0,1.29-1.39A90.81,90.81,0,0,1,695.37,525.28Z"/><path d="M787,764.18q-1.15-4.83-2.5-9.61c-1.19-4.25-2.53-8.44-3.89-12.63a17.76,17.76,0,0,1,7.78,2.13c-.36-3.68-.82-7.79-1.41-12.31a27.64,27.64,0,0,0-7.58,6.43c-.27-.84-.55-1.69-.82-2.54l-6.08-18.87-.46-1.4a30.18,30.18,0,0,1,13.1,3.62q-1.18-7.44-2.78-15.83a36.13,36.13,0,0,0-12.17,6.59l-3.87-11.82-.38-1.17a25.22,25.22,0,0,1,14.75-1.85q-1.23-5.86-2.69-12.1c-5.38,1.25-11.12,4.71-16,12.47L760.9,695c-1.16-.25-2.32-.44-3.49-.58a36.47,36.47,0,0,0-7.09-.2,31.44,31.44,0,0,0-13.68,4.14,32,32,0,0,0-10.29,9.79,42.23,42.23,0,0,0-2.94,5.07c-1.21.13-2.27.31-3.41.52-1.37.26-2.72.59-4.06,1a49.73,49.73,0,0,0-7.83,2.9,42.83,42.83,0,0,0-13.55,9.95,39.75,39.75,0,0,0-8.22,14.66,49.64,49.64,0,0,0-1.67,7.66c-2.38,1-29.26,13.35-19.23,45.92q2.71,0,5.4,0A40.4,40.4,0,0,1,668.51,779c10.62-7.84,23.56-8.39,23.56-8.39s-10.19,12.62-6.45,24.93l2.88-.07c5.92-9.14,24.2-19.53,32.66-14.08a26.18,26.18,0,0,0-8.24,13.25l2.69-.12c4.2-2.91,12-7.72,19.11-9,5.19,3.16,9.12,5.52,12.1,7.27,3.5-.24,6.53-.46,9-.65-3.56-2-12.79-7.54-24.1-14.47,7.37-4.66,22-10.61,38,1.31,1,1,1.93,2,2.94,2.95.65.64,1.33,1.26,2,1.87a13.48,13.48,0,0,0,2.18,1.71c-1-1.5-1.83-3.16-2.78-4.7s-1.87-3.12-2.81-4.67c-1.93-3.07-3.88-6.13-5.94-9.1-2.35-3.39-4.78-6.73-7.21-10.06,4.85-1.58,17.43-3.78,27.57,10.92.3.58.59,1.16.9,1.74a30.78,30.78,0,0,0,2.62,4.31C788.4,770.69,787.86,767.39,787,764.18Zm-57.86-49.83c19.56-11.18,33.48-1.63,33.48-1.63s-19.28,4.91-25.2,15.91L728.21,716C728.52,715.47,728.83,714.91,729.17,714.35Zm-25.42,13.17c-1.26,1-2.52,2.09-3.76,3.26A35.43,35.43,0,0,1,703.75,727.52ZM690,751.78a47.4,47.4,0,0,1,1.47-6.44c22-13.59,31.35-10.26,31.35-10.26a48.59,48.59,0,0,0-6.85,5.12l-3.63,3.56c-3.95,4.29-7.67,10-8.42,16.67Zm39,24.13c-6.6-4-13.77-8.48-20.86-12.87a56.4,56.4,0,0,1,17.75-8.84l7.87-1.64c4.37-.47,8.35,0,11.24,1.68C738.06,756.79,732,768.74,729,775.91Zm28-20.53c-1.45-2-2.9-4-4.34-6L739.85,731.9l-.67-.92c9.55-3.19,27.73-1.35,33.52,8.28C763.48,742.43,758.77,751.14,757,755.38Z"/><path class="cls-1" d="M745,754.24c-6.9,2.55-12.93,14.5-16,21.67-6.6-4-13.77-8.48-20.86-12.87a56.4,56.4,0,0,1,17.75-8.84l7.87-1.64C738.09,752.09,742.07,752.52,745,754.24Z"/><path class="cls-1" d="M722.77,735.08a48.59,48.59,0,0,0-6.85,5.12l-3.63,3.56c-3.95,4.29-7.67,10-8.42,16.67L690,751.78a47.4,47.4,0,0,1,1.47-6.44C713.46,731.75,722.77,735.08,722.77,735.08Z"/><path d="M650.84,413.05l2.13-2.74-3.45-.37c-.15,0-1.48-.14-3.64-.18a30.9,30.9,0,0,0,11.36-13.53l.85-2.32-2.45-.26a48.55,48.55,0,0,0-16.87,2c.48-1.05.88-2.09,1.25-3.13l1.34-.29c12.85-2.77,32.43-15.54,33.63-34.14l.17-2.57-2.51.56c-.92.2-20.38,4.8-30.53,26a40,40,0,0,0-2.28-16.3l-1.46-3.4-2,3.14c-.39.62-7.39,11.94-10.74,22.46a57.1,57.1,0,0,0-8.52-16.63l-1.77-2.25L614,371.56s-.06.12-.13.25c-.13,11.07.74,25.59,2.29,30.06q1.54,4.5,3,9.29v-29c3.56,7.44,7.21,19.05,4,31.72l-.31,1.22c-.77.28-1.53.57-2.27.88.52,1.83,1,3.68,1.52,5.57,4.47-.92,12.58-2.48,17.88-2.95-4.59,3.79-10.67,7.44-16.78,7.19.32,1.29.63,2.59,1,3.89C638,429.38,650.28,413.77,650.84,413.05ZM644,387.48l.12-.28,26.69-26.55C668.29,373.74,655,383.84,644,387.48ZM630.29,402c1.26-6.85,4.58-20,7.89-26.42A35.55,35.55,0,0,1,630.29,402Zm6.16,8.17a76.87,76.87,0,0,0-8.93,1.49c.07-.38.12-.76.18-1.13l24.57-13.05A30,30,0,0,1,636.45,410.21Z"/><path d="M670,415.37l0-2.64-2.5.84c-21.06,7.05-26.89,20.51-29.84,34.14a6.5,6.5,0,0,0-.69.59,12.89,12.89,0,0,0-3.33-4.29,9.9,9.9,0,0,0-6.82-2.35c.27,1.27.53,2.56.79,3.85a6.13,6.13,0,0,1,3.57,1.47,8.37,8.37,0,0,1,3,5.49c-.68,1.48-1.31,3.17-2,5-.48,1.29-1,2.67-1.57,4.13q1.11,6.39,2.13,12.94a4.91,4.91,0,0,0,.66.06,4.68,4.68,0,0,0,4.46-3.29c6.54-1.71,11.28-1.13,13.35,1.69s1.52,8.18-1.5,12.86c-2.18,3.39-5.08,5.13-8.34,5.08a10.05,10.05,0,0,1-6.62-2.88c.24,1.73.48,3.47.71,5.22a13.4,13.4,0,0,0,5.82,1.52h.28c4.51,0,8.55-2.42,11.4-6.85,3.92-6.1,4.47-13,1.36-17.24a9.59,9.59,0,0,0-3.1-2.7c.07-.12.13-.24.2-.35a25,25,0,0,0,6.87.84c8.44,0,19-2.93,24-7.42l2-1.76L682,458c-5.86-3.45-16.45-5.93-25.36-6.22,1.57-1,3.36-2,5.32-3.17,1.51-.87,3.1-1.78,4.71-2.76,4.66,4.87,14.15,8.92,22.46,8.92a24,24,0,0,0,2.56-.14l-1.37-3.75A30.59,30.59,0,0,1,671,444.62c4.25-.65,11.46-1.46,16.8-.69-.49-1.35-1-2.7-1.45-4a63.86,63.86,0,0,0-11.62.34,45.2,45.2,0,0,0,8.54-9.05l-1.62-4.62c-5.19,8.69-13,13.67-19.7,17.58,6.24-6.37,14.36-14.34,19.16-19.14-.69-2-1.35-3.92-2-5.83A42.62,42.62,0,0,0,668.62,426,39.51,39.51,0,0,0,670,415.37Zm-3.95,2.81h0a46,46,0,0,1-4.2,15.35,52.75,52.75,0,0,0-5.51,9.8,75.36,75.36,0,0,1-5.9,7.67,11.68,11.68,0,0,0-3.92-3.77C651.05,439.17,661.64,424.32,666.08,418.18ZM637.4,467.46a4.68,4.68,0,0,0-4-2.22h-.11c1-2.4,1.82-4.56,2.51-6.43,2.4-6.46,3.39-8.7,6.68-8.81,2-.09,4.29,1.78,5.67,4.72a12.32,12.32,0,0,1-.68,12A24.62,24.62,0,0,0,637.4,467.46Zm15.44-3.41a16.28,16.28,0,0,0,.39-4.78c6.12-.12,18.28.42,24,.71C670.77,463.79,659.05,465.81,652.84,464.05Z"/><path d="M656.47,603a3.27,3.27,0,0,1,.77,3c-1.31,5.58-.29,11.15,2.58,14.21a7.65,7.65,0,0,0,5.67,2.46,8.61,8.61,0,0,0,1.5-.13,7,7,0,0,0,5.09-3.49c2.19-3.84,1.51-10.47-2-19.69-1.18-3.11-1.21-3.17,8.8-8,10.91-5.29,17.06-15.69,16-22.27l.42-.45-.95-1.49c-7.71-18.88-28.11-40.48-55.29-44.69.2,1.77.39,3.54.59,5.31,18.19,3.22,31.61,14.34,40.21,25.19a82.76,82.76,0,0,0-39-13.53c.18,1.74.36,3.48.53,5.22a80.82,80.82,0,0,1,19.86,4.53,20,20,0,0,1,3.08,8.71,9.5,9.5,0,0,0-6-2.16,9.21,9.21,0,0,0-3.33.62,8.64,8.64,0,0,0-6.6-4,10.54,10.54,0,0,0-6.1,1c.53,5.45,1,10.89,1.55,16.29a11.84,11.84,0,0,0,4.55.41,8.69,8.69,0,0,0,1.54-.26,9.55,9.55,0,0,0,8,5,31.56,31.56,0,0,1-13,6.92q.28,3.25.59,6.48c12.27-.71,31.24-4.72,43.31-13.56a25.29,25.29,0,0,1-12.24,12.12c-10.38,5-14.26,6.93-11.36,14.5,2.75,7.17,3.65,13,2.36,15.31a1.9,1.9,0,0,1-1.49,1,2.59,2.59,0,0,1-2.55-.79c-1.65-1.75-2.2-5.74-1.32-9.51a8.37,8.37,0,0,0-1.8-7.42c-3.14-3.86-9.19-5.81-14.42-6.25l.48,5.22C650.72,599.2,654.75,600.86,656.47,603Zm-4.18-34.29a8.79,8.79,0,0,0,4.05-7.54,9.67,9.67,0,0,0-.33-2.5,6.92,6.92,0,0,1,8.39,3.2,19.82,19.82,0,0,1-1,4.63,19.57,19.57,0,0,1-2.8,5.28,6.82,6.82,0,0,1-2.32.41A7,7,0,0,1,652.29,568.68Zm5.65,12.64a26.08,26.08,0,0,0,10.35-13.18,25.53,25.53,0,0,0,.1-16c9.19,4.48,16.22,10.28,20.34,15.86C681.5,574.72,669.22,579.09,657.94,581.32Z"/><path d="M659.08,631.54c1.75-4.08-1.19-9.71-11.54-21.8.21,2.28.43,4.53.64,6.77,4.15,5.12,8.38,11.12,7.35,13.51-.78,1.8-3.53,2.17-5.79,2.09.13,1.3.27,2.59.41,3.87h.08C653.37,636,657.5,635.22,659.08,631.54Z"/><path class="cls-2" d="M273.09,123.77c-8.47-1.29-31-4-31-4a79.51,79.51,0,0,0,27.74,8c-11.1,3-31.44,1.85-47.28-4.83,10.69,12.07,34.9,14.4,44.71,13.75-10.86,7.32-25.25,6.92-25.25,6.92s4.42,3.62,13.83,3.38c-16.08,9.24-30.08,5.06-30.08,5.06s5.55,5.47,11.9,7c-4.26,3.54-12.06,6.19-12.06,6.19a29.32,29.32,0,0,0,8.77-.56c-10.94,9.41-28.07,9.81-28.07,9.81s8,3.38,15,3.38c-4,2.49-18.49,5.14-18.49,5.14s12.46,2.58,21.22,1.21c-6.11,5.71-15.43,9.33-15.43,9.33a84,84,0,0,0,15.43-.81c-9.89,6.68-24,10.06-24,10.06s3.22,1.92,13.27,1.21c-9.81,7.08-28.71,9.24-28.71,9.24s5.39,3,13.75,2.25C193.64,222,178.44,222,178.44,222s6.27,5.87,18.17,4.18c-7,5.47-16.08,6.12-16.08,6.12a29,29,0,0,0,15,5.71,37.32,37.32,0,0,1-21,1.28,66.22,66.22,0,0,0,13.51,8.19c-8.5.9-13.49.49-16.68-.83a35.72,35.72,0,0,1,.47,10.45,37.66,37.66,0,0,1-5.1,15.43,65.35,65.35,0,0,0,.62-15.47,38.3,38.3,0,0,0-3.94-13.94,34.65,34.65,0,0,0-3.87-5.92c-.81-.87-1.5-1.83-2.38-2.63l-2.6-2.44a50.54,50.54,0,0,0-6-4.21l-8.1,12.19c.49.31,1,.62,1.44.95a39.27,39.27,0,0,1,10,9.55l1,1.45.87,1.55a25.3,25.3,0,0,1,1.52,3.2,27.77,27.77,0,0,1,1.71,6.75,33.81,33.81,0,0,1-1.18,13.23,67.89,67.89,0,0,0-2.71-11.86c-5.91,1.19-13,7.1-15.79,12.06a9.62,9.62,0,0,0,1.23,1.24A3.44,3.44,0,0,0,140,279a29.52,29.52,0,0,1,3.55.81,28.41,28.41,0,0,1,6.73,2.93,17.53,17.53,0,0,1,3.14,2.48,11.13,11.13,0,0,1,2.51,3.73,13.11,13.11,0,0,1,.57,2.05c.1.49.22.95.34,1.41a12.36,12.36,0,0,0,.9,2.42,5.92,5.92,0,0,0,3.23,2.93,9,9,0,0,0,1.24.44l.66.19c.19,0,.37.09.56.12a4.82,4.82,0,0,0,2.08-.07,3.55,3.55,0,0,0,1.62-.93,2,2,0,0,0,.54-1c0-.08.08-.12-.19-.36a7.67,7.67,0,0,1-1.47-1.58,12.47,12.47,0,0,1-1.65-3.36,18.15,18.15,0,0,1-.81-6.94,14.58,14.58,0,0,1,2-6.41A17.35,17.35,0,0,0,167.22,290a10.81,10.81,0,0,0,1.63,2.28,4,4,0,0,0,.87.68,4.52,4.52,0,0,1,1.85,2.11,4.89,4.89,0,0,1,.27,2.85,6.41,6.41,0,0,1-1,2.32,8.06,8.06,0,0,1-3.58,2.88,10,10,0,0,1-4.35.69,9.7,9.7,0,0,1-1.07-.11l-.93-.18A13.42,13.42,0,0,1,159,303a12,12,0,0,1-3.74-1.94,11.68,11.68,0,0,1-2.84-3.3,16.23,16.23,0,0,1-1.56-3.61c-.37-1.12-.67-2.6-.82-2.84a7.89,7.89,0,0,0-3.18-3.15,22.86,22.86,0,0,0-5.19-2.31,24.66,24.66,0,0,0-2.8-.74,9,9,0,0,1-4.3-2.33,17.38,17.38,0,0,1-4.31-6.48,17.86,17.86,0,0,1-1.25-7.5,15.53,15.53,0,0,1,2.26-7.2,18.3,18.3,0,0,1,4.89-5.31,22,22,0,0,1,8.84-3.63,56.13,56.13,0,0,0-7.14-5.54c-.47-.31-1-.61-1.44-.91l-16.93,25.48c1.13,2.19,2.35,4.4,3.64,6.61,1.89,3.2,3.88,6.43,5.93,9.67s4.13,6.53,6.17,10a55.68,55.68,0,0,1-9.82-6.78,70.64,70.64,0,0,1-8.51-8.44c-.89-1.06-1.73-2.17-2.56-3.3l-.79,1.2c6,9.86,16.72,23.07,21.64,28.81l8.1,6.82c9.09,7.87,22.61,15.42,29.77,13.91a5,5,0,0,0,2.48-1.24,113.18,113.18,0,0,1-3-14.72l-1.15.49a12.24,12.24,0,0,1-1.57.57,15.28,15.28,0,0,1-1.64.45,15.77,15.77,0,0,1-6.87,0,16.13,16.13,0,0,1-6.24-2.87,17.62,17.62,0,0,1-4.46-4.86c2,.92,3.87,1.86,5.75,2.57A23.48,23.48,0,0,0,162,312a35.09,35.09,0,0,0,5.72.09c.49,0,1-.06,1.48-.09s1-.06,1.51-.12,1-.08,1.53-.17h.06c-.3-3.32-.17-5.61.62-5.61,6.71,0,18.61,58,18.61,58s-5.12-10.6-9.36-19.53a11.3,11.3,0,0,1-9.3,4.42c-7.89.13-14.78-5.53-20.74-12.49.46,3.26,1,7,1.48,10.94l.84,2.42q4.6,12.87,10.05,25.42c1.81,4.18,3.65,8.35,5.62,12.45s4,8.17,6.19,12.09c.55,1,1.09,2,1.7,2.89l.88,1.41a13,13,0,0,0,1.2,1.28c.87.83,1.6,1.76,2.39,2.66s1.46,1.89,2.14,2.88a35.09,35.09,0,0,1,3.43,6.37,25.75,25.75,0,0,1,1.17,3.54c.14.61.28,1.23.37,1.89,0,.32.08.65.11,1l.05,1.2-6.41.58c-.05,0-.14-.31-.23-.5l-.25-.67c-.18-.46-.34-.94-.54-1.41l-1.09-2.93c-.78-2-1.51-4-2.33-6.05-.38-1-.78-2.08-1.19-3.12s-.79-2.11-1.16-3.19A13.19,13.19,0,0,0,176,406l-.89-1.52c-.62-1-1.14-2.05-1.68-3.08-2.14-4.11-4-8.29-5.86-12.5s-3.56-8.46-5.23-12.72c-2.81-7.28-5.44-14.63-7.82-22.05,1.64,13.76,3.13,29.49,3.12,41.48,0,18.15-3.48,28.92-5.86,34.18l80.9,20.95c-.55-.8-1.1-1.61-1.64-2.43-2.34-3.66-4.59-7.39-6.59-11.25-1-1.92-2.05-3.84-3-5.81s-1.9-3.92-2.8-5.91a128.09,128.09,0,0,1-4.87-12.2c3,3.22,5.83,6.55,8.59,9.89,1.38,1.67,2.74,3.36,4.08,5.05s2.67,3.39,4,5.09c2.67,3.38,5.21,6.84,7.7,10.31s4.75,6.83,6.83,10.44l39,10.1,7.11-17c-27.39-10-59.84-32.86-75.94-53.48-12.49-4.14-17.19-14.34-19.86-20.71a40.19,40.19,0,0,1-2.26-6,55.13,55.13,0,0,0,10.83,11.13c4,3,8.52,4.72,13.55,6.7s9.77,4.11,14.59,6.29,9.61,4.45,14.47,6.56c9.68,4.26,19.49,8.24,29.34,12l7.4,2.75,7.44,2.57c2.49.75,5,1.64,7.47,2.26,1.24.31,2.49.71,3.72,1l3.37.68.43.08c.3.06,30.6,5.87,42.32,3.85,8.62-1.48,15.2-9.81,19.54-24.75l.25-.85c3.25-11.19,5.4-18.57,15.28-43.81,9.81-25,16.33-64.91,15.24-76.69-.45-4.8-2.3-9.71-4.09-14.47-2.33-6.18-4.53-12-3.24-17.09-.56.16-1.2.33-1.88.49h.29a29.68,29.68,0,0,1-7.93,2.18,40.85,40.85,0,0,1-8.36.3,33.84,33.84,0,0,1-8.41-1.64c-.52-.19-1-.39-1.54-.61l0,0c1.21,2.47,2.47,4.91,3.76,7.35,2.59,4.88,5.28,9.71,8,14.51s5.53,9.59,8.35,14.36l4.25,7.15,1.06,1.81.27.46a5.73,5.73,0,0,1,.3.55,5.62,5.62,0,0,1,.5,1.46,9.75,9.75,0,0,1-.49,5.11,21.53,21.53,0,0,1-4.88,7.67,36.31,36.31,0,0,1-6.81,5.54,52.2,52.2,0,0,1-7.68,4,49.23,49.23,0,0,1-7.51,2.47,4.39,4.39,0,0,0,.32,1.3c.19.51.49,1,.7,1.49s.36,1.11.7,2a2.72,2.72,0,0,1-2.51-.29,5.28,5.28,0,0,1-1.61-1.75,7,7,0,0,1-1-2.34,4.13,4.13,0,0,1,0-1.66,3,3,0,0,1,.45-1.08,3,3,0,0,1,1-.91l.1,0,.27-.09c2.57-.83,5.13-1.63,7.6-2.67a46,46,0,0,0,7.09-3.65,32.35,32.35,0,0,0,6.06-4.95,17.69,17.69,0,0,0,4-6.24,6.27,6.27,0,0,0,.36-3.07,1.82,1.82,0,0,0-.17-.5s-.12-.22-.2-.36l-.26-.44-1-1.77L379.84,284q-4.26-7.17-8.41-14.4c-2.76-4.83-5.48-9.68-8.11-14.61-1.3-2.46-2.59-4.94-3.83-7.46-.6-1.27-1.24-2.51-1.8-3.81l-.87-1.94a9.29,9.29,0,0,1-.73-2.48,9.58,9.58,0,0,1,0-2.62,9.19,9.19,0,0,1,.25-1.29c.11-.41.28-.89.39-1.18.5-1.31,1-2.62,1.56-3.92,1.08-2.61,2.23-5.18,3.5-7.71a73.75,73.75,0,0,1,9.17-14.41l.5-.59.79-.12a90,90,0,0,0,8.89-1.59c2.94-.67,5.86-1.46,8.74-2.39s5.74-1.93,8.55-3.06c1.92-.77,3.85-1.61,5.73-2.48-1-3.87-3.52-8.05-5.43-11.17-1.7-2.77-2.83-4.61-3-6.27-.27-2.22-5.32-27.64-8.61-40.45-1.86-7.26-6.66-22.65-17.6-42.34-1.16,3.46-2.8,8.46-3.89,12.35-3.29-4.27-7.15-15.76-7.15-15.76s0,13-1.05,19.62c-4.29-7.27-11.42-12.15-17.69-23,2.41,7.07,4.58,20.42,4.58,20.42L335,97.87l-2.09,15.6-8.37-4.82c-6.51,1.13-19.14-2.57-19.14-2.57a40.71,40.71,0,0,1,7.08,8.84c-4.26-2-12.38-3.21-18.17-1.61s-13.59.49-13.59.49,2.09,3.21,1.77,6,6.13,4.34,6.13,4.34A60.91,60.91,0,0,1,273.09,123.77Zm-86.53,155c2.9-2.74,20.91,20.74,36.67,42.13C199.43,306.79,183.67,281.54,186.56,278.81Zm187-27.06c.81-1.05,5.55,1.89,9.21,4.74C377.93,255.73,372.47,253.17,373.56,251.75ZM251.86,245c.88-.8,6.59,1.77,16.8,6.92C256.76,250.82,250.44,246.32,251.86,245Zm32.36,4.91a35,35,0,0,1-4-.13c-.66-.05-1.32-.07-2-.15l-2-.25a36.93,36.93,0,0,1-14.91-5.56,34.06,34.06,0,0,1-2.77-2c-2.93-.6-5-1.44-5.59-2.9a9.65,9.65,0,0,1-6.63-2.33,7.24,7.24,0,0,0,3-1.53,10.33,10.33,0,0,1-8.81-3.26q1.1.09,2.19.12c6.54-.31,9.3-1.74,15-5.5,6.11-4,20.88-10.78,27-12.47s23.74,5.39,34.76,14.4c-13-4.35-28.63-10.57-31-10.59-1.59,0-5.59,1.84-8.16,3.13,1.3-.05,2.59,0,3.86,0l2.88.27,2.89.38,2.87.56c1,.23,1.92.46,2.87.72A36.81,36.81,0,0,1,306.5,228a50.74,50.74,0,0,1,8.68,7.74c1.32,1.38,2.54,2.85,3.79,4.25l1,1,.49.52a1.26,1.26,0,0,0,.33.22,3.65,3.65,0,0,1,2,1.95,2.37,2.37,0,0,1-3.32.12,6.38,6.38,0,0,1-.74-.66l-.47-.53-.4-.49-11.24,2.47a45.25,45.25,0,0,1-14.49,4.72,32.09,32.09,0,0,1-3.91.47C286.85,249.88,285.54,249.91,284.22,249.94Zm49.34-8.77c3.35.13-4.08,10.72-15.66,18.44C327.13,249.21,331.39,241.09,333.56,241.17Zm-43.75,72.94a3.57,3.57,0,1,1,3.57,3.56A3.57,3.57,0,0,1,289.81,314.11ZM360,333.94l4.14-2.77,2.66-1.82.67-.45.34-.24a4,4,0,0,1,.57-.32,4.59,4.59,0,0,1,2.58-.44,4.84,4.84,0,0,1,1.29.35c.4.19.56.28.84.42.52.28,1,.57,1.51.87a25.24,25.24,0,0,1,2.83,2A19.43,19.43,0,0,1,382,337a16.26,16.26,0,0,1,2.06,6.91,17.7,17.7,0,0,1-.12,3.57l-.06.44,0,.21a1.89,1.89,0,0,1-.06.32,3.17,3.17,0,0,1-.89,1.62,4.18,4.18,0,0,1-2.42,1.09,40.16,40.16,0,0,1-2.21,5.74c-.47,1.21-8.15,20.4-21.26,21.86-12.59,1.41-28.51-7.85-37.19-13.33a29.09,29.09,0,0,1-5-3.12l.09,0c-3.55-2.25-6.65-5.07-10.45-11.13-.58-.05-1.18-.1-1.78-.13a13.27,13.27,0,0,1-4.17-.73,10.18,10.18,0,0,1-3.49-2.52,13,13,0,0,1-3.36-7.34,35.62,35.62,0,0,0,5.57,4.77,9.2,9.2,0,0,0,1.55.88,16.37,16.37,0,0,0,2.37.23,4.41,4.41,0,0,0,1.53-.16.11.11,0,0,0,.06,0h0l.12-.08.49-.29c.32-.2.65-.4,1-.57a81,81,0,0,1,7.75-3.74c5.23-2.24,10.55-4.19,15.91-6s10.77-3.48,16.28-4.92c1.38-.36,2.76-.7,4.19-1,.73-.14,1.43-.29,2.26-.38a6.15,6.15,0,0,1,.68-.05h.39a3.8,3.8,0,0,1,.5.06,5.53,5.53,0,0,1,1.45.45,21.63,21.63,0,0,1,3.94,2.49C358.54,332.7,359.28,333.31,360,333.94Zm7.47-26.43c-.12,2.5-8.36,6.28-15.52,1.13L343.72,314c1.79.64,3.62,1.26,5.49,1.88a32.86,32.86,0,0,1-11.45-1,26.38,26.38,0,0,1-5.55-2.09,14.6,14.6,0,0,1-2.66-1.79,8.85,8.85,0,0,1-1.23-1.28,7,7,0,0,1-.94-1.71,7.26,7.26,0,0,1-.32-3.74,11.87,11.87,0,0,1,1.13-3.14,30.44,30.44,0,0,1,3.35-4.86,64.52,64.52,0,0,1,8-8.09c-1.67,3.45-3.66,6.65-5.55,9.83a47.08,47.08,0,0,0-2.52,4.7,8.74,8.74,0,0,0-.67,2.17,3.42,3.42,0,0,0,.18,1.78,3.85,3.85,0,0,0,.39.76,5.29,5.29,0,0,0,.7.74,13.13,13.13,0,0,0,1.93,1.45,38.06,38.06,0,0,0,4.73,2.4l.86.35c1.54-1.12,4.2-3,7.3-4.91,0,0,.24-3.94,10.13-3.94C364,303.57,367.57,305.9,367.49,307.51Zm-5.68-14.66a5.86,5.86,0,0,1-5.68,2.52c-3.81-.54-6.13-4-4.13-5C352.86,289.9,361.81,292.85,361.81,292.85ZM353.29,195C351,206.54,348,213,334.37,217.8,341.6,211.36,352.11,198.93,353.29,195Zm-34.74,10a36.93,36.93,0,0,0,20.15,2.57c-1.34,1.18-11,9.95-21.76,9-3.23-.28-38.81-13.83-46.1-15.22s-17.21,2.89-37.64,10.45A118.45,118.45,0,0,1,255.12,198c13.76-6.86,23.11-6.48,23.11-6.48s-3.05,1.23-3.64,2.09C280.06,193.89,313.51,202.79,318.55,204.93Z"/><path class="cls-4" d="M362.22,317.88c0-.09.07-.15,0-.16S362.23,317.77,362.22,317.88Z"/><path class="cls-2" d="M380.12,223.15c5.77-1.43,13.94,1.79,18.23,3.8a99.09,99.09,0,0,0,5.53-16.45c.18-1.31.23-3.13-.44-3.34-2.49-.73-9.57,3.86-19.86,7.56-8.43,3-11.57,3.73-14.34,2.74-.74,1.18-1.45,2.4-2.13,3.63.51-.12,1-.23,1.52-.32a55.66,55.66,0,0,1,7-.84,122.89,122.89,0,0,1,13.71,0A124,124,0,0,0,376,222.47a52.13,52.13,0,0,0-6.31,2,40.81,40.81,0,0,0-5.71,2.8c-.69,1.49-1.36,3-2,4.51-.27.64-.52,1.29-.77,1.94C366.42,228.84,374.73,224.49,380.12,223.15Z"/><path class="cls-2" d="M391.38,243.48q1.85-4.46,3.61-8.56c-4.08-2.6-8.77-6.92-15-7.26a6.66,6.66,0,0,0-2.24.44c2.22,3.89,1.58,11.27-2.56,15.72a52.65,52.65,0,0,0,6.2,1.2,48.38,48.38,0,0,0,7.66.44c.68-.16,1.32-.33,1.88-.49A11.24,11.24,0,0,1,391.38,243.48Z"/><path class="cls-1" d="M351.45,368a47.15,47.15,0,0,0,8.89-.77,16.93,16.93,0,0,0,3.86-1.45,18.45,18.45,0,0,0,3.51-2.33,27.14,27.14,0,0,0,5.66-6.52,40.08,40.08,0,0,0,3.06-6.11,15,15,0,0,1-3.07-1.05,11.92,11.92,0,0,1-4.12-3.12c-.44.51-.9,1-1.4,1.49a13.85,13.85,0,0,1-4.73,3,11.22,11.22,0,0,1-1.49.43,11.1,11.1,0,0,1-1.53.18,13.93,13.93,0,0,1-2.82-.07,25.1,25.1,0,0,1-9.78-3.57l-.84.1-1.92.2-3.79.34-7.58.63-15.13,1.18-7.58.54c-1.26.08-2.54.15-3.87.16-.74,0-1.49,0-2.24-.1,3.8,6.06,6.9,8.88,10.45,11.13a73.51,73.51,0,0,0,18,4.42A127.3,127.3,0,0,0,351.45,368Z"/><path class="cls-5" d="M380.32,347.43s.05,0,0,0Z"/><path class="cls-5" d="M379.89,347.58a1.46,1.46,0,0,0,.31-.09l.05-.45a18.22,18.22,0,0,0,0-2.86,13.51,13.51,0,0,0-1.6-5.34,16.09,16.09,0,0,0-3.62-4.43,19.66,19.66,0,0,0-2.37-1.76c-.42-.26-.84-.51-1.28-.74l-.59-.31a1.11,1.11,0,0,0-.26-.07,1,1,0,0,0-.55.09l-.13.07-.32.22-.67.45-2.66,1.81-5.28,3.69-1.18.83-1.14-1c-1-.87-2.08-1.75-3.15-2.55a18.32,18.32,0,0,0-3.19-2,4,4,0,0,0-.55-.19h-.16a2.77,2.77,0,0,0-.37,0c-.57,0-1.25.18-1.91.3-1.33.25-2.68.56-4,.88-5.4,1.32-10.78,2.89-16.12,4.55s-10.64,3.48-15.8,5.56a76.78,76.78,0,0,0-7.52,3.45c-.31.16-.59.32-.87.49l-.41.24a32.93,32.93,0,0,0,6,0l7.54-.55c5-.38,10.05-.88,15.07-1.39q3.77-.37,7.52-.84l2.77-.36a32.93,32.93,0,0,1-3.71-3.49,77,77,0,0,1,9.5,2.6,53.94,53.94,0,0,0,8.71,2.23,14.21,14.21,0,0,0,2,.15,5,5,0,0,0,.89,0,7.2,7.2,0,0,0,.88-.13,14.49,14.49,0,0,0,3.78-1.6,72.72,72.72,0,0,0,7.81-5.52,20.79,20.79,0,0,1-3.3,6.26c1.52.46,3,.83,4.41,1.2,1,.23,1.94.47,2.89.61A8.23,8.23,0,0,0,379.89,347.58Z"/><path class="cls-2" d="M313.29,237.64c-1.38-1.23-2.82-2.35-4.28-3.42a39.61,39.61,0,0,0-4.6-2.78c-5.5-2.83-11.57-4-17.84-4.7,1.86,5.48-.26,14.51-7.83,17.54l.17,0c.6.1,1.2.14,1.81.21,1.21.15,2.42.26,3.64.33s2.45.22,3.68.22,2.46.09,3.7.08c5,0,10-.3,15.12-.76l-.3.16,11.24-2.47-.5-.59C316,240.13,314.65,238.88,313.29,237.64Z"/><path class="cls-1" d="M462.45,797.63c6.12-2.9,6.79-9.13,7.83-26.71.51-8.51,1.13-19.1,2.91-32.25,5.54-41.12,16.36-89.16,27.57-122.38a1.14,1.14,0,0,0-.1-1,1.11,1.11,0,0,0-.8-.52h0c-8-1.11-19.32-4.3-31.47-9.28-6.65-.58-13.24-.47-18.44,2.21a19.42,19.42,0,0,0-6.74,5.67c-.44.62-.83,1.29-1.26,1.93a11.88,11.88,0,0,0-1.14,2c-.34.72-.74,1.39-1,2.14l-.84,2.27a60.3,60.3,0,0,0-2.42,9.63l-1.8,10.45q-1.9,10.5-4.36,20.89a268.62,268.62,0,0,1-12.94,40.71,148,148,0,0,1-9.69,19.08c-3.84,6-8.09,11.82-13.37,16.57,9.12-10.89,14.58-24,19.21-37.12,2.15-6.66,4.23-13.33,5.89-20.13.89-3.38,1.66-6.8,2.47-10.2s1.5-6.84,2.14-10.29c1.42-6.85,2.6-13.76,3.69-20.69l1.61-10.44.49-2.74a21.72,21.72,0,0,1,.57-2.73l.73-2.72.37-1.36.5-1.35,1-2.69c.36-.89.84-1.75,1.26-2.63a33.58,33.58,0,0,1,3.1-5,26.53,26.53,0,0,1,9.41-7.71,28.33,28.33,0,0,1,7.31-2.3c-12.51-6.39-24.86-14.5-34.48-24.09-10,2.33-15.34,15.79-15.4,15.93l-.06.15c-18.88,42.22-46,151.9-46.29,185.81,12.55,2.41,31.72,5.39,46,7.53-3.29-1.86-6.55-3.79-9.83-5.68L380.8,771c-4.42-2.52-8.82-5.05-13.47-7.22A98.89,98.89,0,0,1,382.17,768c4.84,1.74,9.61,3.63,14.33,5.63s9.4,4.06,14,6.34a138.43,138.43,0,0,1,13.4,7.47h0C435.15,793.54,454.71,801.29,462.45,797.63Z"/><path class="cls-1" d="M125.34,469.55s-4.29,0-5.79-.75c-1.35-.68-12.83-8-24.6-11.54l7.35,19.52a3.13,3.13,0,0,1,.16,1.66l-1.27,7.66,15.11-.68h0c6.53-.61,13-.17,19.51.2s12.94.91,19.39,1.53c12.88,1.3,25.73,3,38.42,5.4-6.44-.52-12.88-.81-19.32-1l-2.38-.07c-21.82,1.2-41.18,12.63-47.14,13.48a13.4,13.4,0,0,1,.69,5.73c13-1.77,29-2,43.67-2.25,7.71-.12,15-.24,20.75-.58,21.11-1.27,53,2.25,67.31,6.22,11.43,3.17,38.43,7,48.65,8.35a79.47,79.47,0,0,0-2.84-14H290l.43-11.9a68.81,68.81,0,0,1,23.88-18L138.9,433.08c-13.92-.55-40.4,6.27-49.73,8.81l2.73,7.27c8.92.72,22.65,3.92,27.44,7.2C124.8,460.11,125.34,469.55,125.34,469.55Z"/><path class="cls-2" d="M425.91,903.56c2.68-4.07,10.76-17.8,12.85-38.29-.24-10.09-13.37-31.12-46.77-48.33-34.52-17.8-55.54-17.37-66.9-12.44s-18.44,18-57.47,47.17c25.95-28.52,57.9-59.61,51-64.76S265.26,818,255,820.58,128,818.44,95.85,801.71c0,0-.21-5.15,1.61-5.9s9,3.43,42.46-4.61,103.25-28.3,103.25-28.3l-13.51-14c-22.83,5.14-58.7,1.6-58.7,1.6s31-9.48,52.75-13,42.62-7.4,42.62-7.4-3.7,9.49-17.37,15.6l56,10.77-42.78-41.17s25.41,9.33,40.53,23.64,23.16,23.16,39.72,25.58c2.74-17.2,18.68-63.37,22-72.81-4.57-10.64-13.42-28.32-22.78-30.77-13.51-3.54-88.78,18-140.89,27.67,0,0,134.67-42.36,150.54-41.18,7.64.57,17.88,9.8,22.63,14.49,6.68-24.35,13.92-47.32,20.32-63.78-5.48-3.29-18.37-10.27-31.69-12-21.23-2.74-30.24-10.94-76.23-8.53,27-4.5,40.15-3.48,56.82-1.07,8.32,1.21,15.88-.46,27.35-.31-4.61-3.17-9.05-6.6-13.73-10-30-5.72-80.82-10.28-98.32-7.71-16.8,2.47-21.45,6.43-42,24.23,0,0,18.65-36.24,56-34.31,20.31,1,50.31,5.17,69.25,8a96.45,96.45,0,0,0-23.79-9.28c-27-6.64-55.11-22.51-63.05-23.58s-74,16.08-78.91,18.65c-3.41,1.78-21.89,63.88-11.69,116,23.63.47,52.69-2.64,80.95-8.19,36-7.08,102-29.92,102-29.92S309.76,651,249.28,661.25c-40,6.81-66.77,5.92-83.94,2.43A102.4,102.4,0,0,0,176,691.2c9.31,2.22,17,3.94,17,3.94s-5,1.15-14,.81a70.75,70.75,0,0,0,17.32,17.95c20.19,1,45,1.61,45,1.61-29.16,7.29-74,6.8-86.31,6.11-15.33-.86-25.41-7.4-23.26-11s33.9,1.5,54.69,2.78l4.52.26c-6.23-2.9-13.67-9-20.19-18.34a131,131,0,0,1-25.41-5.83c-29.8-9.86-35.27-26.27-35.27-26.27,6.86,6.44,26.16,17.16,39.24,21.13,4.44,1.34,10.9,3,17.5,4.65a92.37,92.37,0,0,1-9.84-27.4A52.84,52.84,0,0,1,146,657q4.86.6,10.22.91c-.54-3.35-1-6.83-1.21-10.48-3.22-46.62,5.59-92.23,17.42-114.16,26.09-7.66,51.13-13.68,63.81-16.6-14.12-1.93-31.79-3.23-46-2.39-5.9.35-13.25.47-21,.59-20.19.31-45.26.7-57.54,5.61-16.28,10.91-58.2,40.07-65.47,49.91a160.53,160.53,0,0,0,.65,27.12c4.78-5.43,11.7-11.06,24.19-19.7,13-21.71,24-36.66,40.85-48.08-14.16,15.11-47.13,78.64-53.4,88.61s-13.77,14.13-20.19,44.53C36.05,676.2,34,690.2,32,704c-3.44,23.71-7,48.24-11.84,69-3.4,14.53-7.29,20.63-13.45,26.2,2.77,12.23,11.85,16.4,12,16.45a1.57,1.57,0,0,1,.25.14v0a153.51,153.51,0,0,0,23.61,9.8,241.61,241.61,0,0,0,24.92,6.62c4.22.91,8.47,1.69,12.74,2.45s8.53,1.49,12.83,2.16c2.16.36,4.26.62,6.35.87s4.26.4,6.39.62q6.44.53,13,.8c17.36.75,34.83,1,52.3,1.45s35,.92,52.42,2.81c-8.75.08-17.47.38-26.2.77l-26.2,1c-6.18.18-12.35.39-18.54.53l.18.07c-14.8.43-46.53,3.86-79.77-1.07s-53-9.22-53-9.22,6.26,44.39-.46,68.18ZM138.21,656.64c-13.84,1.29-20.59-2.4-23.48-9.24s-3.11-12.63-3.65-20.67C113,633.7,127.27,650.43,138.21,656.64Z"/><path class="cls-2" d="M270,789.76c-7.24-.49-30.88-15.93-30.88-15.93s-76.87,24.61-101.64,30.4C146.84,807.13,239.8,816,253,812S295.44,787,295.44,787c.16-2.89-2.73-5.47-2.73-5.47S277.27,790.24,270,789.76Z"/><path d="M138.21,656.64c-10.94-6.21-25.2-22.94-27.13-29.91.54,8,.75,13.83,3.65,20.67S124.37,657.93,138.21,656.64Z"/><path d="M278.23,191.48s-9.35-.38-23.11,6.48a118.45,118.45,0,0,0-21.92,13.78c20.43-7.56,30.34-11.85,37.64-10.45s42.87,14.94,46.1,15.22c10.75.94,20.42-7.83,21.76-9a36.93,36.93,0,0,1-20.15-2.57c-5-2.14-38.49-11-44-11.36C275.18,192.71,278.23,191.48,278.23,191.48Z"/><path d="M333.56,241.17c-2.17-.08-6.43,8-15.66,18.44C329.48,251.89,336.91,241.3,333.56,241.17Z"/><path d="M334.37,217.8C348,213,351,206.54,353.29,195,352.11,198.93,341.6,211.36,334.37,217.8Z"/><path d="M296.94,314.11a3.57,3.57,0,1,0-3.56,3.56A3.56,3.56,0,0,0,296.94,314.11Z"/><path d="M346.91,307.51c-3.1,1.92-5.76,3.79-7.3,4.91l-.86-.35a38.06,38.06,0,0,1-4.73-2.4,13.13,13.13,0,0,1-1.93-1.45,5.29,5.29,0,0,1-.7-.74,3.85,3.85,0,0,1-.39-.76,3.42,3.42,0,0,1-.18-1.78,8.74,8.74,0,0,1,.67-2.17,47.08,47.08,0,0,1,2.52-4.7c1.89-3.18,3.88-6.38,5.55-9.83a64.52,64.52,0,0,0-8,8.09,30.44,30.44,0,0,0-3.35,4.86,11.87,11.87,0,0,0-1.13,3.14,7.26,7.26,0,0,0,.32,3.74,7,7,0,0,0,.94,1.71,8.85,8.85,0,0,0,1.23,1.28,14.6,14.6,0,0,0,2.66,1.79,26.38,26.38,0,0,0,5.55,2.09,32.86,32.86,0,0,0,11.45,1c-1.87-.62-3.7-1.24-5.49-1.88l8.25-5.38c7.16,5.15,15.4,1.37,15.52-1.13.08-1.61-3.54-3.94-10.45-3.94C347.15,303.57,346.91,307.51,346.91,307.51Z"/><path d="M352,290.33c-2,1,.32,4.5,4.13,5a5.86,5.86,0,0,0,5.68-2.52S352.86,289.9,352,290.33Z"/><path d="M306.56,244.55l.3-.16c-5.16.46-10.16.76-15.12.76-1.24,0-2.47-.06-3.7-.08s-2.46-.11-3.68-.22-2.43-.18-3.64-.33c-.61-.07-1.21-.11-1.81-.21l-.17,0c7.57-3,9.69-12.06,7.83-17.54,6.27.74,12.34,1.87,17.84,4.7a39.61,39.61,0,0,1,4.6,2.78c1.46,1.07,2.9,2.19,4.28,3.42s2.73,2.49,4,3.85l.5.59.4.49.47.53a6.38,6.38,0,0,0,.74.66,2.37,2.37,0,0,0,3.32-.12,3.65,3.65,0,0,0-2-1.95,1.26,1.26,0,0,1-.33-.22L320,241l-1-1c-1.25-1.4-2.47-2.87-3.79-4.25A50.74,50.74,0,0,0,306.5,228a36.81,36.81,0,0,0-10.76-5.06c-.95-.26-1.91-.49-2.87-.72l-2.87-.56-2.89-.38-2.88-.27c-1.27-.07-2.56-.09-3.86,0,2.57-1.29,6.57-3.15,8.16-3.13,2.41,0,18,6.24,31,10.59-11-9-28.63-16.09-34.76-14.4s-20.89,8.45-27,12.47c-5.72,3.76-8.48,5.19-15,5.5q-1.09,0-2.19-.12a10.33,10.33,0,0,0,8.81,3.26,7.24,7.24,0,0,1-3,1.53A9.65,9.65,0,0,0,253,239c.56,1.46,2.66,2.3,5.59,2.9a34.06,34.06,0,0,0,2.77,2,36.93,36.93,0,0,0,14.91,5.56l2,.25c.66.08,1.32.1,2,.15a35,35,0,0,0,4,.13c1.32,0,2.63-.06,3.94-.2a32.09,32.09,0,0,0,3.91-.47A45.25,45.25,0,0,0,306.56,244.55Z"/><path d="M251.86,245c-1.42,1.29,4.9,5.79,16.8,6.92C258.45,246.8,252.74,244.23,251.86,245Z"/><path d="M373.56,251.75c-1.09,1.42,4.37,4,9.21,4.74C379.11,253.64,374.37,250.7,373.56,251.75Z"/><path d="M186.56,278.81c-2.89,2.73,12.87,28,36.67,42.13C207.47,299.55,189.46,276.07,186.56,278.81Z"/><path class="cls-2" d="M387.92,70.48s1.39-20.59-2.25-28.63-8-10.72-9.76-9.43c-2.79,2.09,2.57,4.29,4.07,12.43S387.92,70.48,387.92,70.48Z"/><path class="cls-2" d="M345.7,35.63c6.27,8.69,9.49,12.63,12.47,14.16s5.06,6,5.06,6-.4-8.53-1.77-13.19c3.46,4.74,14.24,11.77,14.24,11.77-3.11-11.69-7.51-23.38-17.48-30s-19.3-8-21.87-5.15c-2.55-.32-5-.4-5,1S339.43,27,345.7,35.63Z"/><path class="cls-2" d="M332.51,36.36c4.18,5.79,15.76,20.9,15.76,20.9s-5.46-19-12.62-26-12.55-9.89-21-9.57C320.85,23.41,328.33,30.57,332.51,36.36Z"/><path class="cls-2" d="M332.92,57.26s-2-14-8.12-19.28c-3.12-2.71-8.5-8.57-22.76-6.85C308.68,33.17,321.87,45,332.92,57.26Z"/><path class="cls-2" d="M310.08,61.77c-2.17-14.72-9.26-21.71-11.75-24.13s-10.61-6.51-11.65-5.46C285,33.83,303.48,51.8,310.08,61.77Z"/><path class="cls-2" d="M286.57,53.76c6.14,8.46,11.76,14.79,11.76,14.79S285.1,36.71,273.84,37.89C271.37,39.92,280.44,45.29,286.57,53.76Z"/><path class="cls-2" d="M269,58.41c4.18,4.53,17.29,10.14,17.29,10.14s-4.91-10.4-9.17-13.3-11.82-7.88-20.51-6.83C256.6,48.42,264.8,53.89,269,58.41Z"/><path class="cls-2" d="M260.46,65.63c3.62,5.87,14.4,13.51,14.4,13.51s-3.38-10-5.95-13.19-10.86-11.9-16.73-11.1C248.68,55.33,256.84,59.76,260.46,65.63Z"/><path class="cls-2" d="M127.94,46c10.94,1.88,22.92,7.62,22.92,7.62A26,26,0,0,0,132,39.33c-14.07-2.57-22.43,0-33.93,6.27C105.58,43.59,117,44.08,127.94,46Z"/><path class="cls-2" d="M127.22,53c-20-8.15-31.37-4.56-45.12.59C82.1,53.57,117.16,52.84,127.22,53Z"/><path class="cls-1" d="M205.44,39.83q14.92-5.86,29.95-11.4c-17.71-3.62-39.27-7.56-46.15-7.56a8.22,8.22,0,0,0-1.47.1c-5.91,1.05-17.61,20.23-17,33.21Q188,46.65,205.44,39.83Z"/><path class="cls-1" d="M113.56,258.43c4.47-5.85,10.17-13.09,16.76-21.48,24.53-31.21,61.6-78.38,82.41-114.16l1.6-2.71-1.81,1.75c-10,9.58-19.61,19.56-30.31,28.83-1.4,1.12-2.7,2.3-4.17,3.37l-4.18,3.14c-1.36,1-2.64,2.11-4,3.16s-2.61,2.2-3.89,3.34c-5.13,4.53-10,9.39-14.74,14.4s-9.23,10.25-13.44,15.72a111.41,111.41,0,0,0-11.34,17.36,98.94,98.94,0,0,1,9.46-18.67,182,182,0,0,1,12.31-17,198.81,198.81,0,0,1,14.11-15.66c1.25-1.24,2.54-2.46,3.83-3.67s2.63-2.39,4-3.51l4-3.31c1.3-1,2.52-2.25,3.79-3.36,5-4.63,9.83-9.57,14.67-14.53s9.73-9.94,14.74-14.8a259.06,259.06,0,0,1,30.12-26c-1.62-5.4-2-12.1-1.72-19.12-8.71,3-17.31,6.68-25.81,10.55Q195,89,180.45,96.75q13.76-9.18,28.09-17.54a285.75,285.75,0,0,1,27.77-14.42c.39-4,1-8,1.61-11.88-5,2.2-10.06,4.61-15,7.1C216,63.47,209.13,67.19,202.32,71s-13.54,7.69-20.24,11.67-13.37,8-20,12.19q9.34-7,18.91-13.81c6.36-4.52,12.78-9,19.28-13.34S213.36,59,220.08,55c6.36-3.86,12.8-7.61,19.56-11,.88-4.2,1.79-7.91,2.54-10.81-11.27,4.73-22.6,9.27-33.91,13.82-13.33,5.36-26.64,10.72-39.84,16.3-6.59,2.82-13.19,5.6-19.71,8.56-3.28,1.44-6.51,3-9.75,4.49s-6.46,3.06-9.69,4.6C116.37,87.07,103.67,93.53,91,100.61c10.61-9.91,22.91-17.88,35.51-25,3.16-1.77,6.35-3.51,9.58-5.13l3.48-1.76c-4.9,1-10.15,2.1-15.61,3.2C104.3,75.87,79.8,80.78,74,86c-9.37,8.34-22.76,45.56-29.61,76.68,1.46-.89,2.94-1.68,4.42-2.42,4.1-2,8.26-3.62,12.39-5.2,8.24-3.11,16.43-6,24-10.21a59.37,59.37,0,0,0,10.56-7.32,44.93,44.93,0,0,0,8.34-9.78,75.76,75.76,0,0,1,17.77-19.48,74.75,74.75,0,0,0-16.38,20.29,47.33,47.33,0,0,1-8.07,10.73,62.76,62.76,0,0,1-10.57,8.32C79.23,152.39,71,155.89,63,159.48c-4,1.8-7.93,3.61-11.58,5.71a36,36,0,0,0-9,6.84,149.61,149.61,0,0,0-2.42,19.17A133.18,133.18,0,0,1,56.14,180c7.53-4.63,15.33-8.56,22.79-12.79,3.76-2.07,7.4-4.24,10.93-6.54A121.92,121.92,0,0,0,100,153.13a99.91,99.91,0,0,0,17.48-17.95c5-6.67,8.8-14.27,12.89-22a119.31,119.31,0,0,1,15-22c11.62-13.46,27-23.68,43.78-28.44a106.25,106.25,0,0,0-39.74,31.75,129.19,129.19,0,0,0-13.34,21.62c-3.82,7.67-7.61,15.78-12.85,23.2a104.5,104.5,0,0,1-18.45,19.56A114.74,114.74,0,0,1,94,167c-3.74,2.45-7.56,4.72-11.4,6.85C74.93,178,67.22,182,59.82,186.2a133.12,133.12,0,0,0-19.61,13.5v.11l-1.41,1.05c-3.75,2.8-7.72,6.8-5.35,10,2.57,3.45,17,14.66,24.1,19.21,7.41-12,16.48-22.64,26-32.71,10.24-10.82,21.12-20.89,31.82-31,5.31-5.1,10.63-10.13,15.5-15.54s9.7-11,14.35-16.71Q159.16,117,172.17,99,160.94,118.13,148,136.24c-4.33,6-8.78,12-13.52,17.71s-9.88,11.23-15,16.54c-10.31,10.64-20.77,21-30.72,31.73-5,5.37-9.82,10.83-14.43,16.45-2.28,2.83-4.58,5.64-6.72,8.56s-4.22,5.87-6.21,8.87c-5.37,8.86-5,13.5,1.66,20.68,8.08,8.74,20.21,28.4,21.17,30.6a6.86,6.86,0,0,1,.27,3.43c-.14,1.7-.34,4,.88,5.23,1,1,3.14,1.49,6,1.43C92.67,292.21,97.18,279.88,113.56,258.43Z"/><path d="M353.82,329.61a5.53,5.53,0,0,0-1.45-.45,3.8,3.8,0,0,0-.5-.06h-.39a6.15,6.15,0,0,0-.68.05c-.83.09-1.53.24-2.26.38-1.43.3-2.81.64-4.19,1-5.51,1.44-10.92,3.1-16.28,4.92s-10.68,3.76-15.91,6a81,81,0,0,0-7.75,3.74c-.31.17-.64.37-1,.57l-.49.29-.12.08h0a.11.11,0,0,1-.06,0,4.41,4.41,0,0,1-1.53.16,16.37,16.37,0,0,1-2.37-.23,9.2,9.2,0,0,1-1.55-.88,35.62,35.62,0,0,1-5.57-4.77,13,13,0,0,0,3.36,7.34,10.18,10.18,0,0,0,3.49,2.52,13.27,13.27,0,0,0,4.17.73c.6,0,1.2.08,1.78.13.75.06,1.5.11,2.24.1,1.33,0,2.61-.08,3.87-.16l7.58-.54,15.13-1.18,7.58-.63,3.79-.34,1.92-.2.84-.1a25.1,25.1,0,0,0,9.78,3.57,13.93,13.93,0,0,0,2.82.07,11.1,11.1,0,0,0,1.53-.18,11.22,11.22,0,0,0,1.49-.43,13.85,13.85,0,0,0,4.73-3c.5-.48,1-1,1.4-1.49a11.92,11.92,0,0,0,4.12,3.12,15,15,0,0,0,3.07,1.05,40.08,40.08,0,0,1-3.06,6.11,27.14,27.14,0,0,1-5.66,6.52,18.45,18.45,0,0,1-3.51,2.33,16.93,16.93,0,0,1-3.86,1.45,47.15,47.15,0,0,1-8.89.77A127.3,127.3,0,0,1,333,366.73a73.51,73.51,0,0,1-18-4.42l-.09,0a29.09,29.09,0,0,0,5,3.12c8.68,5.48,24.6,14.74,37.19,13.33,13.11-1.46,20.79-20.65,21.26-21.86a40.16,40.16,0,0,0,2.21-5.74,4.18,4.18,0,0,0,2.42-1.09,3.17,3.17,0,0,0,.89-1.62,1.89,1.89,0,0,0,.06-.32l0-.21.06-.44a17.7,17.7,0,0,0,.12-3.57A16.26,16.26,0,0,0,382,337a19.43,19.43,0,0,0-4.58-5.4,25.24,25.24,0,0,0-2.83-2c-.49-.3-1-.59-1.51-.87-.28-.14-.44-.23-.84-.42a4.84,4.84,0,0,0-1.29-.35,4.59,4.59,0,0,0-2.58.44,4,4,0,0,0-.57.32l-.34.24-.67.45-2.66,1.82L360,333.94c-.74-.63-1.48-1.24-2.26-1.84A21.63,21.63,0,0,0,353.82,329.61Z"/><path class="cls-1" d="M370,345.73a20.79,20.79,0,0,0,3.3-6.26,72.72,72.72,0,0,1-7.81,5.52,14.49,14.49,0,0,1-3.78,1.6,7.2,7.2,0,0,1-.88.13,5,5,0,0,1-.89,0,14.21,14.21,0,0,1-2-.15,53.94,53.94,0,0,1-8.71-2.23,77,77,0,0,0-9.5-2.6,32.93,32.93,0,0,0,3.71,3.49l-2.77.36q-3.75.47-7.52.84c-5,.51-10,1-15.07,1.39l-7.54.55a32.93,32.93,0,0,1-6,0l.41-.24c.28-.17.56-.33.87-.49a76.78,76.78,0,0,1,7.52-3.45c5.16-2.08,10.46-3.88,15.8-5.56s10.72-3.23,16.12-4.55c1.35-.32,2.7-.63,4-.88.66-.12,1.34-.25,1.91-.3a2.77,2.77,0,0,1,.37,0h.16a4,4,0,0,1,.55.19,18.32,18.32,0,0,1,3.19,2c1.07.8,2.15,1.68,3.15,2.55l1.14,1,1.18-.83,5.28-3.69,2.66-1.81.67-.45.32-.22.13-.07a1,1,0,0,1,.55-.09,1.11,1.11,0,0,1,.26.07l.59.31c.44.23.86.48,1.28.74a19.66,19.66,0,0,1,2.37,1.76,16.09,16.09,0,0,1,3.62,4.43,13.51,13.51,0,0,1,1.6,5.34,18.22,18.22,0,0,1,0,2.86l-.05.45a1.46,1.46,0,0,1-.31.09,8.23,8.23,0,0,1-2.61,0c-.95-.14-1.92-.38-2.89-.61C372.94,346.56,371.5,346.19,370,345.73Z"/><path d="M380.32,347.43h0S380.35,347.41,380.32,347.43Z"/><path d="M603.43,752.2a30,30,0,0,0-6.23.94q-1.61.39-3.18.9c.49-1.41,1-2.82,1.38-4.26a46.29,46.29,0,0,0,1.43-6.18,35.31,35.31,0,0,0-3.29,5.44c-.77,1.53-1.45,3.1-2.08,4.69a30.23,30.23,0,0,0-3.74-2.47,16.51,16.51,0,0,0-6.08-2.11c1.77,1.23,3.37,2.48,5,3.78,1.09.89,2.16,1.8,3.22,2.72a39.62,39.62,0,0,0-4.22,2.12,22,22,0,0,0-5,3.84c3.21-1.05,6.26-2.15,9.3-3.3-.25.85-.48,1.71-.68,2.58a24.05,24.05,0,0,0-.74,6.35c1.53-3.08,2.86-6.12,4.08-9.22l8.06,7.13a20.89,20.89,0,0,0-3.23-5.54,33.73,33.73,0,0,0-2.81-3.16c1.1-.45,2.2-.92,3.29-1.41A55.13,55.13,0,0,0,603.43,752.2Z"/><path d="M634.55,758.56c4-.72,7.89-1.45,11.79-2.08-.7,3.65-1.28,7.3-1.73,11.09a28.23,28.23,0,0,0,2.91-6.35c.34-1,.64-2,.93-3,2.18,2.91,4.4,5.79,6.74,8.72a25.4,25.4,0,0,0-2.5-6.43,47.16,47.16,0,0,0-2.78-4.57c1.58-.24,3.16-.47,4.75-.65,2.24-.26,4.47-.46,6.81-.52a18.61,18.61,0,0,0-6.87-1.48,34.19,34.19,0,0,0-5.06.15c.36-1.89.66-3.79.85-5.71a41.26,41.26,0,0,0,.2-7,55.12,55.12,0,0,0-2.16,6.59c-.46,1.66-.86,3.33-1.24,5-.82-1-1.67-2-2.56-2.91a35.54,35.54,0,0,0-5.16-4.54,66.57,66.57,0,0,0,3.6,5.81q1.15,1.69,2.34,3.36a39,39,0,0,0-4.61,1.31A24.53,24.53,0,0,0,634.55,758.56Z"/><path d="M648.84,686.75a23.11,23.11,0,0,0-5.21.35c-.81.14-1.6.31-2.4.49.23-.59.44-1.2.64-1.81a20.06,20.06,0,0,0,.85-4,15.85,15.85,0,0,0-2.67,3.1,24,24,0,0,0-1.53,2.7,23.06,23.06,0,0,0-3.69-1.38,13.38,13.38,0,0,0-5-.54c1.48.85,2.88,1.63,4.29,2.39l2.09,1.14c-.8.32-1.58.68-2.35,1.07a17.78,17.78,0,0,0-4.36,2.94c1.76-.28,3.42-.65,5.06-1.07.85-.21,1.69-.44,2.52-.67-.07.24-.15.48-.21.73a10.93,10.93,0,0,0-.26,4.12c.81-1.15,1.5-2.25,2.15-3.39.34-.61.67-1.23,1-1.86.94.49,1.89,1,2.85,1.47,1.44.72,2.88,1.42,4.46,2.1a14.49,14.49,0,0,0-3.36-3.78c-.46-.38-.93-.74-1.42-1.08l1.95-.75A32.4,32.4,0,0,0,648.84,686.75Z"/><path d="M696.72,624.43a52.08,52.08,0,0,0-5.19,4.47c-1.21,1.17-2.39,2.37-3.54,3.58-.17-.91-.36-1.82-.59-2.72a25,25,0,0,0-2-5.51,48.91,48.91,0,0,0,0,5.81c.06,1.13.13,2.25.22,3.36a34.53,34.53,0,0,0-4.87-.41,22.16,22.16,0,0,0-6.37.73c2.1.48,4.14.87,6.17,1.26l4.33.87c-2.34,2.67-4.59,5.41-6.74,8.36a29.49,29.49,0,0,0,5.63-4c.79-.68,1.56-1.39,2.31-2.11.12,1.07.24,2.15.38,3.22.22,1.88.46,3.76.77,5.72a19.13,19.13,0,0,0,1.22-5.76,33.8,33.8,0,0,0,0-4.72c1.39.29,2.77.58,4.15.91,2,.49,4,1,6,1.7a15.56,15.56,0,0,0-5.36-3.59,30.72,30.72,0,0,0-3.59-1.29c1.16-1.33,2.29-2.69,3.34-4.11A41.21,41.21,0,0,0,696.72,624.43Z"/><path d="M655.45,506.22c.52-1.2,1-2.42,1.41-3.66a28.13,28.13,0,0,0,1.3-5.45,34.46,34.46,0,0,0-3.12,4.63c-.61,1.05-1.18,2.12-1.73,3.2-.29-.53-.58-1.06-.91-1.57a18,18,0,0,0-3-3.69,31.24,31.24,0,0,0,1.22,4.57c.26.77.53,1.53.82,2.28a24.35,24.35,0,0,0-3.57.84,16.35,16.35,0,0,0-4.72,2.28c1.77,0,3.45-.16,5.11-.31l3.15-.29c-.37.85-.71,1.7-1,2.56a53.28,53.28,0,0,0-1.8,5.26,20.84,20.84,0,0,0,3.58-4.34c.39-.59.74-1.19,1.09-1.8.3.67.58,1.34.89,2,.68,1.38,1.35,2.75,2.16,4.17a14.36,14.36,0,0,0-.24-4.81,24.59,24.59,0,0,0-1-3.38l3.08-.31c1.65-.13,3.28-.27,5-.3a11.77,11.77,0,0,0-5-1.7A20.6,20.6,0,0,0,655.45,506.22Z"/><path d="M647.28,240.64c-3.86-7.46-9.6-16.36-12.71-16C632.42,224.83,633.71,237.53,647.28,240.64Z"/><path d="M643.63,257.58c-2.79,2.13,2.79,9.11,14.37,10.61C653.39,262.19,645.89,255.86,643.63,257.58Z"/><path d="M655.38,296.34c-2.77,3.22,7.39,9.81,18.81,10.61C667.92,300.52,657.31,294.08,655.38,296.34Z"/></g></g></svg>