<svg xmlns="http://www.w3.org/2000/svg" viewBox="0 0 225.68 137.05"><g id="Layer_2" data-name="Layer 2"><g id="Layer_1-2" data-name="Layer 1"><path d="M48.09.56,40.46,56.42H28.35q-4.07-29-4.34-34.79,0,2.6-1.09,11.27T20.72,49l-1,7.42H7.84L0,.56H10.43Q14.5,35.77,14.49,41.3q0-2.44,1.15-12.63T17.92,9.52L19,.56H29.19Q34,35.77,34,41.3q0-2.44,1-12.63T37,9.52l1-9Z"/><path d="M75.11,56.42H50.33V.56H75v9.59H60.55V23.73H74v9.1H60.55V47H75.11Z"/><path d="M105.56,52.5a8.25,8.25,0,0,1-4.17,3.12,22.56,22.56,0,0,1-6.68.8H78.12V.56H95.76q7.14,0,9.52,4.2c1.16,2,1.75,5.06,1.75,9.17,0,4.57-.52,7.93-1.54,10.08a6.32,6.32,0,0,1-4.9,3.57,7.23,7.23,0,0,1,5.74,3.78c1.12,2,1.68,5.27,1.68,9.8Q108,49.14,105.56,52.5Zm-9.1-36a15.13,15.13,0,0,0-.84-5.53,2.89,2.89,0,0,0-2.8-2H88.13V24.5h5.39c.84,0,1.56-.63,2.17-1.89S96.46,19.44,96.46,16.45Zm-.07,29.68c.46-1,.7-3,.7-6.09,0-2.89-.26-4.81-.77-5.74a3.37,3.37,0,0,0-3-2H88.13V48.09h5A3.32,3.32,0,0,0,96.39,46.13Z"/><path d="M138.53,43.33q0,6.44-3.82,10.08t-10.18,3.64q-6.51,0-10.12-2.55a9.34,9.34,0,0,1-4-7.32c-.1-1.17-.14-3.38-.14-6.65h9.73a45.48,45.48,0,0,0,.14,5c.32,2,1.68,3.08,4.06,3.08q4.2,0,4.2-4.34a12.48,12.48,0,0,0-1.19-5.74,19.14,19.14,0,0,0-4.34-5.11q-3.72-3.36-5-4.48A26.62,26.62,0,0,1,112,22a18,18,0,0,1-1.78-8.61q0-6.16,3.78-9.77T124.32,0q6.3,0,9.59,3.12a13.19,13.19,0,0,1,3.92,8.29,33.63,33.63,0,0,1,.42,5.74h-9.8a41.81,41.81,0,0,0-.28-4.55Q127.75,9,124.25,9q-4.06,0-4.06,4.2a8.54,8.54,0,0,0,1.4,4.8,26,26,0,0,0,4.13,4.65c3,2.71,4.69,4.25,5.11,4.62a28.17,28.17,0,0,1,5.91,7.31A19.12,19.12,0,0,1,138.53,43.33Z"/><path d="M152.32,56.42H141.68V.56h10.64Z"/><path d="M182.07,10.15h-8.61V56.42H163.1V10.15h-8.47V.56h27.44Z"/><path d="M209.16,56.42H184.38V.56H209v9.59H194.6V23.73H208v9.1H194.6V47h14.56Z"/><path d="M29.12,123.33q0,6.44-3.82,10.08t-10.18,3.64q-6.51,0-10.12-2.55a9.34,9.34,0,0,1-3.95-7.32C1,126,.91,123.8.91,120.53h9.73a48.47,48.47,0,0,0,.14,5q.49,3.07,4.06,3.08,4.2,0,4.2-4.34a12.48,12.48,0,0,0-1.19-5.74,19,19,0,0,0-4.34-5.11q-3.7-3.36-5-4.48A27,27,0,0,1,2.55,102,18.12,18.12,0,0,1,.77,93.37q0-6.16,3.78-9.77T14.91,80q6.3,0,9.59,3.12a13.19,13.19,0,0,1,3.92,8.29,33.63,33.63,0,0,1,.42,5.74H19a39.44,39.44,0,0,0-.28-4.55Q18.34,89,14.84,89q-4.06,0-4.06,4.2a8.62,8.62,0,0,0,1.4,4.8,26,26,0,0,0,4.13,4.65l5.11,4.62a28.17,28.17,0,0,1,5.91,7.31A19,19,0,0,1,29.12,123.33Z"/><path d="M57.05,136.42H32.27V80.56H56.91v9.59H42.49v13.58H55.93v9.1H42.49V127H57.05Z"/><path d="M88.34,96.73A27.43,27.43,0,0,1,87,106.18q-1.41,3.36-3.78,4.2l6.79,26H79.45l-5.6-23.24H70.21v23.24H60.06V80.56h16.8a12.59,12.59,0,0,1,5.81,1.29,8.21,8.21,0,0,1,3.71,3.75Q88.33,89.38,88.34,96.73Zm-10.29,1a30.92,30.92,0,0,0-.28-5.18c-.42-1.77-1.4-2.66-2.94-2.66H70.21v14.7c3,0,4.67,0,4.9-.07a2.43,2.43,0,0,0,2.38-1.75A15.11,15.11,0,0,0,78.05,97.71Z"/><path d="M121.38,80.56l-9.66,55.86H98.91L89.67,80.56H100.1l5.53,41.58,5.46-41.58Z"/><path d="M134.33,136.42H123.69V80.56h10.64Z"/><path d="M167.58,116.26a62.79,62.79,0,0,1-.63,10.22q-2,10.58-14.07,10.57-10.65,0-13.23-8.61-2-6.3-2-20.23a87.63,87.63,0,0,1,1.61-18q2.1-10.08,14.14-10.08,6.3,0,9.52,2.94t4,8.68a72.46,72.46,0,0,1,.56,9.31h-9.94a49.24,49.24,0,0,0-.7-8.4,3.26,3.26,0,0,0-3.64-2.94,3.76,3.76,0,0,0-4.06,3.08q-.78,3.15-.77,15.33,0,11.76.77,16c.46,2.33,1.82,3.5,4.06,3.5s3.66-1.24,4-3.71a63.8,63.8,0,0,0,.42-7.7Z"/><path d="M195.51,136.42H170.73V80.56h24.64v9.59H181v13.58h13.44v9.1H181V127h14.56Z"/><path d="M225.68,123.33q0,6.44-3.82,10.08t-10.18,3.64q-6.51,0-10.12-2.55a9.34,9.34,0,0,1-3.95-7.32c-.1-1.17-.14-3.38-.14-6.65h9.73a45.48,45.48,0,0,0,.14,5c.32,2,1.68,3.08,4.06,3.08q4.2,0,4.2-4.34a12.48,12.48,0,0,0-1.19-5.74,19.14,19.14,0,0,0-4.34-5.11q-3.72-3.36-5-4.48a26.62,26.62,0,0,1-5.92-6.93,18,18,0,0,1-1.78-8.61q0-6.16,3.78-9.77T211.47,80q6.3,0,9.59,3.12A13.19,13.19,0,0,1,225,91.41a33.63,33.63,0,0,1,.42,5.74h-9.8a41.81,41.81,0,0,0-.28-4.55Q214.9,89,211.4,89q-4.07,0-4.06,4.2a8.54,8.54,0,0,0,1.4,4.8,26,26,0,0,0,4.13,4.65c3,2.71,4.69,4.25,5.11,4.62a28.17,28.17,0,0,1,5.91,7.31A19.12,19.12,0,0,1,225.68,123.33Z"/></g></g></svg>