<svg xmlns="http://www.w3.org/2000/svg" viewBox="0 0 214.69 136.49"><defs><style>.cls-1{fill:#ffbc1a;}</style></defs><g id="Layer_2" data-name="Layer 2"><g id="Layer_1-2" data-name="Layer 1"><path class="cls-1" d="M27.44,9.59H18.83V55.86H8.47V9.59H0V0H27.44Z"/><path class="cls-1" d="M58.24,55.86H48V32.41H39.9V55.86H29.75V0H39.9V23.31H48V0H58.24Z"/><path class="cls-1" d="M87.36,55.86H62.58V0H87.22V9.59H72.8V23.17H86.24v9.1H72.8V46.41H87.36Z"/><path class="cls-1" d="M126.49,9.59h-8.61V55.86H107.52V9.59H99.05V0h27.44Z"/><path class="cls-1" d="M139.44,55.86H128.8V0h10.64Z"/><path class="cls-1" d="M183.61,55.86H174.3l.07-34.44-6.16,34.44h-9L153,21.49l.07,34.37h-9.38V0h13.65l6.37,35.21L170.45,0h13.16Z"/><path class="cls-1" d="M212.66,55.86H187.88V0h24.64V9.59H198.1V23.17h13.44v9.1H198.1V46.41h14.56Z"/><path class="cls-1" d="M41.86,135.86H32.55l.07-34.44-6.16,34.44h-9l-6.16-34.37.07,34.37H2V80H15.61L22,115.21,28.7,80H41.86Z"/><path class="cls-1" d="M56.14,122.35l-2,13.51H44L53.27,80H67.62L76,135.86H65.59l-1.82-13.51Zm6.72-8.26q-2.1-16.25-2.1-16.52l-.49-8.47q-.35,5.46-.63,8.47l-2.52,16.52Z"/><path class="cls-1" d="M106.68,115.7a62.79,62.79,0,0,1-.63,10.22q-2,10.58-14.07,10.57-10.65,0-13.23-8.61-2-6.3-2-20.23a88.34,88.34,0,0,1,1.61-18q2.1-10.08,14.14-10.08,6.3,0,9.52,2.94t4,8.68a72.46,72.46,0,0,1,.56,9.31H96.67a48.24,48.24,0,0,0-.7-8.4,3.26,3.26,0,0,0-3.64-2.94,3.76,3.76,0,0,0-4.06,3.08q-.78,3.15-.77,15.33,0,11.76.77,16,.7,3.49,4.06,3.5t4-3.71a63.8,63.8,0,0,0,.42-7.7Z"/><path class="cls-1" d="M138.32,135.86H128.1V112.41H120v23.45H109.83V80H120v23.31h8.12V80h10.22Z"/><path class="cls-1" d="M153.3,135.86H142.66V80H153.3Z"/><path class="cls-1" d="M185.57,135.86h-9.66L167.09,108v27.86h-9.52V80h9.73l8.75,27.3V80h9.52Z"/><path class="cls-1" d="M214.69,135.86H189.91V80h24.64v9.59H200.13v13.58h13.44v9.1H200.13v14.14h14.56Z"/></g></g></svg>