<svg xmlns="http://www.w3.org/2000/svg" viewBox="0 0 261.16 137.05"><defs><style>.cls-1{fill:#ffbc1a;}</style></defs><g id="Layer_2" data-name="Layer 2"><g id="Layer_1-2" data-name="Layer 1"><path class="cls-1" d="M28.35,43.33q0,6.44-3.81,10.08T14.35,57.05q-6.51,0-10.11-2.55a9.32,9.32,0,0,1-4-7.32C.19,46,.14,43.8.14,40.53H9.87a48.47,48.47,0,0,0,.14,5q.49,3.07,4.06,3.08,4.2,0,4.2-4.34a12.48,12.48,0,0,0-1.19-5.74,19,19,0,0,0-4.34-5.11Q9,30,7.7,28.91A26.75,26.75,0,0,1,1.79,22,18,18,0,0,1,0,13.37Q0,7.21,3.78,3.6T14.14,0q6.3,0,9.59,3.12a13.19,13.19,0,0,1,3.92,8.29,33.63,33.63,0,0,1,.42,5.74h-9.8A39.44,39.44,0,0,0,18,12.6Q17.57,9,14.07,9,10,9,10,13.16a8.62,8.62,0,0,0,1.4,4.8,26,26,0,0,0,4.13,4.65l5.11,4.62a28.24,28.24,0,0,1,5.92,7.31A19.12,19.12,0,0,1,28.35,43.33Z"/><path class="cls-1" d="M45.85.14q6.3,0,9.66,2.59t4.55,8Q61,15.33,61,28a112.59,112.59,0,0,1-1.12,17.92Q58,57.05,45.85,57.05q-11.55,0-13.93-10.36-1.19-5.17-1.19-18.34,0-12.81.91-17Q34.09.13,45.85.14Zm.14,48q2.94,0,3.92-3.22.92-2.94.91-16.38A103.76,103.76,0,0,0,50,13,4.81,4.81,0,0,0,48.75,10,3.94,3.94,0,0,0,46,9.17a3.67,3.67,0,0,0-2.73.87,6.53,6.53,0,0,0-1.33,3q-.76,3.44-.77,15.61,0,12.89,1,16.31Q43.06,48.09,46,48.09Z"/><path class="cls-1" d="M93.45,36.26a62.79,62.79,0,0,1-.63,10.22q-2,10.58-14.07,10.57-10.65,0-13.23-8.61-2-6.3-2-20.23a87.63,87.63,0,0,1,1.61-18Q67.27.14,79.31.14q6.3,0,9.52,2.94t4,8.68a72.46,72.46,0,0,1,.56,9.31H83.44a48.24,48.24,0,0,0-.7-8.4A3.26,3.26,0,0,0,79.1,9.73,3.76,3.76,0,0,0,75,12.81q-.78,3.15-.77,15.33,0,11.76.77,16c.46,2.33,1.82,3.5,4.06,3.5s3.66-1.24,4-3.71a63.8,63.8,0,0,0,.42-7.7Z"/><path class="cls-1" d="M107.24,56.42H96.6V.56h10.64Z"/><path class="cls-1" d="M121.52,42.91l-2,13.51H109.34L118.65.56H133l8.33,55.86H131l-1.82-13.51Zm6.72-8.26q-2.1-16.24-2.1-16.52l-.49-8.47q-.34,5.46-.63,8.47L122.5,34.65Z"/><path class="cls-1" d="M168.49,56.42h-25V.56h10.22V47h14.77Z"/><path class="cls-1" d="M29.4,136.42H19.74l-8.82-27.86v27.86H1.4V80.56h9.73l8.75,27.3V80.56H29.4Z"/><path class="cls-1" d="M58.52,136.42H33.74V80.56H58.38v9.59H44v13.58H57.4v9.1H44V127H58.52Z"/><path class="cls-1" d="M87.22,90.15H78.61v46.27H68.25V90.15H59.78V80.56H87.22Z"/><path class="cls-1" d="M135.52,80.56l-7.63,55.86H115.78q-4.07-29-4.34-34.79,0,2.59-1.09,11.27t-2.2,16.1l-1.05,7.42H95.27L87.43,80.56H97.86q4,35.21,4.06,40.74,0-2.44,1.15-12.63t2.28-19.15l1.12-9h10.15q4.83,35.21,4.83,40.74,0-2.44,1-12.63t2-19.15l1-9Z"/><path class="cls-1" d="M151,80.14q6.3,0,9.66,2.59t4.55,8q1,4.62,1,17.29a113.8,113.8,0,0,1-1.12,17.92q-1.89,11.13-14.07,11.13-11.55,0-13.93-10.36-1.2-5.18-1.19-18.34,0-12.81.91-17Q139.23,80.14,151,80.14Zm.14,48c2,0,3.26-1.07,3.92-3.22q.9-2.94.91-16.38A103.76,103.76,0,0,0,155.12,93,4.81,4.81,0,0,0,153.89,90a3.94,3.94,0,0,0-2.76-.87,3.67,3.67,0,0,0-2.73.87,6.43,6.43,0,0,0-1.33,3q-.78,3.44-.77,15.61,0,12.89,1,16.31C147.88,127,149.17,128.09,151.13,128.09Z"/><path class="cls-1" d="M197.88,96.73a27.19,27.19,0,0,1-1.33,9.45q-1.4,3.36-3.78,4.2l6.79,26H189l-5.6-23.24h-3.64v23.24H169.6V80.56h16.8a12.56,12.56,0,0,1,5.81,1.29,8.16,8.16,0,0,1,3.71,3.75Q197.89,89.38,197.88,96.73Zm-10.29,1a30.92,30.92,0,0,0-.28-5.18c-.42-1.77-1.39-2.66-2.93-2.66h-4.63v14.7c3,0,4.67,0,4.9-.07a2.43,2.43,0,0,0,2.38-1.75A14.85,14.85,0,0,0,187.59,97.71Z"/><path class="cls-1" d="M233.24,136.42H222.6l-8.06-22.61-2.23,4.27v18.34H202.16V80.56h10.15v22.19l10.92-22.19h9.94l-11.84,23.87Z"/><path class="cls-1" d="M261.16,123.33q0,6.44-3.81,10.08t-10.19,3.64q-6.51,0-10.11-2.55a9.35,9.35,0,0,1-4-7.32c-.09-1.17-.14-3.38-.14-6.65h9.73a48.47,48.47,0,0,0,.14,5q.5,3.07,4.06,3.08,4.2,0,4.2-4.34a12.35,12.35,0,0,0-1.19-5.74,19,19,0,0,0-4.34-5.11q-3.7-3.36-5-4.48A26.75,26.75,0,0,1,234.6,102a18,18,0,0,1-1.79-8.61q0-6.16,3.78-9.77T247,80q6.3,0,9.59,3.12a13.14,13.14,0,0,1,3.92,8.29,33.63,33.63,0,0,1,.42,5.74h-9.8a39.44,39.44,0,0,0-.28-4.55c-.28-2.43-1.58-3.64-3.92-3.64-2.7,0-4.06,1.4-4.06,4.2a8.62,8.62,0,0,0,1.4,4.8,26.43,26.43,0,0,0,4.13,4.65l5.11,4.62a28,28,0,0,1,5.92,7.31A19.12,19.12,0,0,1,261.16,123.33Z"/></g></g></svg>