<svg xmlns="http://www.w3.org/2000/svg" viewBox="0 0 590.67 590.67"><defs><style>.cls-1,.cls-2{fill:#fff;}.cls-10,.cls-2,.cls-3,.cls-4,.cls-5,.cls-6,.cls-9{stroke:#000;}.cls-10,.cls-2,.cls-7,.cls-9{stroke-miterlimit:10;}.cls-2,.cls-4,.cls-5{stroke-width:5px;}.cls-10,.cls-3,.cls-5{fill:none;}.cls-3,.cls-4,.cls-5,.cls-6{stroke-linecap:round;stroke-linejoin:round;}.cls-3,.cls-6,.cls-7{stroke-width:2px;}.cls-4,.cls-6,.cls-8{fill:#ffbc1a;}.cls-11,.cls-7{fill:#070707;}.cls-7{stroke:#ffbc1a;}</style></defs><g id="Layer_2" data-name="Layer 2"><g id="Layer_8" data-name="Layer 8"><rect class="cls-1" x="23.16" y="91.68" width="545.24" height="481.6"/><path d="M565.9,94.18v476.6H25.66V94.18H565.9m5-5H20.66v486.6H570.9V89.18Z"/><circle class="cls-2" cx="295.33" cy="295.33" r="292.83"/><path class="cls-3" d="M204.18,349.51c-2.21-10.87,4.34-37.59,7.61-49.43,4.89-17.73,11.45-47.65,15.22-65.62,1.21-5.76,3-11.39,3.21-17.4.17-4.28,8.55-10.05,13.62-10.1,6.45-.06,12.9,0,19.35,0h83.86c7.07,0,15.36,5.22,16.69,11.2,2.31,10.39,4.11,20.91,6.1,31.37,1.59,8.31,3,16.67,4.79,24.93,1.92,8.8,4.86,17.41,6.26,26.27,2.53,15.94,8.21,31.6,4.7,48.79H204.18Z"/><path class="cls-4" d="M249.83,349.94c-16,.05-29.07.15-35.88.35V574.88h76c.8-2.2.5-4.25.5-6.25q0-47.79,0-95.59c0-2.07-.33-4.19.51-6.17-8.57-3.6-6.82-12.19-6.84-19.9,0-22.63,0-49.53,0-72.16h20.95c0,22.63,0,49.53,0,72.16,0,7.47,1.63,15.76-6.05,19.55,1.67,2.53,1.33,4.84,1.33,7.06q0,25.26,0,50.52c0,15.39.1,30.78-.07,46.16,0,4.24,1,5.54,4.37,5.52,22.65-.16,45.3-.09,67.95-.08,1.77,0,3.55.09,5.59-1.89V350.29S300,349.81,249.83,349.94Z"/><path class="cls-3" d="M324.9,100.18c0-5.38.05-10.75,0-16.13-.06-4-2-5.81-6-6-15.77-.87-31.53-.39-47.3,0-4.17.1-5.88,1.71-6,6-.14,5.37,0,10.75,0,16.13"/><path class="cls-5" d="M301.68,493h75.26"/><path class="cls-5" d="M289.64,493.46H214.81"/><path class="cls-5" d="M284.05,434.54H214.81"/><path class="cls-5" d="M306,434.54c4.55,1.27,9.19.17,13.77.27,17.62.39,35.26.17,52.89.15,1.44,0,2.92.27,4.3-.42"/><rect class="cls-6" x="260.83" y="195.4" width="72.34" height="11.53"/><path class="cls-4" d="M319.61,100.32c-20.79.29-41.57-.31-62.37.32-9,.28-19.1,7.75-19,19,.21,18.63.11,37.27,0,55.91-.05,11.82,9.57,19.69,20.66,19.74,25.23.12,50.46.07,75.69,0a22.58,22.58,0,0,0,9.88-2.13c8.09-3.9,11.27-10.67,11.19-19.33-.16-18.21-.57-36.42-.31-54.62.13-9.2-8.76-18.74-18.61-18.55Z"/><path class="cls-6" d="M324.77,99.68c.85-5.21.47-10.47.35-15.69-.08-3.29-1.29-6-5.51-6.16-1.24,0-2.59-.26-3.88-.26q-20.64-.07-41.28,0c-7,0-9,1.93-9,9,0,4.3.26,8.6.4,12.9"/><path class="cls-6" d="M393.48,372.12H197"/><path class="cls-4" d="M214.31,349.66c-4.64,4.92-18.47,23.71-22.1,29.33-1.26,1.95-2.85,3.58-4.15,5.46-9.71,14.1-19.59,28.07-29.41,42.09l-33.9,48.34q-10.2,14.55-20.37,29.1c-.81,1.17-2.17,2.07-1.86,4.44l2.66,1.87,55.63,39c3.63,2.54,4.14,2.58,6.55-1.15,5.49-8.52,11.13-17,17.09-25.11,9.09-12.28,17.26-25.22,26.79-37.13,2.69-3.36,3.87-6,2.18-10.06a3.79,3.79,0,0,1,2-5.32c.56-.26.84-1.12,1.25-1.7,11-15.45,56.45-78.56,67.46-94h20.95c11.06,15.52,57.64,79,68.71,94.5.41.58.69,1.45,1.25,1.71a3.82,3.82,0,0,1,2.06,5.34c-1.68,4-.49,6.73,2.2,10.1,9.58,12,17.8,25,26.93,37.32,6,8.11,11.66,16.68,17.18,25.23,2.43,3.75,2.93,3.72,6.56,1.18l55.64-39,2.65-1.86c.31-2.39-1.06-3.29-1.87-4.46Q476.25,490.2,466,475.61L431.89,427c-9.88-14.08-19.8-28.13-29.57-42.29-1.3-1.9-2.89-3.53-4.16-5.5-3.65-5.64-16.15-24.53-20.81-29.47"/><path class="cls-4" d="M183.77,522.54l-61.27-43"/><path class="cls-4" d="M213.2,471.58q-26.41-18.51-52.81-37.05c-1.4-1-2.66-2.19-4-3.3"/><path class="cls-7" d="M275.83,148a7.71,7.71,0,0,0,5.43-2.26,7.61,7.61,0,0,0,2.25-5.46,7.71,7.71,0,0,0-7.73-7.68h-.58a7.71,7.71,0,1,0,.05,15.41Z"/><path class="cls-7" d="M316.4,132.63a7.7,7.7,0,1,0,0,15.4h.59a7.7,7.7,0,0,0,0-15.4Z"/><path d="M374.45,213.7a20.24,20.24,0,0,1-1.86,2.14,11.84,11.84,0,0,0-2.52,3.39.75.75,0,0,1-.69.46l-.37-.1-12.38-3.35s-.31-.82-.8-2.24c-.66-1.93-23.83-.93-24.85-4.52-1.11-3.87-.5-8-1.28-12.47-.23-1.32,10.11-8.44,11.68-11,5.51-9.07,4-17.51,4-30.2,0-7.5,5.4-21.14-8-40.26a23.07,23.07,0,0,0-8.12-7.15l-2.48-1.31a22,22,0,0,0-7.58-2.41c-3-.39-6.49-.93-7.84-1h0l-3.52-.09-1.59,0c-.62,0-1.22,0-1.79,0-11.35-.24-11.05.58-13.37.62-28.76.37-39.83,7.37-41.07,22.11-.13,1.58-1.14,3-1.48,4.62a0,0,0,0,1,0,0c-3.35,16.61-9.65,14-9.66,33v.38c0,5.49-.13,12.62,1.3,18.48a14.72,14.72,0,0,0,9.44,10.38c9.59,3.38,13.73.8,11.24,13.82,0,.17-22.32,4.29-22.45,4.39a38.48,38.48,0,0,1-18.3,7.31c-.69.09-1.08.11-1.08.11-.46-.41-.9-.82-1.34-1.24-.8-.77-1.65-1.5-2.49-2.23a8,8,0,0,1-3.11-5.76c-.1-2.84,1.66-5.2,3.15-6.67a11.93,11.93,0,0,0,3.59-9.92,24.68,24.68,0,0,1,.9-9,100.14,100.14,0,0,0,3.52-18.83.74.74,0,0,1,.37-.58,15.84,15.84,0,0,1-3.13-4.82l-.35-.84c-2.78-6.66-5.64-13.55-1-21a4.61,4.61,0,0,0-.31-3.73c-.67-1.34-1.38-2.68-2.08-4l-.88-1.66s-.51-1-.75-1.66c-.57-2.88.95-5.19,2.3-7.25l.37-.57a34.24,34.24,0,0,0,2.59-5.3c1.07-2.55,2.18-5.19,4-7.12,5.66-6,7.34-13.61,8.81-20.31,2.08-9.43,7.46-16.88,16.48-22.77,6.92-4.52,14.79-5.62,22.41-6.68l4.71-.69a12.69,12.69,0,0,1,6,.59,6.86,6.86,0,0,1,5.36-2.06c10,.74,17.36,3.57,23.19,8.91a.75.75,0,0,1,.11,1c2.72-3.26,4.78-3.57,8.71-1.51.19.1.36.21.54.32a2.78,2.78,0,0,0,2,.56c3.85-.43,7.89.52,12.37,2.92l.52.28c1.67.87,3.56,1.85,3.58,4.58a.81.81,0,0,1-.11.39,11.72,11.72,0,0,1,4.8,2.81,59,59,0,0,1,7.65,10.27c.67,1.06,1.35,2.13,2,3.17a64.56,64.56,0,0,1,4.52,8,30,30,0,0,1,2.78,10.41c.53,5.27,1.46,10.76,4.63,15.21l.38.54a35,35,0,0,1,3.75,6c1.24,2.77,2.23,6.36-1.12,9.63a6.38,6.38,0,0,1-.6.51c-.74.57-1.18,1-1.13,1.63a.32.32,0,0,1,0,.14,4.38,4.38,0,0,1,.79,4.35,5.42,5.42,0,0,1-4.44,4,3.23,3.23,0,0,0-2.41,1,3.56,3.56,0,0,0-.23,2.77c.1.53.16,1.07.21,1.59.16,1.63.3,3,1.67,4a3.32,3.32,0,0,1,1.27,2.3,3.84,3.84,0,0,1,0,.83l0,0a22.47,22.47,0,0,1,4.68,16.44c-.05.53-.1,1.08-.15,1.62-.61,6.13-1.17,11.93,2.58,17.15.59.82,1.22,1.64,1.83,2.43s1.27,1.65,1.88,2.5A9.75,9.75,0,0,1,374.45,213.7Z"/><path class="cls-4" d="M407,523.29l61.27-43"/><path class="cls-4" d="M377.35,472.09q26.41-18.51,52.81-37c1.41-1,2.66-2.19,4-3.3"/><path class="cls-8" d="M374.45,201.46c-.61-.85-1.25-1.69-1.88-2.5s-1.24-1.61-1.83-2.43c-3.75-5.22-3.19-11-2.58-17.15,0-.54.1-1.09.15-1.62a22.47,22.47,0,0,0-4.68-16.44l0,0a3.84,3.84,0,0,0,0-.83,3.32,3.32,0,0,0-1.27-2.3c-1.37-1-1.51-2.4-1.67-4-.05-.52-.11-1.06-.21-1.59a3.56,3.56,0,0,1,.23-2.77,3.23,3.23,0,0,1,2.41-1,5.42,5.42,0,0,0,4.44-4,4.38,4.38,0,0,0-.79-4.35.32.32,0,0,0,0-.14c0-.65.39-1.06,1.13-1.63a6.38,6.38,0,0,0,.6-.51c3.35-3.27,2.36-6.86,1.12-9.63a35,35,0,0,0-3.75-6l-.38-.54c-3.17-4.45-4.1-9.94-4.63-15.21a30,30,0,0,0-2.78-10.41,64.56,64.56,0,0,0-4.52-8c-.69-1-1.37-2.11-2-3.17a59,59,0,0,0-7.65-10.27,11.72,11.72,0,0,0-4.8-2.81.81.81,0,0,0,.11-.39c0-2.73-1.91-3.71-3.58-4.58l-.52-.28c-4.48-2.4-8.52-3.35-12.37-2.92a2.78,2.78,0,0,1-2-.56c-.18-.11-.35-.22-.54-.32-3.93-2.06-6-1.75-8.71,1.51a.75.75,0,0,0-.11-1c-5.83-5.34-13.19-8.17-23.19-8.91a6.86,6.86,0,0,0-5.36,2.06,12.69,12.69,0,0,0-6-.59l-4.71.69c-7.62,1.06-15.49,2.16-22.41,6.68-9,5.89-14.4,13.34-16.48,22.77-1.47,6.7-3.15,14.3-8.81,20.31-1.83,1.93-2.94,4.57-4,7.12a34.24,34.24,0,0,1-2.59,5.3l-.37.57c-1.35,2.06-2.87,4.37-2.3,7.25.24.63.75,1.66.75,1.66l.88,1.66c.7,1.3,1.41,2.64,2.08,4a4.61,4.61,0,0,1,.31,3.73c-4.66,7.49-1.8,14.38,1,21l.35.84a15.84,15.84,0,0,0,3.13,4.82.74.74,0,0,0-.37.58A100.14,100.14,0,0,1,219.7,184a24.68,24.68,0,0,0-.9,9,11.93,11.93,0,0,1-3.59,9.92c-1.49,1.47-3.25,3.83-3.15,6.67a8.15,8.15,0,0,0,3.21,5.85c.87.74,1.73,1.53,2.56,2.3.38.37.77.72,1.17,1.08a.73.73,0,0,0,.49.2.77.77,0,0,0,.56-.25s0,0,0-.06a.74.74,0,0,0-.09-1l-1.15-1.07c-.84-.78-1.71-1.59-2.6-2.35a6.66,6.66,0,0,1-2.69-4.74c-.07-2.3,1.43-4.28,2.7-5.53l.05-.06s0,.06.06.09l.19.16v0c2.43,8.44,9.36,10.31,15.15,11h.09a.76.76,0,0,0,.74-.66.77.77,0,0,0-.66-.85c-8-1-12.22-4-13.92-10a1.24,1.24,0,0,0-.48-.65l-.07-.06a.57.57,0,0,0-.13-.08,13.4,13.4,0,0,0,3-10.05,19.15,19.15,0,0,1,0-3.56.85.85,0,0,0,.24.42,13.31,13.31,0,0,0,5.33,2.45,23.23,23.23,0,0,1,2.85,1c-1.14,1-2.22,2-3.29,3-.72.69-1.44,1.38-2.18,2a5.29,5.29,0,0,0-1.93,5A6.84,6.84,0,0,0,226,207.9a20.34,20.34,0,0,0,2.37.65c.36.08.71.17,1.08.27l.18,0a.72.72,0,0,0,.59-.3c.35-.45.65-.94,1-1.41a6.32,6.32,0,0,1,1.84-2.21l.48-.31a.72.72,0,0,0,.25.24c2,1.07,2.73,3.08,3.46,5.21l.28.81a.75.75,0,0,0,.7.5.7.7,0,0,0,.25-.05.67.67,0,0,0,.38-.32.74.74,0,0,0,.07-.65l-.27-.79c-.76-2.22-1.56-4.5-3.88-5.87,2.86-2.49,3.86-6.24,2.87-11a46.6,46.6,0,0,1-.75-7.63c0-1.08-.09-2.19-.17-3.29-.12-1.66.2-2.5,1.15-3.09a.77.77,0,0,0,.25-1,.76.76,0,0,0-1-.25c-1.84,1.14-2,3-1.86,4.49.08,1.08.13,2.16.17,3.24.05,1.28.11,2.58.22,3.89a.73.73,0,0,0-.25,0A19.08,19.08,0,0,0,230,192a19.92,19.92,0,0,0-3.74-1.39,12.1,12.1,0,0,1-4.78-2.15.75.75,0,0,0-1.05.09.58.58,0,0,0-.1.21,28.7,28.7,0,0,1,.83-4.39,102.63,102.63,0,0,0,3.54-18.78c.3.26.62.52,1,.77,3,2.16,3.13,6.14,2,9.11-1.42,3.67-3,7.83-6.38,10.73a.75.75,0,0,0,.48,1.33.74.74,0,0,0,.48-.18c3.64-3.14,5.4-7.68,6.81-11.33s1.12-8.25-2.5-10.89a14,14,0,0,1-4.69-6l-.35-.85c-2.54-6.11-5.15-12.42-1.44-19,3.12,1.81,4.66,4.91,4.58,9.24-.13,6.4,3.68,10.42,7.36,14.3l.13.15c1,1,2.52,1.25,4,1.48.64.1,1.24.2,1.79.34a.64.64,0,0,0,.2,0,.74.74,0,0,0,.71-.56.81.81,0,0,0,0-.38.74.74,0,0,0-.53-.55,17.24,17.24,0,0,0-1.95-.37c-1.27-.2-2.57-.4-3.18-1l-.13-.14c-.53-.55-1.05-1.11-1.56-1.66a.7.7,0,0,0,.29-.5c0-.36.08-.71.13-1.06.1-.78.2-1.59.24-2.4a45.72,45.72,0,0,0-.7-8.48,37.45,37.45,0,0,1-.6-9.28c4.67,1.07,8.88,1.62,13-1.68a16.71,16.71,0,0,0,4.65-5.8,0,0,0,0,0,0,0,17.31,17.31,0,0,0,1.46-4.55.19.19,0,0,1,0-.07c1.71-9.41,7.25-15.48,17.46-19.08a42.19,42.19,0,0,1,11-1.82c1.23-.09,2.5-.19,3.75-.32.88-.09,1.76-.2,2.64-.3,2-.23,4.13-.47,6.21-.59a37.75,37.75,0,0,1,8.1.19l.78.12c5.38.79,10.47,1.54,16-.13.76-.22,8.59,1.57,9.24,2,4.88,3,2.93,2.34,7,4,9.29,9.68,13.61,19.87,13.05,31.4-.18,3.68-.05,7.42.08,11,0,1,.07,2,.1,3.08.05,1.49.08,3,.07,4.47a6.5,6.5,0,0,0,1,3.67h0a5.18,5.18,0,0,0,3,2.2,3.88,3.88,0,0,0,1.09.14,5.64,5.64,0,0,0,4.81-2.72,10.77,10.77,0,0,1,2.88-3.38,17.42,17.42,0,0,0,2-2,4.68,4.68,0,0,0,1.2,1.24,1.87,1.87,0,0,1,.66,1.26,1.37,1.37,0,0,1-.13.93,5.59,5.59,0,0,0-1.11,3.68,9,9,0,0,1-.11,1.3c-.1.58-.16,1.17-.21,1.75-.16,1.76-.32,3.43-1.71,4.6a11.43,11.43,0,0,0-5.89-1.3h-2.23a.76.76,0,0,0,0,1.52H353c3.18,0,5.32.72,6.37,2.17s1.05,3.29.26,5.89c-2.25,7.43-.36,13.35,5.92,18.68,2.2,1.86,4.25,4.08,4.3,7.71.07,4.24-2.1,5.31-5.36,5.63a40.44,40.44,0,0,1-4.8.07c-.73,0-1.47,0-2.2,0,.35-2.76-.27-5.91-2.15-7.7-3-2.86-4.21-6.19-3.9-10.8,0-.39.06-.78.1-1.18.22-2.12.46-4.51-1.33-6.57a.75.75,0,0,0-.85-.19.58.58,0,0,0-.2.13.76.76,0,0,0-.06,1.07,5.21,5.21,0,0,1,.45.63,6.33,6.33,0,0,1,.59,3.91c0,.29-.05.58-.08.87s-.08.82-.11,1.23c-.29,4.41.73,7.88,3.22,10.79.35.41.74.82,1.15,1.22,1.67,1.59,2.1,4.82,1.54,7.33a7.15,7.15,0,0,1-.54,1.58.75.75,0,0,0,.34,1,.66.66,0,0,0,.33.09.75.75,0,0,0,.67-.43,8.52,8.52,0,0,0,.55-1.52.86.86,0,0,0,.27.05c.73,0,1.45,0,2.18,0s1.46,0,2.2,0c.92,0,1.85,0,2.77-.11,3.17-.31,6.8-1.4,6.71-7.16-.06-4.25-2.48-6.86-4.84-8.86-5.84-4.94-7.52-10.21-5.44-17.06.93-3.08.77-5.52-.49-7.24a5.27,5.27,0,0,0-.49-.57c1.63-1.54,1.83-3.57,2-5.38.05-.57.1-1.11.19-1.64a10.83,10.83,0,0,0,.13-1.48,4.66,4.66,0,0,1,.53-2.46,21,21,0,0,1,3.92,14.73c-.05.54-.11,1.08-.16,1.62-.6,6.15-1.22,12.5,2.86,18.19.61.84,1.24,1.68,1.86,2.48s1.26,1.63,1.86,2.45c2.52,3.53,2.52,7,0,10.45a21.13,21.13,0,0,1-1.73,2,13,13,0,0,0-2.83,3.84.76.76,0,0,0,.32,1l.08,0a.75.75,0,0,0,.29.06.75.75,0,0,0,.69-.46,11.84,11.84,0,0,1,2.52-3.39,20.24,20.24,0,0,0,1.86-2.14A9.75,9.75,0,0,0,374.45,201.46ZM235.69,190.53c.09.83.23,1.65.4,2.49,1,5-.26,8.51-3.87,10.58a7.45,7.45,0,0,0-2.36,2.72c-.19.3-.38.61-.58.91-.21-.06-.42-.1-.63-.15a19.4,19.4,0,0,1-2.19-.6,5.35,5.35,0,0,1-3.71-3.71,3.83,3.83,0,0,1,1.44-3.58c.76-.67,1.49-1.36,2.22-2.06C229.17,194.52,232,191.82,235.69,190.53ZM342.82,76a59.06,59.06,0,0,1,7.45,10c.67,1.07,1.35,2.14,2.05,3.2A61.57,61.57,0,0,1,356.74,97a28.27,28.27,0,0,1,2.52,8.91,11.72,11.72,0,0,1-3-4.1l-.11-.21c-1.93-3.58-3.92-7.28-7.16-10.07a.74.74,0,0,0-1.05.09.76.76,0,0,0,.09,1.06c3,2.61,5,6.19,6.83,9.68l.09.17c1,1.93,2,3.75,4,5a.71.71,0,0,0,.39.12l.14,0c.57,5.26,1.61,10.71,4.84,15.23l.38.54a34.65,34.65,0,0,1,3.59,5.78c1.57,3.53,1.35,5.83-.8,7.91a3.32,3.32,0,0,1-.48.41,4.54,4.54,0,0,0-1.51,1.77c-2-2-3-4.48-4-7.07-.44-1.11-.9-2.25-1.43-3.34-1.65-3.37-3.18-6.89-4.65-10.29-3.24-7.46-6.58-15.18-11.53-22-7-9.54-14.52-13.6-23.76-12.8a12.1,12.1,0,0,1-3.68-.21,31.63,31.63,0,0,1,.57-5.37,14,14,0,0,0-.77-8.54c5.59-1.39,11.16-.7,17.51,2.16A25.32,25.32,0,0,0,337,73C339.11,73.65,341.14,74.27,342.82,76ZM319.47,64.38a4.39,4.39,0,0,1,.47.27,4.3,4.3,0,0,0,2.94.77c3.55-.4,7.3.5,11.49,2.75l.55.28c1.74.91,2.72,1.51,2.77,3.19l-.3-.09a26.28,26.28,0,0,1-3.06-1.08c-6.8-3.06-12.78-3.75-18.83-2.15l-.05,0a10.56,10.56,0,0,0-2.87-2.82C314.83,62.81,316.18,62.64,319.47,64.38ZM288,56.17c9.65.72,16.74,3.43,22.3,8.52a.78.78,0,0,0,.5.2.75.75,0,0,0,.51-.21c-.13.15-.26.3-.38.46s-.83,1.06-2.82.19a106.7,106.7,0,0,0-18-6A30.23,30.23,0,0,1,286,57.91l-1.52-.61A5.17,5.17,0,0,1,288,56.17Zm-66.3,58.13c1.07-2.54,2.08-4.94,3.72-6.67,5.94-6.32,7.67-14.14,9.18-21,2-9,7.17-16.16,15.83-21.83,6.65-4.33,14.36-5.41,21.82-6.45,1.58-.23,3.16-.45,4.73-.7,3-.48,5.63.58,8.38,1.69a31.19,31.19,0,0,0,4.36,1.53,105.21,105.21,0,0,1,17.8,5.89c1.94.85,3.2.53,4-.07h0c3.58,2.27,4.91,6.07,4,11.3a33.91,33.91,0,0,0-.6,5.2,18.91,18.91,0,0,1-4.9-2.81c-8.83-6.65-18.45-13.29-30.39-15.11-11.5-1.75-22.44.89-32.53,7.83-5.59,3.84-7.75,10.38-9.34,16.21-.37,1.37-.73,2.74-1.09,4.12-2,7.64-4,15.53-8.85,22.11-3.35,4.58-4.72,6.07-8.79,4.31,0,0,0,0,0,0A35.74,35.74,0,0,0,221.74,114.3Zm8.93,41.77c0,.75-.13,1.49-.23,2.28l-.06.49c-2.47-2.89-4.36-6-4.27-10.29.1-4.9-1.77-8.58-5.41-10.64a5.59,5.59,0,0,0,.07-2.55c.9.22,1.77.5,2.69.8a23.75,23.75,0,0,0,6,1.38,37.09,37.09,0,0,0,.53,10.34A43.2,43.2,0,0,1,230.67,156.07Zm0-20.68a.77.77,0,0,0-.35.66,14.39,14.39,0,0,1-3.33-.42c-1.06-.25-2.07-.58-3.07-.91s-2.08-.68-3.14-.93a.8.8,0,0,0-.46.05,3.65,3.65,0,0,0-.18-.41c-.44-.9-.91-1.8-1.38-2.68a1.29,1.29,0,0,0,.24-.05,6.29,6.29,0,0,0,1.38-.76,3.11,3.11,0,0,1,1.72-.73h.05c7.79,0,13.83-4.23,19.67-8.32l.55-.39a17.62,17.62,0,0,0,2.14-1.74c.41,5.65-3.18,9.26-6.92,12.48a24.25,24.25,0,0,1-4.63,2.9C232.21,134.53,231.43,135,230.67,135.39Zm54-32.15-2.63.29c-1.23.13-2.49.22-3.71.31a43.75,43.75,0,0,0-11.4,1.91c-10.78,3.81-16.64,10.26-18.44,20.3a15.29,15.29,0,0,1-5.58,9.46c-3.64,2.92-7.39,2.4-11.88,1.36v-.07h0a.75.75,0,0,0,.38-.1c.71-.43,1.48-.83,2.22-1.22a26.15,26.15,0,0,0,4.91-3.09c4-3.4,8.11-7.59,7.4-14.22a.76.76,0,0,0-.36-.56c2.29-2.68,3.58-6,4.1-10.62.79-6.8,3.74-12.21,8.32-15.21,4.35-2.84,9.9-3.37,15.66-1.51,8,2.6,13,6.59,15.48,12.5C287.66,102.9,286.16,103.07,284.69,103.24Zm19.74.29c-1.41-.15-2.84-.36-4.28-.57l-.77-.12a41.41,41.41,0,0,0-8.69-.19.86.86,0,0,0,0-.21c-3.49-8.54-11.1-11.86-16.52-13.61-6.18-2-12.2-1.41-16.92,1.68-5,3.25-8.15,9-9,16.3-.68,5.91-2.68,9.64-6.7,12.45l-.55.38c-5.9,4.15-11.49,8.06-18.82,8.06h-.06a4.44,4.44,0,0,0-2.53,1,5.53,5.53,0,0,1-1.06.61.65.65,0,0,0-.36.29l-.08-.15c-.3-.56-.6-1.12-.89-1.68a.8.8,0,0,0-.34-.32c-.91-2.43.11-4.37,1.39-6.36a.73.73,0,0,0,.23.16c3.05,1.32,5,1,6.76-.36a8.24,8.24,0,0,0,2.94.57,8.82,8.82,0,0,0,2.79-.49c5.54-1.9,9.48-5.64,12.4-11.79a47.13,47.13,0,0,0,3.28-11.43c.42-2.16.86-4.39,1.47-6.53,3.6-12.56,14.94-19.82,27.59-17.65C283,74.8,288.44,79.29,293.2,84c6.36,6.22,10.62,12.65,13,19.63,0,0,0,.08,0,.13C305.66,103.66,305.05,103.61,304.43,103.53Zm6.9.17a29.06,29.06,0,0,1-3.49.1.88.88,0,0,0,0-.17s0,0,0,0c-2.44-7.41-6.88-14.2-13.57-20.75-4.94-4.83-10.57-9.49-18.32-10.81-13.41-2.3-25.45,5.4-29.26,18.72-.63,2.19-1.08,4.47-1.5,6.65A46.59,46.59,0,0,1,242,108.49c-2.74,5.75-6.4,9.25-11.54,11a6.56,6.56,0,0,1-4,.18,40.31,40.31,0,0,0,2.55-3.25c5-6.82,7.08-14.86,9.1-22.63.35-1.37.71-2.75,1.08-4.11,1.52-5.57,3.57-11.81,8.73-15.36,9.77-6.73,20.36-9.27,31.47-7.58,11.61,1.77,21.06,8.3,29.74,14.83a19.5,19.5,0,0,0,5.79,3.19,17.81,17.81,0,0,0,1.55,6.56c1,2.15.75,4.38.49,6.75a21.55,21.55,0,0,0-.18,4.48c-.43.09-.86.2-1.28.33a23.24,23.24,0,0,1-4.17.81Zm34.95,29.81c-1.36-8.72-4.37-18.24-13-24.41-8-5.73-9.89-7.31-15-6.76a21.05,21.05,0,0,1,.19-4.09c.1-.9.19-1.8.22-2.7.57,0,1.14,0,1.71,0a11.89,11.89,0,0,1,4,.35c5.66,1.85,10.28,5.73,14.53,12.18a109.54,109.54,0,0,1,5.67,10.2,84.81,84.81,0,0,0,7.65,13,4.12,4.12,0,0,1,.41.64h0a12.63,12.63,0,0,1-6,1.44A.64.64,0,0,0,346.28,133.51ZM354,162.9a4.1,4.1,0,0,1-4.16,1.77c-1.82-.51-2.9-2.15-2.9-4.4,0-2.54-.08-5.13-.17-7.62-.13-3.58-.25-7.28-.08-10.89a41.41,41.41,0,0,0-.24-6.89.42.42,0,0,0,.16,0h.2a13.9,13.9,0,0,0,6.44-1.58,12,12,0,0,1,.54,4.2c-.18,4.34-.15,8.75-.12,13,0,2,0,4,0,5.93v.34c0,1.5,0,3.19,1.22,4.59A9.37,9.37,0,0,0,354,162.9Zm5.48-14a5.07,5.07,0,0,0-.5,4c.09.46.14.94.19,1.46a13.34,13.34,0,0,0,.4,2.37.74.74,0,0,0-.13.12,14,14,0,0,1-2.18,2.24c-.45.4-.91.8-1.35,1.24a5.35,5.35,0,0,1-.73-3.45v-.34c0-2,0-4,0-5.94,0-4.25-.06-8.64.12-12.94a11.38,11.38,0,0,0-1.86-7.22,84.53,84.53,0,0,1-7.51-12.8,109.67,109.67,0,0,0-5.75-10.35c-4.45-6.76-9.31-10.81-15.31-12.78a13.46,13.46,0,0,0-4.51-.43c-.56,0-1.11,0-1.67,0h0a9.6,9.6,0,0,0-.81-3.35,15.86,15.86,0,0,1-1.39-5.53,13.87,13.87,0,0,0,3.77.17c8.81-.77,15.72,3,22.44,12.19,4.84,6.64,8.16,14.28,11.35,21.67,1.48,3.42,3,7,4.68,10.35.51,1.05,1,2.16,1.39,3.23,1.21,3,2.47,6.14,5.36,8.54a2.8,2.8,0,0,1,.67,3.08,4,4,0,0,1-3.15,2.9A4.6,4.6,0,0,0,359.5,148.86Z"/><path class="cls-4" d="M138.29,134.73c-.83,2.85-3.53,11.7-5.62,13.1-2.23-.29-3.4,1.45-4.77,2.65-3.44,3-6,3.29-9.66.75s-6.71-3.89-11.15-.68c-6.61,4.79-22,2.34-30.88-5.75-5.37-4.88-7.91-10.8-7-18.37,5.13,1,16.82,7.57,18.64,8.14,2.6,4.51,6.63,6.4,13.19,5,11.52-2.43,19.17-19.91,8.63-29.79-2.73-2.56-6.67-2.73-9.9-4.54a164.39,164.39,0,0,1-15.32-9.72c1.24-.69,2.34-2,3.67-2.3,15.45-3.41,33.12,4.33,36.88,21.58,1.07,4.88,3.43,6.18,7.2,6.85,6.18,1.09,6.37,4.44,6,8.52-.13,1.31-.46,2.5.34,3.67Z"/><path class="cls-4" d="M142.85,122.12c-.76.41-.51.95-.55,1.65-.21,3.81.86,8-3.48,10.69A64.57,64.57,0,0,1,135,144.93c-2.39,4.7-3.75,9.92-8.37,13.28-1.13.82-3,1.16-3.21,3,0,0,42.42,47.85,91.13,70.66l15.05-14.69c4.59-8.56,3.65-17-.7-25.72-6.12-12.21-16-21.26-25.08-31a50.75,50.75,0,0,1-4.08-4.36c-7.43-10.28-18.87-14.8-29.4-20.62-7.7-4.26-15.52-8.3-23.16-12.67C147.14,122.85,144.12,121.46,142.85,122.12Z"/><path class="cls-4" d="M454.9,134.73c.83,2.85,3.53,11.7,5.62,13.1,2.23-.29,3.4,1.45,4.77,2.65,3.44,3,6,3.29,9.66.75s6.71-3.89,11.15-.68c6.61,4.79,22,2.34,30.88-5.75,5.37-4.88,7.91-10.8,7-18.37-5.13,1-16.83,7.57-18.64,8.14-2.6,4.51-6.63,6.4-13.19,5-11.52-2.43-19.17-19.91-8.63-29.79,2.73-2.56,6.67-2.73,9.9-4.54a165.72,165.72,0,0,0,15.32-9.72c-1.24-.69-2.34-2-3.67-2.3-15.45-3.41-33.12,4.33-36.88,21.58-1.07,4.88-3.43,6.18-7.2,6.85-6.18,1.09-6.37,4.44-6,8.52.13,1.31.46,2.5-.34,3.67Z"/><path class="cls-4" d="M450.34,122.12c.76.41.51.95.55,1.65.21,3.81-.86,8,3.48,10.69a64.57,64.57,0,0,0,3.86,10.47c2.39,4.7,3.75,9.92,8.37,13.28,1.13.82,3,1.16,3.2,3,0,0-42.41,47.85-91.12,70.66l-15.05-14.69c-4.59-8.56-3.65-17,.7-25.72,6.12-12.21,16-21.26,25.07-31a47.78,47.78,0,0,0,4.08-4.36c7.44-10.28,18.88-14.8,29.41-20.62,7.7-4.26,15.52-8.3,23.16-12.67C446.05,122.85,449.07,121.46,450.34,122.12Z"/><path class="cls-4" d="M497.64,205.59c-.95,2.8-3.77,11.62-2.68,14,2.24,1.12,2.27,3.24,2.81,5,1.36,4.53,3.56,6.29,8.48,6.45s8.53.91,10.71,6.2c3.23,7.88,18.9,15.21,32,14,7.89-.71,13.81-4,17.48-10.68-5.33-2.31-20.09-4-22.11-4.68-5.11,2.08-10,1.18-15.21-3.92-9.18-8.94-5.74-27.75,9.93-29.38,4.06-.42,7.8,1.83,11.87,2.31a198,198,0,0,0,20,1.39c-.73-1.31-1-3.05-2-4.08-12.23-12.12-33.2-16.54-47-4.83-3.92,3.31-6.89,2.94-10.77,1.2-6.36-2.86-8.55-.25-10.63,3.3-.66,1.14-1.08,2.3-2.52,2.77C497.93,204.73,497.82,205,497.64,205.59Z"/><path class="cls-4" d="M501,192.6c.47.79-.09,1.07-.48,1.67-2.08,3.22-5.63,6-3.2,10.77a58.83,58.83,0,0,0-2.73,10.83c-.61,5.26-2.48,10.32-.24,15.84.55,1.35,2.05,2.75,1.14,4.4,0,0-67.94,13.13-126.64,2.15l-5.08-21c.9-9.72,6.86-16,16.1-20.43,13-6.2,27.54-7.57,41.78-10a55.3,55.3,0,0,0,6.39-1.07c13-3.83,26.33-.57,39.56,1.08,9.67,1.2,19.33,2.66,29,3.74C496.6,190.59,500.23,191.3,501,192.6Z"/><path class="cls-4" d="M94.89,206.17c1,2.8,3.77,11.62,2.65,14-2.27,1.14-2.32,3.26-2.87,5.07-1.4,4.54-3.63,6.31-8.62,6.5s-8.65,1-10.88,6.26c-3.31,7.9-19.22,15.31-32.46,14.19-8-.68-14-3.92-17.67-10.63,5.41-2.33,20.38-4.13,22.43-4.78,5.17,2.06,10.1,1.14,15.42-4,9.34-9,6-27.82-9.93-29.38-4.11-.41-7.91,1.86-12,2.37-6.77.82-13.51,1.33-20.26,1.48.74-1.32,1-3.06,2-4.1,12.45-12.2,33.72-16.71,47.69-5,4,3.3,7,2.91,10.91,1.15,6.46-2.89,8.67-.29,10.75,3.25.67,1.14,1.09,2.31,2.54,2.77C94.59,205.31,94.71,205.62,94.89,206.17Z"/><path class="cls-4" d="M91.55,193.17c-.48.8.09,1.08.47,1.68,2.1,3.21,5.68,6,3.2,10.77a57.25,57.25,0,0,1,2.72,10.83c.59,5.27,2.47,10.32.17,15.86-.56,1.36-2.09,2.76-1.17,4.42,0,0,68.78,12.84,128.31,1.58l5.24-21.08c-.87-9.73-6.88-16-16.22-20.39-13.14-6.15-27.87-7.45-42.3-9.79a56.48,56.48,0,0,1-6.46-1c-13.2-3.79-26.68-.47-40.09,1.24-9.81,1.26-19.6,2.76-29.41,3.88C96,191.14,92.33,191.87,91.55,193.17Z"/><path class="cls-4" d="M203.83,349.54c-2.21-10.87,4.33-37.59,7.6-49.43,4.9-17.73,11.46-47.65,15.23-65.62,1.2-5.76,3-11.39,3.21-17.4.16-4.27,8.55-10,13.62-10.09,6.45-.07,12.9,0,19.35,0q41.93,0,83.86,0c7.06,0,15.35,5.21,16.68,11.19,2.32,10.4,4.11,20.91,6.11,31.38,1.59,8.31,3,16.66,4.78,24.93,1.93,8.79,4.86,17.4,6.27,26.26,2.53,15.94,8.2,31.6,4.69,48.79H203.83Z"/><path class="cls-9" d="M369.75,280.18c-.79-1-1.59-.67-2.48-.1-1.83,1.15-3.67,2.28-5.54,3.37-1.34.78-2.05.67-2.47-1.07-.61-2.48-.23-3.94,2.59-4.95,2.16-.78,4-2.39,5.95-3.66.7-.45,1.12-1,.5-1.87s-1.41-.77-2.26-.23q-2.73,1.74-5.52,3.4c-1.46.88-2.4.79-3.2-1-1.51-3.3-1.64-3.25,1.91-4.75,5.6-2.35,7.84-9.59,4.56-15.14-1.12,1.94-1.17,4-1.37,6-.37,3.79-2.14,6.2-6.21,7.36A247.34,247.34,0,0,1,325,273.81c-6.09.89-12.21,1.58-18.32,2.39a6.37,6.37,0,0,1-6.27-2.34,28,28,0,0,1-3.31-5.07c-.7-1.37-1.36-1.38-2,0a25.48,25.48,0,0,1-3.34,5,5.89,5.89,0,0,1-5.5,2.38c-15.58-1.75-31.09-3.88-46.31-7.58-1.53-.36-3-1-4.54-1.33-3.72-.88-5.23-3.27-5.57-6.66-.22-2.13-.71-4.21-1.15-6.73-1.76,1.85-1.73,3.71-1.74,5.53,0,5.74,2,8.55,7.7,10.49,1.79.61,2.46.93,1,2.74-2.68,3.3-2.61,3.43-6.38,1-1.1-.69-2.16-1.43-3.24-2.15a1.45,1.45,0,0,0-2.24.35c-.64.89-.05,1.39.61,1.85a35.79,35.79,0,0,0,7.36,4.36c1.4.55,1.89,4.77.7,5.61-.6.43-1.19,0-1.73-.2a34.14,34.14,0,0,1-5.8-3.45c-.85-.55-1.7-1-2.51,0s.13,1.62.89,2.16c2.25,1.59,4.46,3.28,7.18,4.12a2.2,2.2,0,0,1,1.8,2.63c-.81,5.56,2.44,8.8,7.17,11.27a54,54,0,0,0,11.43,4.51c2.84.73,4.69,2.12,5.56,5,.93,3.08,2.33,6.11,5.39,8,.84.53.48,1,.18,1.68-2.65,5.8-1.79,11.13,2.6,15.91.59.64.91,1.13.32,1.92-1.74,2.38-1.86,5.16-1.83,7.86V349h66v-3.78c0-2.6-.09-5.33-1.72-7.65-.59-.85-.41-1.43.27-2.17,4.44-4.8,5-10.18,2.44-15.93a1.09,1.09,0,0,1,.45-1.65c2.9-1.93,4.29-4.87,5.17-7.88s2.7-4.27,5.53-5a52.68,52.68,0,0,0,13.22-5.54c3.77-2.23,5.85-5.23,5.47-9.45-.19-2.08.64-3.15,2.74-3.83,2.43-.8,4.38-2.44,6.44-3.86C369.8,281.69,370.51,281.17,369.75,280.18ZM264.5,330.56c-1.36-2.87-1.08-5.79-.45-8.72.39-1.82,1.93-2.48,3.73-2.56,7.11-.35,14.22-.72,21.33-.94,4.24-.13,5.54,1.44,5.14,5.48a19.89,19.89,0,0,0,.05,3.7c.31,3.51-1.91,6.06-5.68,6.31-4.12.27-8.23.79-12.37.65a41.82,41.82,0,0,0-5,0C267.76,334.94,265.81,333.33,264.5,330.56Zm29.81,11.15a14.61,14.61,0,0,0-.13,2.47c.12,3,.88,3.14-3.42,3.12H280.19c-3.79,0-7.58,0-11.37,0-.94,0-1.94.14-2.57-.85-1.89-2.95.93-8.61,4.53-8.78,6.42-.31,12.84-.81,19.28-.65C293.57,337.09,294.75,338.44,294.31,341.71Zm.08-43.89a57.8,57.8,0,0,0-.09,11.39,5.14,5.14,0,0,1-4.95,5.82c-6.06.47-12.13.76-18.19,1.13,0-.06,0-.11,0-.17h-1.06c-7.92,0-9.61-1.24-11.42-8.63a16.38,16.38,0,0,1-.28-5.67c.31-3,2.2-4.77,5.18-5.61a128.43,128.43,0,0,1,19.68-3.64,31.39,31.39,0,0,1,6.05-.47C293.42,292.29,294.83,294,294.39,297.82Zm26.2,49.48h-9c-3.88,0-7.76-.05-11.64,0-1.85,0-2.66-.56-2.15-2.36a9.27,9.27,0,0,0-.16-3.67c-.32-2.75.84-4.12,3.76-4.23,6.79-.27,13.56.31,20.33.64,2.58.13,3.86,1.63,4.12,4C326.46,347.22,326.41,347.3,320.59,347.3Zm7.84-19.11c-.73,4.44-3.25,6.35-8.05,6.29-1.49,0-3,0-4.48,0-4.15.14-8.26-.38-12.38-.65-3.83-.25-6.31-3-5.81-6.52a15.22,15.22,0,0,0,0-4.42c-.36-2.57.52-3.57,3.17-4.29,2-.53,3.85-.05,5.76,0,5.54.19,11.07.41,16.6.6,3.75.13,5,1.26,5.28,4.77A19,19,0,0,1,328.43,328.19Zm2.88-15.57a5.73,5.73,0,0,1-6.09,3.41c-1.49-.13-3,0-4.49,0-6-.24-12-.3-17.94-1-3.19-.35-5.51-2.9-5.11-5.81a44.34,44.34,0,0,0,0-11.1c-.51-4.49,1.2-6.38,6.11-6.13a109.89,109.89,0,0,1,24.91,4.18c3.68,1.06,5.07,3.28,5.18,6.94A18.68,18.68,0,0,1,331.31,312.62Zm22.76-16.41a38.16,38.16,0,0,1-10.56,5c-3.83,1.1-5.88.26-7.8-3a9.61,9.61,0,0,0-5.74-4.5,131,131,0,0,0-25.14-4.46,12.08,12.08,0,0,0-7.35,1.56,2.53,2.53,0,0,1-2.9,0,13.08,13.08,0,0,0-8.4-1.52,150.34,150.34,0,0,0-22.84,4c-3.36.9-6,2.65-7.41,5.83-.91,2-3.61,3-6.34,2.35a35.64,35.64,0,0,1-12-5.59c-2.75-2-2.51-4.84-2.36-7.5a62.8,62.8,0,0,1,1.46-11c1-4,3.25-5.62,7.63-4.75,10.35,2.09,20.74,3.86,31.22,5.18,3.41.42,6.81.88,10.23,1.17,5.06.45,8-2.35,10.31-6.64,1.79,3.49,4,6,7.84,6.6,2.4.39,4.75-.23,7.09-.49,12-1.35,23.9-3.14,35.68-5.64,5.71-1.22,7.78.28,8.92,5.78a62.64,62.64,0,0,1,1.09,12.81A5.44,5.44,0,0,1,354.07,296.21Z"/><path class="cls-9" d="M358.38,220.23c-7.35-4.36-15.34-3.15-23.09-2.89A295.16,295.16,0,0,0,304,220.12c-3.06.44-5.94.82-7.27,4-.48,1.15-1.26.64-1.59-.22-.94-2.45-3-3.29-5.53-3.61a340.88,340.88,0,0,0-40.52-3.17c-5.31-.06-10.57.08-15.34,3.13.6-2.12,1.62-3,4.65-3.88,6.6-1.8,13.39-1.95,20.18-1.7,10.13.38,20.19,1.46,30.23,2.74,2.58.33,4.94,1.93,7.25,1.92s4.67-1.59,7.25-1.92c10-1.31,20.1-2.32,30.22-2.75A81,81,0,0,1,352.2,216a10.54,10.54,0,0,1,5,2.17C357.78,218.62,358.59,219.07,358.38,220.23Z"/><path class="cls-9" d="M227.7,335.94c-1.19-.77-.74-1.94-.8-2.94-.31-5.44-.57-10.88-.84-16.32-.2-4.11-2.44-7.33-5.15-10.35-.86-.95-1.68-1.92-2.5-2.89-.51-.6-1-1.21-.2-1.93a1.47,1.47,0,0,1,2.28.15c4.44,4.59,8.4,9.38,8.67,16a102.38,102.38,0,0,1-.52,16.33A2.25,2.25,0,0,1,227.7,335.94Z"/><path class="cls-9" d="M364.33,336c-1.23-1.22-.88-2.8-1-4.18a80.45,80.45,0,0,1-.08-16.05c.51-6,4.71-10,8.41-14.24a1.39,1.39,0,0,1,2.07-.18c.83.59.78,1.21.17,1.9-1,1.14-2,2.33-3,3.44a18,18,0,0,0-5.07,12.66c-.07,4.7-.32,9.4-.52,14.09C365.22,334.34,365.46,335.32,364.33,336Z"/><path class="cls-10" d="M263,349v-3.74"/><polyline class="cls-10" points="329.05 354.17 329.05 348.97 329.05 345.19 329.05 339.99"/><path class="cls-11" d="M317.21,172.35H276.8a2.5,2.5,0,0,1,0-5h40.41a2.5,2.5,0,0,1,0,5Z"/></g></g></svg>