<svg xmlns="http://www.w3.org/2000/svg" width="14.279" height="18" viewBox="0 0 14.279 18">
  <defs>
    <style>
      .cls-1 {
        fill: #181615;
      }
    </style>
  </defs>
  <g id="Artwork_22" data-name="Artwork 22" transform="translate(7.14 9)">
    <g id="Group_50" data-name="Group 50" transform="translate(-7.14 -9)">
      <path id="Path_27" data-name="Path 27" class="cls-1" d="M32.327,106.414a1.947,1.947,0,0,1-2.87,1.326,1.912,1.912,0,0,1-.281-.194v.025c0,.024,0,.047,0,.071h0c0,.086,0,.172-.009.256,0,0,0,0,0,.007a.012.012,0,0,1,0,0c-.006.089-.014.178-.025.266a5.066,5.066,0,0,1-1.319,2.856,5.08,5.08,0,0,1-1.356-3.46v-.024a1.946,1.946,0,0,1-3.151-1.133,1.947,1.947,0,0,0,3.182-1.088,1.923,1.923,0,0,1,.409-.263,1.881,1.881,0,0,1,.283-.108,1.945,1.945,0,0,1,2.01.574,1.947,1.947,0,0,0,3.13.885Z" transform="translate(-20.681 -93.031)"/>
      <path id="Path_28" data-name="Path 28" class="cls-1" d="M14.28,8.948a3.142,3.142,0,0,1-.672,1.944,1.946,1.946,0,0,0-1.669-1.926,1.912,1.912,0,0,0-.277-.02,1.94,1.94,0,0,0-1.336.531,2.01,2.01,0,0,0-.145.153,1.957,1.957,0,0,0-.231.337c-.009.016-.017.033-.025.049a1.927,1.927,0,0,1,.192-.035,1.2,1.2,0,0,1-.186,2.391h-.05a.738.738,0,0,0,.176-.38.655.655,0,0,0,.007-.083c0-.008,0-.017,0-.026a.744.744,0,0,0-.743-.743.732.732,0,0,0-.18.022.721.721,0,0,0-.153.056l-.024.01a3,3,0,0,1-.224-.236l-.05-.06a3.135,3.135,0,0,1-.452-.749,3.1,3.1,0,0,1-.193-.628,3.143,3.143,0,0,1-.059-.608q0-.11.008-.218a5.087,5.087,0,0,1-.853.5,5.1,5.1,0,0,1-.853-.5c.005.072.008.144.008.218a3.131,3.131,0,0,1-.7,1.985c-.016.02-.033.04-.05.06a3.124,3.124,0,0,1-.223.236l-.024-.01a.68.68,0,0,0-.153-.056.741.741,0,0,0-.614.118.741.741,0,0,0-.309.6c0,.009,0,.017,0,.026a.644.644,0,0,0,.007.083h0a.738.738,0,0,0,.176.38H4.35a1.2,1.2,0,0,1-.185-2.391,1.923,1.923,0,0,1,.192.035c-.008-.017-.017-.033-.025-.049A1.957,1.957,0,0,0,4.1,9.632a2.032,2.032,0,0,0-.145-.153,1.941,1.941,0,0,0-1.336-.531,1.915,1.915,0,0,0-.277.02A1.945,1.945,0,0,0,.672,10.892,3.148,3.148,0,0,1,4.405,6.063,5.1,5.1,0,0,1,7.14,0,5.1,5.1,0,0,1,9.874,6.063,3.147,3.147,0,0,1,14.28,8.948Z"/>
    </g>
  </g>
</svg>
