<svg xmlns="http://www.w3.org/2000/svg" viewBox="0 0 654.1 824.53"><defs><style>.cls-1{fill:#181615;}</style></defs><g id="Layer_2" data-name="Layer 2"><g id="Layer_1-2" data-name="Layer 1"><path class="cls-1" d="M533.48,613.05A89.17,89.17,0,0,1,402,673.81a86,86,0,0,1-12.88-8.89v1.13c0,1.08,0,2.16,0,3.24h-.05c-.08,3.94-.22,7.87-.41,11.74,0,.1,0,.21,0,.3a.44.44,0,0,1,0,.16c-.27,4.1-.64,8.17-1.14,12.2a232.07,232.07,0,0,1-60.44,130.84,232.85,232.85,0,0,1-62.11-158.48v-1.11a89.15,89.15,0,0,1-144.33-51.89,89.18,89.18,0,0,0,145.76-49.82,89,89,0,0,1,101-9.13,89.81,89.81,0,0,1,22.75,18.41,89.17,89.17,0,0,0,143.37,40.54"/><path class="cls-1" d="M654.1,409.9A143.92,143.92,0,0,1,623.32,499,89.15,89.15,0,0,0,473,434.16a92.19,92.19,0,0,0-6.66,7,88.83,88.83,0,0,0-10.6,15.45c-.4.75-.79,1.49-1.16,2.26a87.85,87.85,0,0,1,8.79-1.62,55.09,55.09,0,0,1-8.51,109.53c-.77,0-1.53,0-2.31-.06a33.82,33.82,0,0,0,8.08-17.42,30.12,30.12,0,0,0,.33-3.82c0-.39,0-.79,0-1.18a34.08,34.08,0,0,0-34-34,34.08,34.08,0,0,0-15.23,3.61,11.11,11.11,0,0,0-1.08.44,136.18,136.18,0,0,1-10.26-10.81q-1.15-1.35-2.28-2.73a143.66,143.66,0,0,1-32.27-90.9c0-3.35.11-6.68.35-10A232.16,232.16,0,0,1,327.05,423,232.64,232.64,0,0,1,288,399.93c.24,3.29.35,6.62.35,10A143.4,143.4,0,0,1,256,500.8c-.73.92-1.49,1.84-2.29,2.75a141,141,0,0,1-10.23,10.8c-.36-.17-.73-.31-1.1-.45a30.75,30.75,0,0,0-7-2.59,33.31,33.31,0,0,0-8.23-1,34.08,34.08,0,0,0-34.05,34c0,.39,0,.79,0,1.19a29.49,29.49,0,0,0,.33,3.79v0a33.82,33.82,0,0,0,8.08,17.42c-.78,0-1.54.06-2.32.06a55.09,55.09,0,0,1-8.48-109.53,88.52,88.52,0,0,1,8.77,1.62c-.37-.77-.77-1.51-1.16-2.26a89.39,89.39,0,0,0-10.6-15.45,90.39,90.39,0,0,0-6.67-7A89.13,89.13,0,0,0,30.77,498.91a144.19,144.19,0,0,1,171-221.18A233.62,233.62,0,0,1,327.05,0,233.57,233.57,0,0,1,452.31,277.73,144.16,144.16,0,0,1,654.1,409.9"/></g></g></svg>