<svg xmlns="http://www.w3.org/2000/svg" viewBox="0 0 126.39 159.32"><defs><style>.cls-1{fill:#181615;}</style></defs><g id="Layer_2" data-name="Layer 2"><g id="Layer_1-2" data-name="Layer 1"><path class="cls-1" d="M103.08,118.46a17.23,17.23,0,0,1-25.4,11.74,17.78,17.78,0,0,1-2.49-1.72v.84h0c0,.76,0,1.52-.08,2.27v.06a0,0,0,0,1,0,0c0,.79-.12,1.58-.22,2.36A44.83,44.83,0,0,1,63.2,159.32a44.91,44.91,0,0,1-11.5-23.84,46,46,0,0,1-.51-6.78v-.22a17,17,0,0,1-3.56,2.28,17.24,17.24,0,0,1-24.33-12.3,17.23,17.23,0,0,0,28.17-9.63,16.91,16.91,0,0,1,3.62-2.32,15.37,15.37,0,0,1,2.5-1,17,17,0,0,1,4.91-.71,17.17,17.17,0,0,1,6.66,1.33,16.2,16.2,0,0,1,1.82.9,17.38,17.38,0,0,1,4.4,3.55,17.23,17.23,0,0,0,27.7,7.84"/><path class="cls-1" d="M126.39,79.2A27.62,27.62,0,0,1,123,92.44a26.86,26.86,0,0,1-2.6,4,17.21,17.21,0,0,0-14.77-17,18,18,0,0,0-2.45-.17,17.2,17.2,0,0,0-11.83,4.7,18.48,18.48,0,0,0-1.29,1.36,17.59,17.59,0,0,0-2,3c-.07.14-.15.28-.22.43a15.91,15.91,0,0,1,1.7-.31,10.65,10.65,0,0,1,9,10.52,10.68,10.68,0,0,1-7.15,10.06,10.6,10.6,0,0,1-3.49.58h-.45A6.61,6.61,0,0,0,89,106.14a4.4,4.4,0,0,0,.06-.73,1.85,1.85,0,0,0,0-.23,6.59,6.59,0,0,0-6.58-6.58,6.41,6.41,0,0,0-1.59.2,6.24,6.24,0,0,0-1.35.5l-.21.08a25.9,25.9,0,0,1-2-2.08c-.15-.18-.3-.35-.44-.53a27.59,27.59,0,0,1-4-6.63,27.18,27.18,0,0,1-1.71-5.56,28,28,0,0,1-.52-5.38c0-.64,0-1.29.07-1.93a45.14,45.14,0,0,1-7.56,4.47,45.4,45.4,0,0,1-7.55-4.46c0,.63.07,1.28.07,1.92a28,28,0,0,1-.52,5.38,27.56,27.56,0,0,1-5.72,12.19c-.14.18-.29.35-.44.53a27.83,27.83,0,0,1-2,2.09,1.89,1.89,0,0,0-.21-.09,5.92,5.92,0,0,0-1.35-.5,6.41,6.41,0,0,0-1.59-.2,6.59,6.59,0,0,0-6.58,6.58v.23a5.82,5.82,0,0,0,.07.73h0A6.45,6.45,0,0,0,39,109.51H38.5a10.47,10.47,0,0,1-7.07-2.69,10.53,10.53,0,0,1-2.92-4.26,10.77,10.77,0,0,1-.65-3.69,10.65,10.65,0,0,1,9-10.52,16.38,16.38,0,0,1,1.7.31c-.07-.15-.15-.29-.23-.43a17,17,0,0,0-2-3A16.46,16.46,0,0,0,35,83.89a17.2,17.2,0,0,0-11.83-4.7,18,18,0,0,0-2.45.17A17.23,17.23,0,0,0,6,96.4,27.85,27.85,0,0,1,39,53.67,45.16,45.16,0,0,1,63.19,0,45.15,45.15,0,0,1,87.4,53.67a27.85,27.85,0,0,1,39,25.53"/></g></g></svg>