<svg xmlns="http://www.w3.org/2000/svg" viewBox="0 0 126.44 159.38"><g id="Layer_2" data-name="Layer 2"><g id="colors"><path d="M103.12,118.5a17.24,17.24,0,0,1-25.41,11.75,17.78,17.78,0,0,1-2.49-1.72v.84h0c0,.76,0,1.52-.08,2.27v.06a0,0,0,0,1,0,0c-.05.79-.12,1.58-.22,2.36a44.87,44.87,0,0,1-11.68,25.29,44.91,44.91,0,0,1-11.5-23.84,46.19,46.19,0,0,1-.51-6.79v-.22a17,17,0,0,1-3.56,2.28A17.25,17.25,0,0,1,23.31,118.5a17.24,17.24,0,0,0,28.18-9.63,16.91,16.91,0,0,1,3.62-2.32,15.73,15.73,0,0,1,2.5-1,17,17,0,0,1,4.91-.71,17.2,17.2,0,0,1,12.89,5.79,17.24,17.24,0,0,0,27.71,7.83Z" fill="#fff"/><path d="M126.44,79.23a27.66,27.66,0,0,1-3.35,13.25,28.25,28.25,0,0,1-2.6,4,17,17,0,0,0-1.3-6.55,17.23,17.23,0,0,0-13.48-10.5,16.53,16.53,0,0,0-2.45-.18,17.16,17.16,0,0,0-11.83,4.7,16.5,16.5,0,0,0-1.29,1.36,17,17,0,0,0-2,3l-.23.43c.56-.13,1.13-.23,1.7-.31a10.66,10.66,0,0,1,9,10.53,10.54,10.54,0,0,1-.66,3.69A10.68,10.68,0,0,1,95,106.87,10.86,10.86,0,0,1,91.42,109a10.66,10.66,0,0,1-3.5.58h-.45A6.45,6.45,0,0,0,89,106.18a5.82,5.82,0,0,0,.07-.73v-.23a6.59,6.59,0,0,0-6.58-6.58,6.41,6.41,0,0,0-1.59.2,5.75,5.75,0,0,0-1.35.5l-.21.08a24.45,24.45,0,0,1-2-2.09l-.45-.52a27.88,27.88,0,0,1-4-6.63,27,27,0,0,1-1.71-5.56,27.37,27.37,0,0,1-.52-5.39c0-.64,0-1.29.06-1.93a44.65,44.65,0,0,1-7.55,4.47,45.09,45.09,0,0,1-7.56-4.46c.05.63.07,1.28.07,1.92a28,28,0,0,1-.52,5.38,27.47,27.47,0,0,1-1.71,5.57,27.91,27.91,0,0,1-4,6.63l-.44.53a25.9,25.9,0,0,1-2,2.08l-.21-.08a5.92,5.92,0,0,0-1.35-.5,6.58,6.58,0,0,0-8.18,6.38,1.77,1.77,0,0,0,0,.23,5.83,5.83,0,0,0,.06.73h0A6.61,6.61,0,0,0,39,109.55h-.44A10.62,10.62,0,0,1,35,109a10.65,10.65,0,0,1-7.15-10.06,10.65,10.65,0,0,1,9-10.53c.58.08,1.15.18,1.7.31l-.22-.43a17.59,17.59,0,0,0-2.05-3c-.41-.47-.84-.93-1.29-1.36a17.2,17.2,0,0,0-11.83-4.7,16.53,16.53,0,0,0-2.45.18A17.21,17.21,0,0,0,6,96.44a26.76,26.76,0,0,1-2.6-4A27.87,27.87,0,0,1,39,53.69,45.13,45.13,0,0,1,63.22,0,45.13,45.13,0,0,1,87.43,53.69a27.88,27.88,0,0,1,39,25.54Z" fill="#fff"/></g></g></svg>