<svg xmlns="http://www.w3.org/2000/svg" width="50" height="62.826" viewBox="0 0 50 62.826">
  <g id="flowerblkburg" transform="translate(5491 2150)">
    <path id="flower-down" d="M62.82,145.461a6.773,6.773,0,0,1-3.84,4.884,6.862,6.862,0,0,1-6.236-.266,6.7,6.7,0,0,1-.978-.676v.324h0c0,.294-.03.588-.03.882h0c-.03.324-.059.618-.089.941a17.588,17.588,0,0,1-4.623,9.941,17.6,17.6,0,0,1-4.771-12.058v-.088a6.857,6.857,0,0,1-6.661,1.164A6.779,6.779,0,0,1,31.2,145.4a6.886,6.886,0,0,0,6.681,1.278,6.811,6.811,0,0,0,4.491-5.072,6.763,6.763,0,0,1,1.422-.912,6.669,6.669,0,0,1,.978-.382,6.894,6.894,0,0,1,4.593.235l.711.353a6.836,6.836,0,0,1,1.748,1.412A6.836,6.836,0,0,0,62.82,145.4" transform="translate(-5513.023 -2248.664)" fill="#0f0f0f"/>
    <path id="flower-up" d="M50.092,31.277a10.975,10.975,0,0,1-2.367,6.793,6.8,6.8,0,0,0-5.858-6.734l-.976-.059a6.811,6.811,0,0,0-4.674,1.861l-.5.532a6.821,6.821,0,0,0-.8,1.181l-.089.177.68-.118a4.194,4.194,0,0,1-.651,8.358h-.178a2.567,2.567,0,0,0,.592-1.329,2.27,2.27,0,0,0,.03-.3q0-.044,0-.089a2.6,2.6,0,0,0-2.6-2.6l-.621.089-.533.207h-.089a10.491,10.491,0,0,1-.769-.827l-.178-.207a10.954,10.954,0,0,1-1.6-2.629,10.8,10.8,0,0,1-.68-2.186,10.969,10.969,0,0,1-.207-2.126q0-.384.03-.768a17.787,17.787,0,0,1-2.988,1.772,17.846,17.846,0,0,1-2.988-1.772,6.413,6.413,0,0,1,.03.768,11.042,11.042,0,0,1-2.455,6.941l-.178.207-.769.827h-.089l-.533-.207-.621-.089a2.6,2.6,0,0,0-2.6,2.6v.089a2.27,2.27,0,0,0,.03.3h0a2.568,2.568,0,0,0,.621,1.329H15.33a4.194,4.194,0,0,1-.651-8.358l.68.118-.089-.177a6.822,6.822,0,0,0-.8-1.181l-.5-.532a6.811,6.811,0,0,0-4.733-1.861l-.976.059A6.8,6.8,0,0,0,2.431,38.1,11.022,11.022,0,0,1,15.508,21.206,17.829,17.829,0,0,1,25.063,0a17.829,17.829,0,0,1,9.585,21.206,11.033,11.033,0,0,1,15.443,10.1" transform="translate(-5491.092 -2150)" fill="#0f0f0f"/>
  </g>
</svg>
