<svg xmlns="http://www.w3.org/2000/svg" xmlns:xlink="http://www.w3.org/1999/xlink" width="80" height="80" viewBox="0 0 80 80">
  <defs>
    <clipPath id="clip-path">
      <rect id="Rectangle_70" data-name="Rectangle 70" width="80" height="80" fill="none"/>
    </clipPath>
  </defs>
  <g id="logoblk80" clip-path="url(#clip-path)">
    <path id="Tracé_27" data-name="Tracé 27" d="M60.486,53.357c-.571-.571-3,.5-4.714,1.857,0-.571.286-3.286.286-6.357h0a3.214,3.214,0,0,0-1.786-.571,3.143,3.143,0,0,0-2.429,1v4.071A7.214,7.214,0,0,1,55.7,55.143c-1.143.857-2,1.857-2,2.714,0-.643-.714-1.143-1.857-1.571h-.571l-2.5-.571c.071,8.357.357,10,1.857,10.286a5.929,5.929,0,0,1-4.786-3.5s-.643,2.357-4.286,2.357c1.714,0,2.357-4.643,2.571-9.071-3.571.5-6.857,2.071-7.429,5.214.5-3.5,3.786-5.929,7.5-7.143.071-3.071,0-5.571,0-5.571-1.643-.571-3.429-.071-4.429,2.143C39.771,46.5,44.2,45,44.2,45V38.643c0-3.714-4.143-2.286-4.357-2.214s1-2.143,4.357-2.143,3.929,2.143,3.929,2.143.857-1.643,2.214-1.643c-1.429,2.071-1.571,3.286-1.571,13.929v4.429a14.214,14.214,0,0,1,2.5.143V36c.071-1.143.214-2.357.286-3.5.143,1.143.214,2.357.286,3.5v2.714h0v5.571a3.143,3.143,0,0,0,2.286,1,3.071,3.071,0,0,0,1.571-.429c-.429-3.286-1.5-6.071-3.857-6.071h0c1.071-.071,4.643-2.214,4.643-5.071,0,2.929,2.143,5.071,4,5.071a59.215,59.215,0,0,0,0,14.571" transform="translate(-10.486 -9.286)"/>
    <path id="Tracé_28" data-name="Tracé 28" d="M27.686,91.7,25.9,94.057l.714.571a.643.643,0,0,0,.714.071,4.071,4.071,0,0,0,.786-.857,3.357,3.357,0,0,0,.5-.929.643.643,0,0,0-.214-.643Z" transform="translate(-7.4 -26.2)"/>
    <path id="Tracé_29" data-name="Tracé 29" d="M39.129,91.857l-.786-.357L37.2,93.929l.857.357a.429.429,0,0,0,.5-.143,3.143,3.143,0,0,0,.5-.786l.357-.857a.571.571,0,0,0-.286-.643" transform="translate(-10.629 -26.143)"/>
    <path id="Tracé_30" data-name="Tracé 30" d="M45.6,98.871l.357-3.071c.071-.571.286-1.5.286-1.5l-.5,1.5L44.6,98.657Z" transform="translate(-12.743 -26.943)"/>
    <path id="Tracé_31" data-name="Tracé 31" d="M31.643,88.9a3.143,3.143,0,0,0,.5-.929.5.5,0,0,0-.214-.571l-.714-.5L29.5,89.186l.786.571a.451.451,0,0,0,.5-.071,3.572,3.572,0,0,0,.786-.857" transform="translate(-8.429 -24.829)"/>
    <path id="Tracé_32" data-name="Tracé 32" d="M68.8,15.586c.214-.357.929-2.643,1.143-3.143A25.289,25.289,0,0,0,70.657,9.8a.643.643,0,0,0-.5-.786L69.443,8.8,67.3,15.657l.786.214a.571.571,0,0,0,.786-.286" transform="translate(-19.229 -2.514)"/>
    <path id="Tracé_33" data-name="Tracé 33" d="M14.6,29.9l1.286.929,2.286,2,.571-.857-2.786-1.286L14.6,29.9" transform="translate(-4.171 -8.543)"/>
    <path id="Tracé_34" data-name="Tracé 34" d="M30.129,16.214,29.2,15l.786,1.357,1.286,2.786.857-.571-2-2.286" transform="translate(-8.343 -4.286)"/>
    <path id="Tracé_35" data-name="Tracé 35" d="M12.829,38.614l-.929-.429L10.757,37.9a.571.571,0,0,0-.571.429l-.286.714,2.929,1.071.286-.643c.143-.429.071-.643-.214-.786" transform="translate(-2.829 -10.828)"/>
    <path id="Tracé_36" data-name="Tracé 36" d="M63.3,95.292a.643.643,0,0,0-.786-.5l-.714.143,1.143,7.071.786-.143a.571.571,0,0,0,.571-.643c0-.429-.357-2.786-.429-3.286a25,25,0,0,0-.571-2.643" transform="translate(-17.657 -27.078)"/>
    <path id="Tracé_37" data-name="Tracé 37" d="M79.36,32.787A40,40,0,1,0,47.217,79.358,40,40,0,0,0,79.36,32.787M71.575,20.573c.857,1.429.571,2.429-.143,3L69.86,24.644l-1-1.571,1.071-.714a.725.725,0,0,0-.786-1.214,23.428,23.428,0,0,0-2.571,1.429,18.641,18.641,0,0,0-2.286,1.786.714.714,0,0,0-.214,1,.786.786,0,0,0,1.071.286l1.571-1-.571-.857,1.5-.929,1.5,2.357L66.289,27l-2,1.286-.714-1.143.357-.286a1.929,1.929,0,0,1-1.286-1,2.071,2.071,0,0,1,.286-2.714,17.571,17.571,0,0,1,2.786-2.071A16.143,16.143,0,0,1,68.86,19.43a2.357,2.357,0,0,1,2.786,1.214m-2.929-4-7.786,6.714-1.286-1.5,7.714-6.714Zm-4.643-4.786a2.214,2.214,0,0,1,.571,3.214L64,15.93l-1.357-1.143.5-.643a.643.643,0,0,0-.143-1,.643.643,0,0,0-1.071.143,2.357,2.357,0,0,0-.357,2l.143,1.286a3.571,3.571,0,0,1-.857,3.143A2.357,2.357,0,0,1,57.289,20c-1.214-1.071-1.5-2.143-.786-3.071L57.289,16l1.357,1.143-.571.714a.643.643,0,0,0,.214.929.714.714,0,0,0,1.071-.143,2.357,2.357,0,0,0,.5-2.143l-.143-1.214a3.286,3.286,0,0,1,.786-3.071A2.357,2.357,0,0,1,64.075,12M60.217,9.144l-.929,1.429L57,9.287,55.789,11.43l2.143,1.214-.786,1.429L55,12.858l-1.286,2.286,2.357,1.286-.857,1.5-4-2.214,5-9ZM48.932,4.216l2.5.786a2.214,2.214,0,0,1,1.714,1.5c.214.643-.286,2.429-.786,3.929s-1.143,3.5-1.786,4a1.929,1.929,0,0,1-2.071.357l-2.714-.857Zm-10.5,2.143.643.143a2.929,2.929,0,0,1,1.5-3.286A2.929,2.929,0,0,1,42.146,6.5l.714-.143a1.857,1.857,0,0,1,1.429,2.929,1.143,1.143,0,0,0-2.143-.571.715.715,0,0,1-.071,1.429.429.429,0,0,0,.143-.286h0A.429.429,0,0,0,42,9.5h-.5V9.358a1.786,1.786,0,0,1-.429-1.143l-.357.214-.357-.214a1.786,1.786,0,0,1-.429,1.143V9.5h-.5a.429.429,0,0,0-.214.357h0l.143.286a.715.715,0,1,1-.071-1.429,1.143,1.143,0,0,0-2.143.571,1.857,1.857,0,0,1,1.429-2.929m3.643,5.214a.929.929,0,0,1-.643-.214,2.143,2.143,0,0,1-.786,1.857A2.143,2.143,0,0,1,40,11.358a.96.96,0,0,1-1.5-1.143c0,.571.286.786.643.786a1,1,0,0,0,.786-1,1.214,1.214,0,0,1,1.429,0,1,1,0,0,0,1,.929c.286,0,.643-.214.643-.786a.929.929,0,0,1-.857,1.357m-15-5.929,3.214,5.714-.929-6.429,2.286-.786,3.357,9.714-1.643.571-2.071-6,1,6.357-1.571.571L27.646,9.716l2.071,6-1.643.571L24.789,6.43Zm-6.071,3L28,16.287l-1.571,1L24.789,15.43l-1.143.786L24.717,18.5l-1.571,1L18.932,10Zm-7.786,6.286L18,17.216l-3.571-3.5,1.214-1.286L23,19.644,21.789,20.93,17,18.5l3.643,3.571-1.214,1.286-7.357-7.214ZM9.717,19.287l9.5,4.143-1,1.643L15.932,24l-.714,1.214,1.929,1.643-1,1.571L8.36,21.5Zm.5,32.143a1.143,1.143,0,0,0,1.429.714A1.857,1.857,0,0,1,8.289,51a2.929,2.929,0,0,1-3.643-.429,2.929,2.929,0,0,1,1.643-2.214l1.071-.286A1.786,1.786,0,0,1,7,47.5,1.857,1.857,0,0,1,9.36,45.216,1.143,1.143,0,0,0,9.5,47.43a.714.714,0,1,1,1.357-.357H10.5a.429.429,0,0,0-.286.571l.143.214V48a1.786,1.786,0,0,1-1,.786l.357.286-.143.429a1.786,1.786,0,0,1,1.214.071h.143a.429.429,0,0,0,0,.286l.143.214a.429.429,0,0,0,.429.071h.071l.214-.214a.714.714,0,1,1-1.286.5,1.143,1.143,0,0,0-.286,1.143M12.717,49a.929.929,0,0,1,.429.571c.214.714-.429,1.5-1.071,1.286.571-.143.643-.5.571-.786a1,1,0,0,0-1.214-.643A1.214,1.214,0,0,1,11,48.073a1,1,0,0,0,.571-1.214c-.071-.286-.357-.5-.929-.357a.986.986,0,0,1,1.571,1.071,2.143,2.143,0,0,1,2,.214,2.143,2.143,0,0,1-1.5,1.286m1.714-15.857L4.86,29.358,5.932,26.5a2,2,0,0,1,1.286-1.357,4.214,4.214,0,0,1,2.5.429,3.806,3.806,0,0,1,2.071,1.357,2.214,2.214,0,0,1,.071,1.857L11.5,29.858l3.643,1.357ZM35.717,16.358a24,24,0,1,1-15.472,9.949,24,24,0,0,1,15.472-9.949m-15.071,54a2.094,2.094,0,0,1-2-.643L16.217,67.93l6.143-8.214,2.571,1.929a1.786,1.786,0,0,1,.929,1.643,3.5,3.5,0,0,1-.714,1.571,4.429,4.429,0,0,1-1.357,1.286,1.143,1.143,0,0,1-1.143,0,1.286,1.286,0,0,1,.429,1.214A4.214,4.214,0,0,1,22.217,69a3.786,3.786,0,0,1-1.571,1.429m6.786,4.214-1.786-.786.857-4.286-.571-.286-1.786,3.857-1.714-.786,4.286-9.286L29.5,64.287a1.857,1.857,0,0,1,1.214,1.571,4.714,4.714,0,0,1-.5,2,4.929,4.929,0,0,1-.929,1.5,1.357,1.357,0,0,1-.929.429Zm6.786,1.786L32.36,76l.286-2.5-1.357-.357L30.36,75.5,28.5,75.073,32.646,65.5l2.571.643Zm6.571.429H39l-1.357-5.214-.286,5.143H35.646l.571-10.214H38l1.357,5.071.286-5H41.36ZM48.217,75A1.929,1.929,0,0,1,46.5,76.287l-2.857.5L42,66.573l2.643-.429a2.214,2.214,0,0,1,2.214.571c.5.5.857,2.286,1.071,3.857s.5,3.643.214,4.357m2.214.357-3-9.714L49.217,65l3.143,9.786Zm7.071-2.857-3.786-3.857,2.286,4.571-1.571.786-4.5-9.071,1.571-.786,3.714,3.714-2.286-4.5,1.571-.786,4.643,9.143Zm6.714-4.571-.357-.286A1.929,1.929,0,0,1,62.932,69a2.071,2.071,0,0,1-2.786,0,17.428,17.428,0,0,1-2.286-2.5,16.071,16.071,0,0,1-2-2.929,2.357,2.357,0,0,1,.857-2.929c1.286-1,2.286-.857,3-.214A11.143,11.143,0,0,1,61,61.858L59.575,63l-.857-1a.686.686,0,0,0-1.071.857,23.213,23.213,0,0,0,1.714,2.429A18.856,18.856,0,0,0,61.289,67.5a.714.714,0,0,0,1,.071.786.786,0,0,0,.143-1.143l-1.214-1.5-.786.643-1-1.286L61.646,62.5l2.143,2.643L65.289,67Zm2.643-18.5a.929.929,0,0,1,.357-.571,2.143,2.143,0,0,1-1.571-1.214,2.143,2.143,0,0,1,2-.286.954.954,0,0,1,1.5-1.143c-.571-.143-.786.071-.857.357a1,1,0,0,0,.643,1.214,1.214,1.214,0,0,1-.357,1.357,1,1,0,0,0-1.143.714c-.071.286,0,.643.571.786a.913.913,0,0,1-1.071-1.214m5.857,1.786-1-.357a1.786,1.786,0,0,1-.071.714,1.857,1.857,0,0,1-3.214.643A1.143,1.143,0,0,0,69.5,50.216a.714.714,0,1,1-1.357-.429L68.36,50h.071a.429.429,0,0,0,.429-.143L69,49.644a.429.429,0,0,0,0-.286h.143a1.786,1.786,0,0,1,1.214-.143l-.143-.429.357-.286a1.786,1.786,0,0,1-1-.714v-.143l.143-.214a.407.407,0,0,0-.286-.5h-.357a.714.714,0,1,1,1.357.286,1.143,1.143,0,0,0,0-2.214,1.857,1.857,0,0,1,2.214,2.786L73.717,48a2.929,2.929,0,0,1,1.714,2.143,2.929,2.929,0,0,1-2.571.929m-6.714-17.5-.571-1.643,4.286-3.214L65,30.358l-.571-1.643,9.643-3.429L74.646,27l-4.214,3.214L75.146,28.5l.571,1.643Z" transform="translate(-0.003 -0.001)"/>
  </g>
</svg>
