<svg xmlns="http://www.w3.org/2000/svg" xmlns:xlink="http://www.w3.org/1999/xlink" width="60" height="60" viewBox="0 0 60 60">
  <defs>
    <clipPath id="clip-path">
      <rect id="Rectangle_71" data-name="Rectangle 71" width="60" height="60" fill="none"/>
    </clipPath>
  </defs>
  <g id="logoblk60" clip-path="url(#clip-path)">
    <path id="Tracé_38" data-name="Tracé 38" d="M54.539,48.143c-.429-.429-2.25.375-3.536,1.393,0-.429.214-2.464.214-4.768h0a2.411,2.411,0,0,0-1.339-.429,2.357,2.357,0,0,0-1.821.75v3.054a5.411,5.411,0,0,1,2.893,1.339c-.857.643-1.5,1.393-1.5,2.036,0-.482-.536-.857-1.393-1.179h-.429l-1.875-.429c.054,6.268.268,7.5,1.393,7.714A4.446,4.446,0,0,1,43.557,55s-.482,1.768-3.214,1.768c1.286,0,1.768-3.482,1.929-6.8-2.679.375-5.143,1.554-5.571,3.911.375-2.625,2.839-4.446,5.625-5.357.054-2.3,0-4.179,0-4.179A2.549,2.549,0,0,0,39,45.946c0-2.946,3.321-4.071,3.321-4.071V37.107c0-2.786-3.107-1.714-3.268-1.661s.75-1.607,3.268-1.607,2.946,1.607,2.946,1.607.643-1.232,1.661-1.232c-1.071,1.554-1.179,2.464-1.179,10.446v3.321a10.66,10.66,0,0,1,1.875.107V35.125c.054-.857.161-1.768.214-2.625.107.857.161,1.768.214,2.625v2.036h0v4.179a2.357,2.357,0,0,0,1.714.75,2.3,2.3,0,0,0,1.179-.321c-.321-2.464-1.125-4.554-2.893-4.554h0c.8-.054,3.482-1.661,3.482-3.8,0,2.2,1.607,3.8,3,3.8a44.411,44.411,0,0,0,0,10.929" transform="translate(-17.039 -15.089)"/>
    <path id="Tracé_39" data-name="Tracé 39" d="M27.239,91.7,25.9,93.468l.536.429a.482.482,0,0,0,.536.054,3.053,3.053,0,0,0,.589-.643,2.518,2.518,0,0,0,.375-.7.482.482,0,0,0-.161-.482Z" transform="translate(-12.025 -42.575)"/>
    <path id="Tracé_40" data-name="Tracé 40" d="M38.646,91.768l-.589-.268L37.2,93.321l.643.268a.321.321,0,0,0,.375-.107,2.357,2.357,0,0,0,.375-.589l.268-.643a.429.429,0,0,0-.214-.482" transform="translate(-17.271 -42.482)"/>
    <path id="Tracé_41" data-name="Tracé 41" d="M45.35,97.729l.268-2.3c.054-.429.214-1.125.214-1.125l-.375,1.125L44.6,97.568Z" transform="translate(-20.707 -43.782)"/>
    <path id="Tracé_42" data-name="Tracé 42" d="M31.107,88.4a2.357,2.357,0,0,0,.375-.7.375.375,0,0,0-.161-.429l-.536-.375L29.5,88.614l.589.429a.338.338,0,0,0,.375-.054,2.678,2.678,0,0,0,.589-.643" transform="translate(-13.696 -40.346)"/>
    <path id="Tracé_43" data-name="Tracé 43" d="M68.425,13.889c.161-.268.7-1.982.857-2.357a18.968,18.968,0,0,0,.536-1.982.482.482,0,0,0-.375-.589L68.907,8.8,67.3,13.943l.589.161a.429.429,0,0,0,.589-.214" transform="translate(-31.246 -4.086)"/>
    <path id="Tracé_44" data-name="Tracé 44" d="M14.6,29.9l.964.7,1.714,1.5.429-.643-2.089-.964L14.6,29.9" transform="translate(-6.779 -13.882)"/>
    <path id="Tracé_45" data-name="Tracé 45" d="M29.9,15.911,29.2,15l.589,1.018.964,2.089.643-.429-1.5-1.714" transform="translate(-13.557 -6.964)"/>
    <path id="Tracé_46" data-name="Tracé 46" d="M12.1,38.436l-.7-.321-.857-.214a.429.429,0,0,0-.429.321l-.214.536,2.2.8.214-.482c.107-.321.054-.482-.161-.589" transform="translate(-4.596 -17.596)"/>
    <path id="Tracé_47" data-name="Tracé 47" d="M62.925,95.163a.482.482,0,0,0-.589-.375l-.536.107.857,5.3.589-.107a.429.429,0,0,0,.429-.482c0-.321-.268-2.089-.321-2.464a18.753,18.753,0,0,0-.429-1.982" transform="translate(-28.693 -44.002)"/>
    <path id="Tracé_48" data-name="Tracé 48" d="M59.523,24.591A30,30,0,1,0,35.416,59.52,30,30,0,0,0,59.523,24.591m-5.839-9.161c.643,1.071.429,1.821-.107,2.25l-1.179.8-.75-1.179.8-.536a.544.544,0,0,0-.589-.911,17.571,17.571,0,0,0-1.929,1.071,13.981,13.981,0,0,0-1.714,1.339.536.536,0,0,0-.161.75.589.589,0,0,0,.8.214l1.179-.75-.429-.643,1.125-.7,1.125,1.768-2.143,1.339-1.5.964-.536-.857.268-.214a1.446,1.446,0,0,1-.964-.75,1.554,1.554,0,0,1,.214-2.036,13.178,13.178,0,0,1,2.089-1.554,12.107,12.107,0,0,1,2.357-1.232,1.768,1.768,0,0,1,2.089.911m-2.2-3L45.7,17.52,44.737,16.4l5.786-5.036ZM48.059,8.9a1.661,1.661,0,0,1,.429,2.411l-.482.643-1.018-.857.375-.482a.482.482,0,0,0-.107-.75.482.482,0,0,0-.8.107,1.768,1.768,0,0,0-.268,1.5l.107.964a2.679,2.679,0,0,1-.643,2.357A1.768,1.768,0,0,1,42.969,15c-.911-.8-1.125-1.607-.589-2.3l.589-.7,1.018.857-.429.536a.482.482,0,0,0,.161.7.536.536,0,0,0,.8-.107,1.768,1.768,0,0,0,.375-1.607l-.107-.911a2.464,2.464,0,0,1,.589-2.3A1.768,1.768,0,0,1,48.059,9M45.166,6.859l-.7,1.071-1.714-.964-.911,1.607,1.607.911-.589,1.071-1.607-.911-.964,1.714,1.768.964-.643,1.125-3-1.661,3.75-6.75ZM36.7,3.163l1.875.589a1.661,1.661,0,0,1,1.286,1.125,7.364,7.364,0,0,1-.589,2.946,8.8,8.8,0,0,1-1.339,3,1.446,1.446,0,0,1-1.554.268l-2.036-.643ZM28.827,4.77l.482.107a2.2,2.2,0,0,1,1.125-2.464,2.2,2.2,0,0,1,1.179,2.464l.536-.107a1.393,1.393,0,0,1,1.071,2.2.857.857,0,0,0-1.607-.429.536.536,0,0,1-.054,1.071.321.321,0,0,0,.107-.214h0a.321.321,0,0,0-.161-.268H31.13V7.02a1.339,1.339,0,0,1-.321-.857l-.268.161-.268-.161a1.339,1.339,0,0,1-.321.857v.107h-.375a.321.321,0,0,0-.161.268h0l.107.214a.536.536,0,1,1-.054-1.071.857.857,0,0,0-1.607.429,1.393,1.393,0,0,1,1.071-2.2m2.732,3.911a.7.7,0,0,1-.482-.161,1.607,1.607,0,0,1-.589,1.393,1.607,1.607,0,0,1-.589-1.393.72.72,0,0,1-1.125-.857c0,.429.214.589.482.589a.75.75,0,0,0,.589-.75.911.911,0,0,1,1.071,0,.75.75,0,0,0,.75.7c.214,0,.482-.161.482-.589a.7.7,0,0,1-.643,1.018M20.362,4.181l2.411,4.286-.7-4.821,1.714-.589,2.518,7.286-1.232.429-1.554-4.5.75,4.768-1.179.429L20.737,7.288l1.554,4.5-1.232.429L18.594,4.824Zm-4.554,2.25,5.2,5.786-1.179.75-1.232-1.393-.857.589.8,1.714-1.179.75L14.2,7.5ZM9.969,11.145l3.536,1.768-2.679-2.625.911-.964,5.518,5.411-.911.964-3.589-1.821,2.732,2.679-.911.964L9.059,12.109ZM7.291,14.466l7.125,3.107-.75,1.232L11.952,18l-.536.911,1.446,1.232-.75,1.179-5.839-5.2Zm.375,24.107a.857.857,0,0,0,1.071.536,1.393,1.393,0,0,1-2.518-.857,2.2,2.2,0,0,1-2.732-.321A2.2,2.2,0,0,1,4.719,36.27l.8-.214a1.339,1.339,0,0,1-.268-.429,1.393,1.393,0,0,1,1.768-1.714.857.857,0,0,0,.107,1.661.536.536,0,1,1,1.018-.268H7.88a.321.321,0,0,0-.214.429l.107.161V36a1.339,1.339,0,0,1-.75.589l.268.214-.107.321a1.339,1.339,0,0,1,.911.054H8.2a.321.321,0,0,0,0,.214l.107.161a.321.321,0,0,0,.321.054h.054l.161-.161a.536.536,0,1,1-.964.375.857.857,0,0,0-.214.857m1.875-1.929a.7.7,0,0,1,.321.429c.161.536-.321,1.125-.8.964.429-.107.482-.375.429-.589a.75.75,0,0,0-.911-.482.911.911,0,0,1-.321-1.018.75.75,0,0,0,.429-.911c-.054-.214-.268-.375-.7-.268a.739.739,0,0,1,1.179.8,1.607,1.607,0,0,1,1.5.161,1.607,1.607,0,0,1-1.125.964m1.286-11.893L3.648,22.02l.8-2.143a1.5,1.5,0,0,1,.964-1.018,3.161,3.161,0,0,1,1.875.321A2.854,2.854,0,0,1,8.844,20.2,1.661,1.661,0,0,1,8.9,21.591l-.268.8,2.732,1.018ZM26.791,12.27a18,18,0,1,1-11.6,7.461,18,18,0,0,1,11.6-7.461m-11.3,40.5a1.571,1.571,0,0,1-1.5-.482l-1.821-1.339,4.607-6.161L18.7,46.234a1.339,1.339,0,0,1,.7,1.232,2.625,2.625,0,0,1-.536,1.179,3.321,3.321,0,0,1-1.018.964.857.857,0,0,1-.857,0,.964.964,0,0,1,.321.911,3.161,3.161,0,0,1-.643,1.232,2.839,2.839,0,0,1-1.179,1.071m5.089,3.161L19.237,55.4l.643-3.214-.429-.214-1.339,2.893-1.286-.589,3.214-6.964,2.089.911a1.393,1.393,0,0,1,.911,1.179,3.536,3.536,0,0,1-.375,1.5,3.7,3.7,0,0,1-.7,1.125,1.018,1.018,0,0,1-.7.321Zm5.089,1.339L24.273,57l.214-1.875-1.018-.268-.7,1.768-1.393-.321,3.107-7.179,1.929.482Zm4.929.321H29.255l-1.018-3.911-.214,3.857H26.737l.429-7.661h1.339l1.018,3.8.214-3.75h1.286Zm5.571-1.393a1.446,1.446,0,0,1-1.286.964l-2.143.375-1.232-7.661,1.982-.321a1.661,1.661,0,0,1,1.661.429,6.984,6.984,0,0,1,.8,2.893,10.233,10.233,0,0,1,.161,3.268m1.661.268-2.25-7.286,1.393-.429,2.357,7.339Zm5.3-2.143-2.839-2.893,1.714,3.429-1.179.589-3.375-6.8,1.179-.589,2.786,2.786-1.714-3.375,1.179-.589,3.482,6.857ZM48.112,50.9l-.268-.214a1.446,1.446,0,0,1-.643,1.071,1.554,1.554,0,0,1-2.089,0A13.071,13.071,0,0,1,43.4,49.877a12.053,12.053,0,0,1-1.5-2.2,1.768,1.768,0,0,1,.643-2.2c.964-.75,1.714-.643,2.25-.161a8.357,8.357,0,0,1,.964,1.071l-1.071.857-.643-.75a.515.515,0,0,0-.8.643,17.409,17.409,0,0,0,1.286,1.821,14.142,14.142,0,0,0,1.446,1.661.536.536,0,0,0,.75.054.589.589,0,0,0,.107-.857L45.916,48.7l-.589.482-.75-.964,1.661-1.339,1.607,1.982,1.125,1.393ZM50.094,37.02a.7.7,0,0,1,.268-.429,1.607,1.607,0,0,1-1.179-.911,1.607,1.607,0,0,1,1.5-.214.715.715,0,0,1,1.125-.857c-.429-.107-.589.054-.643.268a.75.75,0,0,0,.482.911.911.911,0,0,1-.268,1.018.75.75,0,0,0-.857.536c-.054.214,0,.482.429.589a.684.684,0,0,1-.8-.911m4.393,1.339-.75-.268a1.339,1.339,0,0,1-.054.536,1.393,1.393,0,0,1-2.411.482.857.857,0,0,0,.8-1.446.536.536,0,1,1-1.018-.321l.161.161h.054a.321.321,0,0,0,.321-.107l.107-.161a.321.321,0,0,0,0-.214h.107a1.339,1.339,0,0,1,.911-.107l-.107-.321.268-.214a1.339,1.339,0,0,1-.75-.536v-.107l.107-.161a.305.305,0,0,0-.214-.375h-.268a.536.536,0,1,1,1.018.214.857.857,0,0,0,0-1.661,1.393,1.393,0,0,1,1.661,2.089l.8.161a2.2,2.2,0,0,1,1.286,1.607,2.2,2.2,0,0,1-1.929.7M49.612,25.181l-.429-1.232L52.4,21.538,48.755,22.77l-.429-1.232,7.232-2.571.429,1.286-3.161,2.411,3.536-1.286.429,1.232Z" transform="translate(-0.005 -0.002)"/>
  </g>
</svg>
