<svg xmlns="http://www.w3.org/2000/svg" xmlns:xlink="http://www.w3.org/1999/xlink" width="1830" height="1830" viewBox="0 0 1830 1830">
  <defs>
    <clipPath id="clip-path">
      <rect id="Rectangle_70" data-name="Rectangle 70" width="1830" height="1830" fill="none"/>
    </clipPath>
  </defs>
  <g id="Artwork_15" data-name="Artwork 15" transform="translate(915 915)">
    <g id="Groupe_48" data-name="Groupe 48" transform="translate(-915 -915)" clip-path="url(#clip-path)">
      <path id="Tracé_23" data-name="Tracé 23" d="M580.8,509.607c-13.072-13.071-68.625,11.438-107.839,42.482,0-13.071,6.536-75.161,6.536-145.42h0A75.16,75.16,0,0,0,438.646,393.6a71.893,71.893,0,0,0-55.554,22.875v93.134a165.026,165.026,0,0,1,88.232,40.848c-26.143,19.607-45.75,42.482-45.75,62.089,0-14.705-16.339-26.143-42.482-35.946H370.022l-57.188-13.072c1.634,191.17,8.17,228.75,42.482,235.286A135.616,135.616,0,0,1,245.843,718.75s-14.705,53.92-98.036,53.92c39.214,0,53.92-106.205,58.821-207.509C124.932,576.6,49.771,612.545,36.7,684.438c11.438-80.062,86.6-135.616,171.562-163.393,1.634-70.259,0-127.446,0-127.446-37.58-13.071-78.429-1.634-101.3,49.018,0-89.866,101.3-124.179,101.3-124.179V173.018c0-84.964-94.768-52.286-99.67-50.652s22.875-49.018,99.67-49.018,89.866,49.018,89.866,49.018,19.607-37.58,50.652-37.58C316.1,132.17,312.834,159.946,312.834,403.4v101.3a325.159,325.159,0,0,1,57.187,3.268V112.563c1.634-26.143,4.9-53.92,6.536-80.063,3.268,26.143,4.9,53.92,6.536,80.063v62.089h0V302.1a71.893,71.893,0,0,0,52.286,22.875,70.259,70.259,0,0,0,35.946-9.8c-9.8-75.161-34.312-138.884-88.232-138.884h0C407.6,174.652,489.3,125.634,489.3,60.277c0,66.991,49.018,116.009,91.5,116.009a1354.535,1354.535,0,0,0,0,333.321" transform="translate(562.952 498.527)" fill="#faa800"/>
      <path id="Tracé_24" data-name="Tracé 24" d="M66.748,91.7,25.9,145.62l16.339,13.072a14.706,14.706,0,0,0,16.339,1.634,93.132,93.132,0,0,0,17.973-19.607,76.8,76.8,0,0,0,11.437-21.241,14.7,14.7,0,0,0-4.9-14.705Z" transform="translate(397.287 1406.612)" fill="#faa800"/>
      <path id="Tracé_25" data-name="Tracé 25" d="M81.316,99.67,63.343,91.5,37.2,147.054l19.607,8.17a9.8,9.8,0,0,0,11.438-3.268,71.9,71.9,0,0,0,11.437-17.973l8.17-19.607A13.071,13.071,0,0,0,81.316,99.67" transform="translate(570.621 1403.545)" fill="#faa800"/>
      <path id="Tracé_26" data-name="Tracé 26" d="M67.475,198.871l8.17-70.259C77.279,115.541,82.18,94.3,82.18,94.3L70.743,128.612,44.6,193.97Z" transform="translate(684.132 1446.495)" fill="#faa800"/>
      <path id="Tracé_27" data-name="Tracé 27" d="M78.518,132.65a71.892,71.892,0,0,0,11.438-21.241,11.438,11.438,0,0,0-4.9-13.072L68.714,86.9,29.5,139.186l17.973,13.071c3.268,1.634,6.536,1.634,11.438-1.634a81.7,81.7,0,0,0,17.973-19.607" transform="translate(452.509 1332.984)" fill="#faa800"/>
      <path id="Tracé_28" data-name="Tracé 28" d="M101.613,164.023c4.9-8.17,21.241-60.455,26.143-71.893a578.462,578.462,0,0,0,16.339-60.455A14.705,14.705,0,0,0,132.657,13.7L116.318,8.8,67.3,165.657l17.973,4.9a13.072,13.072,0,0,0,17.973-6.536" transform="translate(1032.334 134.986)" fill="#faa800"/>
      <path id="Tracé_29" data-name="Tracé 29" d="M14.6,29.9,44.011,51.141,96.3,96.891l13.071-19.607L45.645,47.873,14.6,29.9" transform="translate(223.954 458.645)" fill="#faa800"/>
      <path id="Tracé_30" data-name="Tracé 30" d="M50.441,42.777,29.2,15,47.173,46.045l29.411,63.723L96.191,96.7,50.441,44.411" transform="translate(447.907 230.089)" fill="#faa800"/>
      <path id="Tracé_31" data-name="Tracé 31" d="M76.891,54.245l-21.241-9.8L29.507,37.906a13.071,13.071,0,0,0-13.071,9.8L9.9,64.049,76.891,88.558l6.536-14.705c3.268-9.8,1.634-14.705-4.9-17.973" transform="translate(151.859 581.353)" fill="#faa800"/>
      <path id="Tracé_32" data-name="Tracé 32" d="M96.112,106.644A14.7,14.7,0,0,0,78.139,95.207L61.8,98.475,87.943,260.234l17.973-3.268a13.072,13.072,0,0,0,13.071-14.705c0-9.8-8.17-63.723-9.8-75.161a571.969,571.969,0,0,0-13.071-60.455" transform="translate(947.968 1453.757)" fill="#faa800"/>
      <path id="Tracé_33" data-name="Tracé 33" d="M1815.123,749.9C1723.864,252.947,1247.074-75.974,750.1,15.178S-75.9,583.049,15.149,1080.042s567.693,826.119,1064.706,735.181c497.315-90.994,826.583-568.066,735.268-1065.322m-178.1-279.4c19.607,32.679,13.072,55.554-3.268,68.625l-35.946,24.509-22.875-35.946,24.509-16.339a16.58,16.58,0,0,0-17.973-27.777,535.914,535.914,0,0,0-58.822,32.678,426.432,426.432,0,0,0-52.286,40.848,16.339,16.339,0,0,0-4.9,22.875,17.973,17.973,0,0,0,24.509,6.536l35.946-22.875-13.072-19.607,34.313-21.241,34.313,53.92-65.357,40.848-45.75,29.411-16.339-26.143,8.17-6.536a44.116,44.116,0,0,1-29.411-22.875,47.384,47.384,0,0,1,6.536-62.089,401.931,401.931,0,0,1,63.723-47.384,369.268,369.268,0,0,1,71.893-37.58,53.92,53.92,0,0,1,63.723,27.777m-66.991-91.5-178.1,153.589-29.411-34.312,176.464-153.589ZM1465.462,271.16a50.652,50.652,0,0,1,13.072,73.527l-14.706,19.607-31.045-26.143,11.438-14.705a14.705,14.705,0,0,0-3.268-22.875,14.705,14.705,0,0,0-24.509,3.268,53.92,53.92,0,0,0-8.17,45.75L1411.542,379a81.7,81.7,0,0,1-19.607,71.893,53.92,53.92,0,0,1-81.7,6.536c-27.777-24.509-34.312-49.018-17.973-70.259l17.973-21.241,31.045,26.143-13.072,16.339a14.705,14.705,0,0,0,4.9,21.241,16.339,16.339,0,0,0,24.509-3.268,53.92,53.92,0,0,0,11.438-49.018l-3.268-27.777a75.161,75.161,0,0,1,17.973-70.259,53.92,53.92,0,0,1,81.7-4.9m-88.232-65.357-21.241,32.679L1303.7,212.339l-27.777,49.018,49.018,27.777-17.973,32.679-49.018-27.777-29.411,52.286,53.92,29.411-19.607,34.313-91.5-50.652L1285.73,153.517ZM1119.069,96.33l57.188,17.973a50.652,50.652,0,0,1,39.214,34.313c4.9,14.705-6.536,55.554-17.973,89.866s-26.143,80.063-40.848,91.5a44.116,44.116,0,0,1-47.384,8.17l-62.089-19.607ZM878.881,145.348l14.705,3.268A66.991,66.991,0,0,1,927.9,73.455a66.991,66.991,0,0,1,35.947,75.161l14.705-3.268a42.482,42.482,0,0,1,32.678,66.991,26.143,26.143,0,0,0-49.018-13.071,16.36,16.36,0,0,1-1.634,32.679l3.268-6.536h0a9.8,9.8,0,0,0-4.9-8.17H947.507v-3.268a40.848,40.848,0,0,1-9.8-26.143l-8.17,4.9-8.17-4.9a40.848,40.848,0,0,1-9.8,26.143v3.268H900.123a9.8,9.8,0,0,0-4.9,8.17h0a9.8,9.8,0,0,0,3.268,6.536,16.36,16.36,0,1,1-1.634-32.679,26.143,26.143,0,0,0-49.018,13.071,42.482,42.482,0,0,1,32.679-66.991m83.33,119.277a21.241,21.241,0,0,1-14.705-4.9A49.018,49.018,0,0,1,931.167,302.2a49.018,49.018,0,0,1-17.973-42.482,21.961,21.961,0,0,1-34.312-26.143c0,13.071,6.536,17.973,14.705,17.973a22.875,22.875,0,0,0,19.607-22.875,27.777,27.777,0,0,1,32.679,0,22.875,22.875,0,0,0,22.875,21.241c6.536,0,14.705-4.9,14.705-17.973a21.241,21.241,0,0,1-19.607,31.045M620.721,127.374l73.527,130.714L673.006,111.035l52.286-17.973,76.795,222.214-37.58,13.071L717.123,191.1,740,336.517l-35.946,13.071L632.158,222.142l47.384,137.25-37.58,13.071L566.8,146.982ZM481.837,196,640.328,372.464l-35.946,22.875L566.8,352.857,540.658,370.83l24.509,52.286L529.221,445.99l-96.4-217.313Zm-178.1,143.786L411.578,393.7l-81.7-80.062,27.777-29.411L525.953,449.258l-27.777,29.411L388.7,423.115l83.33,81.7-27.777,29.411L275.962,369.2Zm-81.7,101.3,217.313,94.768-22.875,37.58-52.286-24.509L347.855,576.7l44.116,37.58L369.1,650.232,191,491.74Zm11.438,735.268a26.143,26.143,0,0,0,32.679,16.339,42.149,42.149,0,0,1-76.795-27.777,66.991,66.991,0,0,1-83.33-9.8,66.991,66.991,0,0,1,37.58-50.652l24.509-6.536a42.482,42.482,0,0,1,47.384-65.357,26.143,26.143,0,0,0,3.268,50.652,16.339,16.339,0,1,1,31.045-8.17h-8.17a9.315,9.315,0,0,0-6.536,11.438l3.268,4.9v3.268a40.848,40.848,0,0,1-22.875,17.973l8.17,6.536-3.268,9.8a40.849,40.849,0,0,1,27.777,1.634h3.268a9.8,9.8,0,0,0,0,6.536l3.268,4.9a9.8,9.8,0,0,0,9.8,1.634h1.634l4.9-4.9a16.339,16.339,0,1,1-29.411,11.437,26.143,26.143,0,0,0-6.536,26.143m57.187-58.822a21.241,21.241,0,0,1,9.8,13.071c4.9,16.339-9.8,34.313-24.509,29.411,13.071-3.268,14.705-11.437,13.071-17.973a22.875,22.875,0,0,0-27.777-14.705,27.777,27.777,0,0,1-9.8-31.045,22.875,22.875,0,0,0,13.071-27.777c-1.634-6.536-8.17-11.437-21.241-8.17a22.548,22.548,0,0,1,35.946,24.509,49.018,49.018,0,0,1,45.75,4.9,49.018,49.018,0,0,1-34.313,29.411m39.214-362.732-220.58-84.965,24.509-65.357a45.75,45.75,0,0,1,29.411-31.045,96.4,96.4,0,0,1,57.188,9.8c26.143,9.8,40.848,19.607,47.384,31.045A50.652,50.652,0,0,1,271.06,658.4l-8.17,24.509,83.33,31.045ZM816.792,374.1c298.241-53.7,583.588,144.4,637.522,442.6s-143.947,583.7-442.1,637.868S428.4,1311.077,374,1012.964A549,549,0,0,1,816.792,374.1M472.033,1609.348c-16.339,4.9-29.411-1.634-45.75-14.705l-55.554-40.848,140.518-187.9,58.821,44.116a40.848,40.848,0,0,1,21.241,37.58,80.063,80.063,0,0,1-16.339,35.947,101.3,101.3,0,0,1-31.045,29.411,26.142,26.142,0,0,1-26.143,0,29.411,29.411,0,0,1,9.8,27.777,96.4,96.4,0,0,1-19.607,37.58,86.6,86.6,0,0,1-35.946,32.678m155.223,96.4-40.848-17.973,19.607-98.036-13.071-6.536L552.1,1673.071,512.881,1655.1l98.036-212.411,63.723,27.777a42.482,42.482,0,0,1,27.777,35.946,107.839,107.839,0,0,1-11.437,45.75,112.743,112.743,0,0,1-21.241,34.313,31.044,31.044,0,0,1-21.241,9.8Zm155.223,40.848-42.482-9.8,6.536-57.187-31.045-8.17-21.241,53.92-42.482-9.8,94.768-218.946,58.821,14.705Zm150.321,9.8H891.953l-31.045-119.277L854.372,1756.4H815.158l13.071-233.652h40.848l31.045,116.009,6.536-114.375h39.214Zm169.929-42.482a44.116,44.116,0,0,1-39.214,29.411L998.158,1756.4l-37.58-233.652,60.455-9.8a50.652,50.652,0,0,1,50.652,13.072c11.438,11.438,19.607,52.286,24.509,88.232s11.438,83.33,4.9,99.67m50.652,8.17-68.625-222.214L1125.6,1486.8l71.893,223.848Zm161.759-65.357-86.6-88.232,52.286,104.572-35.946,17.973L1140.31,1483.535l35.946-17.973,84.964,84.964-52.286-102.937,35.946-17.973,106.205,209.143ZM1467.1,1552.16l-8.17-6.536a44.116,44.116,0,0,1-19.607,32.678,47.384,47.384,0,0,1-63.723,0,398.676,398.676,0,0,1-52.286-57.187,367.63,367.63,0,0,1-45.75-66.991,53.92,53.92,0,0,1,19.607-66.991c29.411-22.875,52.286-19.607,68.625-4.9a254.912,254.912,0,0,1,29.411,32.678l-32.679,26.143-19.607-22.875a15.7,15.7,0,0,0-24.509,19.607,531.015,531.015,0,0,0,39.214,55.554,431.352,431.352,0,0,0,44.116,50.651,16.339,16.339,0,0,0,22.875,1.634,17.973,17.973,0,0,0,3.268-26.143l-27.777-34.312-17.973,14.705-22.875-29.411,50.652-40.848,49.018,60.455,34.313,42.482Zm60.455-423.187a21.241,21.241,0,0,1,8.17-13.071,49.018,49.018,0,0,1-35.946-27.777,49.018,49.018,0,0,1,45.75-6.536,21.816,21.816,0,0,1,34.312-26.143c-13.071-3.268-17.973,1.634-21.241,8.17a22.875,22.875,0,0,0,14.705,27.777,27.777,27.777,0,0,1-8.17,31.045,22.875,22.875,0,0,0-26.143,16.339c-1.634,6.536,0,14.705,13.071,17.973-14.705,4.9-29.411-9.8-24.509-27.777m133.982,40.848-22.875-8.17a42.482,42.482,0,0,1-73.527,31.045,26.143,26.143,0,0,0,24.509-44.116,16.339,16.339,0,1,1-31.045-9.8l4.9,4.9h1.634a9.8,9.8,0,0,0,9.8-3.268l3.268-4.9a9.8,9.8,0,0,0,0-6.536h3.268a40.849,40.849,0,0,1,27.777-3.268l-3.268-9.8,8.17-6.536a40.848,40.848,0,0,1-22.875-16.339v-3.268l3.268-4.9a9.8,9.8,0,0,0-6.536-11.438h-8.17a16.339,16.339,0,1,1,31.045,6.536,26.143,26.143,0,0,0,0-50.652,42.482,42.482,0,0,1,50.652,63.723l24.509,4.9a66.991,66.991,0,0,1,39.214,49.018,66.991,66.991,0,0,1-58.821,21.241M1512.846,767.874l-13.071-37.58,98.036-73.527L1486.7,694.348l-13.071-37.58,220.58-78.429,13.072,39.214-96.4,73.527,107.839-39.214,13.072,37.58Z" transform="translate(0.172 0.072)" fill="#faa800"/>
    </g>
  </g>
</svg>
