<svg xmlns="http://www.w3.org/2000/svg" xmlns:xlink="http://www.w3.org/1999/xlink" width="120" height="120" viewBox="0 0 120 120">
  <defs>
    <style>
      .cls-1 {
        fill: none;
      }

      .cls-2 {
        clip-path: url(#clip-path);
      }

      .cls-3 {
        fill: #1a1818;
      }
    </style>
    <clipPath id="clip-path">
      <rect id="Rectangle_71" data-name="Rectangle 71" class="cls-1" width="120" height="120"/>
    </clipPath>
  </defs>
  <g id="Artwork_16" data-name="Artwork 16" transform="translate(60 60)">
    <g id="Groupe_49" data-name="Groupe 49" class="cls-2" transform="translate(-60 -60)">
      <path id="Tracé_34" data-name="Tracé 34" class="cls-3" d="M72.379,63.786c-.857-.857-4.5.75-7.071,2.786,0-.857.429-4.929.429-9.536h0a4.821,4.821,0,0,0-2.679-.857,4.714,4.714,0,0,0-3.643,1.5v6.107A10.822,10.822,0,0,1,65.2,66.464c-1.714,1.286-3,2.786-3,4.071,0-.964-1.071-1.714-2.786-2.357h-.857l-3.75-.857c.107,12.536.536,15,2.786,15.429a8.893,8.893,0,0,1-7.179-5.25s-.964,3.536-6.429,3.536c2.571,0,3.536-6.964,3.857-13.607-5.357.75-10.286,3.107-11.143,7.821.75-5.25,5.679-8.893,11.25-10.714.107-4.607,0-8.357,0-8.357-2.464-.857-5.143-.107-6.643,3.214,0-5.893,6.643-8.143,6.643-8.143V41.714c0-5.571-6.214-3.429-6.536-3.321s1.5-3.214,6.536-3.214,5.893,3.214,5.893,3.214,1.286-2.464,3.321-2.464c-2.143,3.107-2.357,4.929-2.357,20.893v6.643a21.322,21.322,0,0,1,3.75.214V37.75c.107-1.714.321-3.536.429-5.25.214,1.714.321,3.536.429,5.25v4.071h0v8.357a4.714,4.714,0,0,0,3.429,1.5,4.607,4.607,0,0,0,2.357-.643c-.643-4.929-2.25-9.107-5.786-9.107h0c1.607-.107,6.964-3.321,6.964-7.607,0,4.393,3.214,7.607,6,7.607a88.822,88.822,0,0,0,0,21.857" transform="translate(2.621 2.321)"/>
      <path id="Tracé_35" data-name="Tracé 35" class="cls-3" d="M28.579,91.7,25.9,95.236l1.071.857a.964.964,0,0,0,1.071.107,6.107,6.107,0,0,0,1.179-1.286,5.036,5.036,0,0,0,.75-1.393.964.964,0,0,0-.321-.964Z" transform="translate(1.85 6.55)"/>
      <path id="Tracé_36" data-name="Tracé 36" class="cls-3" d="M40.093,92.036,38.914,91.5,37.2,95.143l1.286.536a.643.643,0,0,0,.75-.214,4.715,4.715,0,0,0,.75-1.179L40.521,93a.857.857,0,0,0-.429-.964" transform="translate(2.657 6.536)"/>
      <path id="Tracé_37" data-name="Tracé 37" class="cls-3" d="M46.1,101.157l.536-4.607c.107-.857.429-2.25.429-2.25l-.75,2.25L44.6,100.836Z" transform="translate(3.186 6.736)"/>
      <path id="Tracé_38" data-name="Tracé 38" class="cls-3" d="M32.714,89.9a4.714,4.714,0,0,0,.75-1.393.75.75,0,0,0-.321-.857l-1.071-.75L29.5,90.329l1.179.857a.676.676,0,0,0,.75-.107,5.357,5.357,0,0,0,1.179-1.286" transform="translate(2.107 6.207)"/>
      <path id="Tracé_39" data-name="Tracé 39" class="cls-3" d="M69.55,18.979c.321-.536,1.393-3.964,1.714-4.714A37.931,37.931,0,0,0,72.336,10.3a.964.964,0,0,0-.75-1.179L70.514,8.8,67.3,19.086l1.179.321a.857.857,0,0,0,1.179-.429" transform="translate(4.807 0.629)"/>
      <path id="Tracé_40" data-name="Tracé 40" class="cls-3" d="M14.6,29.9l1.929,1.393,3.429,3,.857-1.286-4.179-1.929L14.6,29.9" transform="translate(1.043 2.136)"/>
      <path id="Tracé_41" data-name="Tracé 41" class="cls-3" d="M30.593,16.821,29.2,15l1.179,2.036,1.929,4.179,1.286-.857-3-3.429" transform="translate(2.086 1.071)"/>
      <path id="Tracé_42" data-name="Tracé 42" class="cls-3" d="M14.293,38.971,12.9,38.329,11.186,37.9a.857.857,0,0,0-.857.643L9.9,39.614l4.393,1.607.429-.964c.214-.643.107-.964-.321-1.179" transform="translate(0.707 2.707)"/>
      <path id="Tracé_43" data-name="Tracé 43" class="cls-3" d="M64.05,95.552a.964.964,0,0,0-1.179-.75l-1.071.214,1.714,10.607,1.179-.214a.857.857,0,0,0,.857-.964c0-.643-.536-4.179-.643-4.929a37.5,37.5,0,0,0-.857-3.964" transform="translate(4.414 6.77)"/>
      <path id="Tracé_44" data-name="Tracé 44" class="cls-3" d="M119.035,49.178a60,60,0,1,0-48.214,69.857,60,60,0,0,0,48.214-69.857M107.356,30.857c1.286,2.143.857,3.643-.214,4.5l-2.357,1.607-1.5-2.357,1.607-1.071a1.087,1.087,0,0,0-1.179-1.821,35.141,35.141,0,0,0-3.857,2.143,27.963,27.963,0,0,0-3.429,2.679,1.071,1.071,0,0,0-.321,1.5,1.179,1.179,0,0,0,1.607.429l2.357-1.5-.857-1.286,2.25-1.393,2.25,3.536L99.428,40.5l-3,1.929-1.071-1.714.536-.429a2.893,2.893,0,0,1-1.929-1.5,3.107,3.107,0,0,1,.429-4.071,26.356,26.356,0,0,1,4.179-3.107,24.214,24.214,0,0,1,4.714-2.464,3.536,3.536,0,0,1,4.179,1.821m-4.393-6L91.392,35.035l-1.929-2.25,11.571-10.071Zm-6.964-7.179a3.321,3.321,0,0,1,.857,4.821L96,23.893l-2.036-1.714.75-.964a.964.964,0,0,0-.214-1.5.964.964,0,0,0-1.607.214,3.536,3.536,0,0,0-.536,3l.214,1.929a5.357,5.357,0,0,1-1.286,4.714A3.536,3.536,0,0,1,85.928,30c-1.821-1.607-2.25-3.214-1.179-4.607L85.928,24l2.036,1.714-.857,1.071a.964.964,0,0,0,.321,1.393,1.071,1.071,0,0,0,1.607-.214,3.536,3.536,0,0,0,.75-3.214l-.214-1.821a4.929,4.929,0,0,1,1.179-4.607A3.536,3.536,0,0,1,96.106,18m-5.786-4.286-1.393,2.143L85.5,13.928l-1.821,3.214,3.214,1.821-1.179,2.143L82.5,19.285l-1.929,3.429,3.536,1.929-1.286,2.25-6-3.321,7.5-13.5ZM73.392,6.321,77.142,7.5a3.321,3.321,0,0,1,2.571,2.25c.321.964-.429,3.643-1.179,5.893s-1.714,5.25-2.679,6a2.893,2.893,0,0,1-3.107.536l-4.071-1.286ZM57.642,9.535l.964.214a4.393,4.393,0,0,1,2.25-4.929A4.393,4.393,0,0,1,63.213,9.75l1.071-.214a2.786,2.786,0,0,1,2.143,4.393,1.714,1.714,0,0,0-3.214-.857,1.073,1.073,0,0,1-.107,2.143.643.643,0,0,0,.214-.429h0A.643.643,0,0,0,63,14.25h-.75v-.214a2.679,2.679,0,0,1-.643-1.714l-.536.321-.536-.321a2.679,2.679,0,0,1-.643,1.714v.214h-.75a.643.643,0,0,0-.321.536h0l.214.429a1.073,1.073,0,1,1-.107-2.143,1.714,1.714,0,0,0-3.214.857,2.786,2.786,0,0,1,2.143-4.393m5.464,7.821a1.393,1.393,0,0,1-.964-.321,3.214,3.214,0,0,1-1.179,2.786A3.214,3.214,0,0,1,60,17.035a1.44,1.44,0,0,1-2.25-1.714c0,.857.429,1.179.964,1.179A1.5,1.5,0,0,0,59.892,15a1.821,1.821,0,0,1,2.143,0,1.5,1.5,0,0,0,1.5,1.393c.429,0,.964-.321.964-1.179a1.393,1.393,0,0,1-1.286,2.036m-22.5-8.893,4.821,8.571L44.142,7.285l3.429-1.179,5.036,14.571-2.464.857-3.107-9,1.5,9.536-2.357.857-4.714-8.357,3.107,9-2.464.857L37.178,9.643Zm-9.107,4.5L42,24.428l-2.357,1.5-2.464-2.786-1.714,1.179,1.607,3.429-2.357,1.5L28.392,15ZM19.928,22.285,27,25.821l-5.357-5.25,1.821-1.929L34.5,29.464l-1.821,1.929L25.5,27.75l5.464,5.357-1.821,1.929L18.106,24.214Zm-5.357,6.643,14.25,6.214-1.5,2.464L23.892,36l-1.071,1.821,2.893,2.464-1.5,2.357L12.535,32.25Zm.75,48.214a1.714,1.714,0,0,0,2.143,1.071A2.786,2.786,0,0,1,12.428,76.5a4.393,4.393,0,0,1-5.464-.643,4.393,4.393,0,0,1,2.464-3.321l1.607-.429a2.678,2.678,0,0,1-.536-.857,2.786,2.786,0,0,1,3.536-3.429,1.714,1.714,0,0,0,.214,3.321,1.071,1.071,0,1,1,2.036-.536h-.536a.643.643,0,0,0-.429.857l.214.321V72a2.679,2.679,0,0,1-1.5,1.179l.536.429-.214.643a2.679,2.679,0,0,1,1.821.107h.214a.643.643,0,0,0,0,.429l.214.321a.643.643,0,0,0,.643.107h.107l.321-.321a1.071,1.071,0,1,1-1.929.75,1.714,1.714,0,0,0-.429,1.714m3.75-3.857a1.393,1.393,0,0,1,.643.857c.321,1.071-.643,2.25-1.607,1.929.857-.214.964-.75.857-1.179a1.5,1.5,0,0,0-1.821-.964,1.821,1.821,0,0,1-.643-2.036,1.5,1.5,0,0,0,.857-1.821c-.107-.429-.536-.75-1.393-.536a1.479,1.479,0,0,1,2.357,1.607,3.214,3.214,0,0,1,3,.321,3.214,3.214,0,0,1-2.25,1.929m2.571-23.786L7.285,44.035,8.892,39.75a3,3,0,0,1,1.929-2.036,6.321,6.321,0,0,1,3.75.643c1.714.643,2.679,1.286,3.107,2.036a3.321,3.321,0,0,1,.107,2.786l-.536,1.607,5.464,2.036ZM53.571,24.535A36,36,0,1,1,30.362,39.458,36,36,0,0,1,53.571,24.535m-22.607,81c-1.071.321-1.929-.107-3-.964l-3.643-2.679,9.214-12.321,3.857,2.893a2.679,2.679,0,0,1,1.393,2.464,5.25,5.25,0,0,1-1.071,2.357,6.643,6.643,0,0,1-2.036,1.929,1.714,1.714,0,0,1-1.714,0,1.929,1.929,0,0,1,.643,1.821,6.321,6.321,0,0,1-1.286,2.464,5.679,5.679,0,0,1-2.357,2.143m10.179,6.321-2.679-1.179,1.286-6.429-.857-.429-2.679,5.786-2.571-1.179,6.429-13.929,4.179,1.821a2.786,2.786,0,0,1,1.821,2.357,7.071,7.071,0,0,1-.75,3,7.393,7.393,0,0,1-1.393,2.25,2.036,2.036,0,0,1-1.393.643Zm10.179,2.679L48.535,114l.429-3.75-2.036-.536-1.393,3.536-2.786-.643L48.963,98.25l3.857.964Zm9.857.643H58.5l-2.036-7.821-.429,7.714H53.463l.857-15.321H57l2.036,7.607.429-7.5h2.571ZM72.321,112.5a2.893,2.893,0,0,1-2.571,1.929l-4.286.75L63,99.857l3.964-.643a3.321,3.321,0,0,1,3.321.857c.75.75,1.286,3.429,1.607,5.786s.75,5.464.321,6.536m3.321.536-4.5-14.571,2.786-.857,4.714,14.679Zm10.607-4.286-5.679-5.786,3.429,6.857-2.357,1.179-6.75-13.607,2.357-1.179,5.571,5.571-3.429-6.75,2.357-1.179,6.964,13.714Zm10.071-6.857-.536-.429a2.893,2.893,0,0,1-1.286,2.143,3.107,3.107,0,0,1-4.179,0,26.142,26.142,0,0,1-3.429-3.75,24.107,24.107,0,0,1-3-4.393,3.536,3.536,0,0,1,1.286-4.393c1.929-1.5,3.429-1.286,4.5-.321A16.715,16.715,0,0,1,91.5,92.785L89.356,94.5,88.071,93a1.03,1.03,0,0,0-1.607,1.286,34.819,34.819,0,0,0,2.571,3.643,28.285,28.285,0,0,0,2.893,3.321,1.071,1.071,0,0,0,1.5.107,1.179,1.179,0,0,0,.214-1.714l-1.821-2.25-1.179.964-1.5-1.929,3.321-2.679,3.214,3.964,2.25,2.786Zm3.964-27.75a1.393,1.393,0,0,1,.536-.857,3.214,3.214,0,0,1-2.357-1.821,3.214,3.214,0,0,1,3-.429,1.431,1.431,0,0,1,2.25-1.714c-.857-.214-1.179.107-1.286.536a1.5,1.5,0,0,0,.964,1.821,1.821,1.821,0,0,1-.536,2.036,1.5,1.5,0,0,0-1.714,1.071c-.107.429,0,.964.857,1.179a1.369,1.369,0,0,1-1.607-1.821m8.786,2.679-1.5-.536a2.678,2.678,0,0,1-.107,1.071,2.786,2.786,0,0,1-4.821.964,1.714,1.714,0,0,0,1.607-2.893,1.071,1.071,0,1,1-2.036-.643l.321.321h.107a.643.643,0,0,0,.643-.214l.214-.321a.643.643,0,0,0,0-.429h.214a2.679,2.679,0,0,1,1.821-.214l-.214-.643.536-.429a2.679,2.679,0,0,1-1.5-1.071v-.214l.214-.321a.611.611,0,0,0-.429-.75h-.536a1.071,1.071,0,1,1,2.036.429,1.714,1.714,0,0,0,0-3.321,2.786,2.786,0,0,1,3.321,4.179l1.607.321a4.393,4.393,0,0,1,2.571,3.214,4.393,4.393,0,0,1-3.857,1.393M99.213,50.357l-.857-2.464,6.429-4.821L97.5,45.535l-.857-2.464,14.464-5.143.857,2.571-6.321,4.821,7.071-2.571.857,2.464Z" transform="translate(0.001 0)"/>
    </g>
  </g>
</svg>
