<svg xmlns="http://www.w3.org/2000/svg" xmlns:xlink="http://www.w3.org/1999/xlink" width="70" height="70" viewBox="0 0 70 70">
  <defs>
    <clipPath id="clip-path">
      <rect id="Rectangle_70" data-name="Rectangle 70" width="70" height="70" fill="none"/>
    </clipPath>
  </defs>
  <g id="logo-yl70" clip-path="url(#clip-path)" style="isolation: isolate">
    <path id="Path_23" data-name="Path 23" d="M57.512,50.75c-.5-.5-2.625.438-4.125,1.625,0-.5.25-2.875.25-5.562h0a2.812,2.812,0,0,0-1.562-.5,2.75,2.75,0,0,0-2.125.875V50.75a6.312,6.312,0,0,1,3.375,1.562c-1,.75-1.75,1.625-1.75,2.375,0-.562-.625-1-1.625-1.375h-.5l-2.188-.5c.063,7.313.313,8.75,1.625,9A5.187,5.187,0,0,1,44.7,58.75s-.562,2.063-3.75,2.063c1.5,0,2.063-4.062,2.25-7.937-3.125.438-6,1.813-6.5,4.563.438-3.062,3.313-5.187,6.563-6.25.063-2.687,0-4.875,0-4.875a2.973,2.973,0,0,0-3.875,1.875c0-3.437,3.875-4.75,3.875-4.75V37.875c0-3.25-3.625-2-3.812-1.937s.875-1.875,3.813-1.875S46.7,35.938,46.7,35.938s.75-1.437,1.937-1.437c-1.25,1.813-1.375,2.875-1.375,12.188v3.875a12.438,12.438,0,0,1,2.187.125V35.563c.063-1,.188-2.062.25-3.062.125,1,.188,2.063.25,3.063v2.375h0v4.875a2.75,2.75,0,0,0,2,.875,2.688,2.688,0,0,0,1.375-.375C52.95,40.438,52.012,38,49.95,38h0c.938-.062,4.062-1.937,4.062-4.437,0,2.563,1.875,4.438,3.5,4.438a51.812,51.812,0,0,0,0,12.75" transform="translate(-13.762 -12.188)" fill="#ffbc1a"/>
    <path id="Path_24" data-name="Path 24" d="M27.462,91.7,25.9,93.763l.625.5a.562.562,0,0,0,.625.063,3.562,3.562,0,0,0,.687-.75,2.938,2.938,0,0,0,.438-.812.562.562,0,0,0-.187-.562Z" transform="translate(-9.712 -34.387)" fill="#ffbc1a"/>
    <path id="Path_25" data-name="Path 25" d="M38.888,91.813,38.2,91.5l-1,2.125.75.313a.375.375,0,0,0,.438-.125,2.75,2.75,0,0,0,.437-.688l.313-.75a.5.5,0,0,0-.25-.562" transform="translate(-13.95 -34.313)" fill="#ffbc1a"/>
    <path id="Path_26" data-name="Path 26" d="M45.475,98.3l.313-2.687c.063-.5.25-1.312.25-1.312L45.6,95.612l-1,2.5Z" transform="translate(-16.725 -35.362)" fill="#ffbc1a"/>
    <path id="Path_27" data-name="Path 27" d="M31.375,88.65a2.75,2.75,0,0,0,.438-.812.437.437,0,0,0-.187-.5L31,86.9l-1.5,2,.688.5a.4.4,0,0,0,.437-.062,3.125,3.125,0,0,0,.688-.75" transform="translate(-11.063 -32.587)" fill="#ffbc1a"/>
    <path id="Path_28" data-name="Path 28" d="M68.612,14.737c.188-.312.813-2.312,1-2.75a22.127,22.127,0,0,0,.625-2.313.563.563,0,0,0-.437-.687L69.175,8.8l-1.875,6,.688.188a.5.5,0,0,0,.688-.25" transform="translate(-25.238 -3.3)" fill="#ffbc1a"/>
    <path id="Path_29" data-name="Path 29" d="M14.6,29.9l1.125.813,2,1.75.5-.75-2.438-1.125L14.6,29.9" transform="translate(-5.475 -11.212)" fill="#ffbc1a"/>
    <path id="Path_30" data-name="Path 30" d="M30.013,16.063,29.2,15l.687,1.188,1.125,2.437.75-.5-1.75-2" transform="translate(-10.95 -5.625)" fill="#ffbc1a"/>
    <path id="Path_31" data-name="Path 31" d="M12.462,38.525l-.812-.375-1-.25a.5.5,0,0,0-.5.375L9.9,38.9l2.562.938.25-.562c.125-.375.063-.562-.187-.687" transform="translate(-3.712 -14.212)" fill="#ffbc1a"/>
    <path id="Path_32" data-name="Path 32" d="M63.113,95.228a.562.562,0,0,0-.687-.437l-.625.125,1,6.188.688-.125a.5.5,0,0,0,.5-.563c0-.375-.312-2.438-.375-2.875a21.876,21.876,0,0,0-.5-2.312" transform="translate(-23.175 -35.54)" fill="#ffbc1a"/>
    <path id="Path_33" data-name="Path 33" d="M69.442,28.689a35,35,0,1,0-28.125,40.75,35,35,0,0,0,28.125-40.75M62.629,18c.75,1.25.5,2.125-.125,2.625l-1.375.938-.875-1.375.938-.625A.634.634,0,0,0,60.5,18.5a20.5,20.5,0,0,0-2.25,1.25,16.312,16.312,0,0,0-2,1.562.625.625,0,0,0-.188.875.687.687,0,0,0,.938.25l1.375-.875-.5-.75L59.192,20,60.5,22.064,58,23.627l-1.75,1.125-.625-1,.312-.25a1.687,1.687,0,0,1-1.125-.875,1.813,1.813,0,0,1,.25-2.375A15.375,15.375,0,0,1,57.5,18.439,14.125,14.125,0,0,1,60.254,17a2.062,2.062,0,0,1,2.437,1.063m-2.562-3.5-6.813,5.875-1.125-1.313,6.75-5.875Zm-4.063-4.188a1.938,1.938,0,0,1,.5,2.813l-.563.75-1.187-1,.438-.562a.563.563,0,0,0-.125-.875.563.563,0,0,0-.937.125,2.063,2.063,0,0,0-.313,1.75L54,14.5a3.125,3.125,0,0,1-.75,2.75,2.063,2.063,0,0,1-3.125.25c-1.062-.937-1.312-1.875-.687-2.688L50.129,14l1.188,1-.5.625a.563.563,0,0,0,.188.813.625.625,0,0,0,.938-.125,2.063,2.063,0,0,0,.437-1.875l-.125-1.062a2.875,2.875,0,0,1,.688-2.687,2.063,2.063,0,0,1,3.125-.188M52.692,8l-.812,1.25-2-1.125L48.817,10l1.875,1.063L50,12.314l-1.875-1.063-1.125,2,2.062,1.125-.75,1.313-3.5-1.937,4.375-7.875ZM42.817,3.689,45,4.377a1.938,1.938,0,0,1,1.5,1.313c.187.562-.25,2.125-.688,3.437s-1,3.062-1.562,3.5a1.688,1.688,0,0,1-1.813.312l-2.375-.75ZM33.629,5.564l.563.125A2.562,2.562,0,0,1,35.5,2.814a2.562,2.562,0,0,1,1.375,2.875l.625-.125a1.625,1.625,0,0,1,1.25,2.562,1,1,0,0,0-1.875-.5.626.626,0,0,1-.062,1.25.375.375,0,0,0,.125-.25h0a.375.375,0,0,0-.187-.312h-.438V8.189a1.562,1.562,0,0,1-.375-1l-.313.188-.313-.188a1.562,1.562,0,0,1-.375,1v.125H34.5a.375.375,0,0,0-.187.312h0l.125.25a.626.626,0,0,1-.062-1.25,1,1,0,0,0-1.875.5,1.625,1.625,0,0,1,1.25-2.562m3.188,4.563a.812.812,0,0,1-.562-.187,1.875,1.875,0,0,1-.687,1.625A1.875,1.875,0,0,1,35,9.939a.84.84,0,0,1-1.312-1c0,.5.25.688.562.688a.875.875,0,0,0,.687-.875,1.063,1.063,0,0,1,1.25,0,.875.875,0,0,0,.875.813c.25,0,.563-.188.563-.688a.813.813,0,0,1-.75,1.188M23.754,4.877l2.813,5-.812-5.625,2-.687,2.937,8.5-1.437.5-1.812-5.25.875,5.562-1.375.5L24.192,8.5,26,13.752l-1.437.5L21.692,5.627ZM18.442,7.5l6.063,6.75-1.375.875L21.692,13.5l-1,.687.938,2-1.375.875L16.567,8.752ZM11.629,13l4.125,2.063L12.629,12l1.063-1.125,6.438,6.313-1.063,1.125-4.187-2.125,3.188,3.125L17,20.439l-6.437-6.313ZM8.5,16.877,16.817,20.5l-.875,1.437-2-.937-.625,1.063L15,23.5l-.875,1.375L7.317,18.814ZM8.942,45a1,1,0,0,0,1.25.625,1.625,1.625,0,0,1-2.937-1,2.562,2.562,0,0,1-3.188-.375A2.563,2.563,0,0,1,5.5,42.314l.937-.25a1.562,1.562,0,0,1-.313-.5,1.625,1.625,0,0,1,2.063-2A1,1,0,0,0,8.317,41.5.625.625,0,1,1,9.5,41.189H9.192a.375.375,0,0,0-.25.5l.125.188V42a1.562,1.562,0,0,1-.875.688l.313.25-.125.375a1.562,1.562,0,0,1,1.063.062h.125a.375.375,0,0,0,0,.25l.125.187a.375.375,0,0,0,.375.063h.063l.187-.187a.625.625,0,1,1-1.125.437,1,1,0,0,0-.25,1m2.188-2.25a.812.812,0,0,1,.375.5c.188.625-.375,1.313-.937,1.125.5-.125.563-.437.5-.687A.875.875,0,0,0,10,43.252a1.063,1.063,0,0,1-.375-1.188.875.875,0,0,0,.5-1.062c-.063-.25-.313-.437-.813-.312a.862.862,0,0,1,1.375.937,1.875,1.875,0,0,1,1.75.188,1.875,1.875,0,0,1-1.313,1.125m1.5-13.875L4.254,25.689l.937-2.5A1.75,1.75,0,0,1,6.317,22a3.687,3.687,0,0,1,2.187.375,3.33,3.33,0,0,1,1.812,1.188,1.937,1.937,0,0,1,.063,1.625l-.312.937,3.188,1.188Zm18.625-14.75a21,21,0,1,1-13.538,8.705,21,21,0,0,1,13.538-8.705M18.067,61.564A1.833,1.833,0,0,1,16.317,61l-2.125-1.562,5.375-7.187,2.25,1.687a1.563,1.563,0,0,1,.813,1.438A3.063,3.063,0,0,1,22,56.752a3.875,3.875,0,0,1-1.188,1.125,1,1,0,0,1-1,0,1.125,1.125,0,0,1,.375,1.062,3.687,3.687,0,0,1-.75,1.438,3.313,3.313,0,0,1-1.375,1.25M24,65.314l-1.562-.687.75-3.75-.5-.25L21.129,64l-1.5-.687,3.75-8.125,2.437,1.062a1.625,1.625,0,0,1,1.063,1.375,4.125,4.125,0,0,1-.437,1.75,4.313,4.313,0,0,1-.812,1.312,1.188,1.188,0,0,1-.813.375Zm5.938,1.563L28.317,66.5l.25-2.187L27.379,64l-.812,2.063-1.625-.375,3.625-8.375,2.25.563Zm5.75.375H34.129l-1.188-4.562-.25,4.5h-1.5l.5-8.937h1.563l1.188,4.438.25-4.375h1.5Zm6.5-1.625a1.688,1.688,0,0,1-1.5,1.125l-2.5.437-1.437-8.937,2.313-.375a1.938,1.938,0,0,1,1.938.5c.438.437.75,2,.937,3.375a11.938,11.938,0,0,1,.188,3.813m1.937.312-2.625-8.5,1.625-.5,2.75,8.562Zm6.188-2.5L46.942,60l2,4-1.375.687-3.937-7.937L45,56.064l3.25,3.25-2-3.937,1.375-.688,4.062,8Zm5.875-4-.312-.25a1.688,1.688,0,0,1-.75,1.25,1.813,1.813,0,0,1-2.437,0,15.25,15.25,0,0,1-2-2.187,14.062,14.062,0,0,1-1.75-2.562,2.063,2.063,0,0,1,.75-2.562c1.125-.875,2-.75,2.625-.188a9.75,9.75,0,0,1,1.125,1.25l-1.25,1-.75-.875a.6.6,0,0,0-.937.75,20.311,20.311,0,0,0,1.5,2.125,16.5,16.5,0,0,0,1.687,1.937.625.625,0,0,0,.875.063.688.688,0,0,0,.125-1l-1.062-1.312-.688.563L52,56.252l1.937-1.562L55.817,57l1.312,1.625Zm2.312-16.187a.812.812,0,0,1,.313-.5,1.875,1.875,0,0,1-1.375-1.062,1.875,1.875,0,0,1,1.75-.25.835.835,0,0,1,1.313-1c-.5-.125-.688.063-.75.313a.875.875,0,0,0,.563,1.062,1.062,1.062,0,0,1-.313,1.188.875.875,0,0,0-1,.625c-.063.25,0,.562.5.687a.8.8,0,0,1-.937-1.062m5.125,1.562-.875-.312a1.562,1.562,0,0,1-.062.625,1.625,1.625,0,0,1-2.813.562,1,1,0,0,0,.938-1.687.625.625,0,1,1-1.188-.375l.188.188h.062a.375.375,0,0,0,.375-.125l.125-.188a.375.375,0,0,0,0-.25H60.5a1.563,1.563,0,0,1,1.063-.125l-.125-.375.312-.25a1.563,1.563,0,0,1-.875-.625v-.125L61,41.5a.356.356,0,0,0-.25-.437h-.312a.625.625,0,1,1,1.188.25,1,1,0,0,0,0-1.937,1.625,1.625,0,0,1,1.937,2.437L64.5,42A2.562,2.562,0,0,1,66,43.877a2.563,2.563,0,0,1-2.25.813M57.879,29.377l-.5-1.437,3.75-2.812-4.25,1.437-.5-1.437,8.438-3,.5,1.5-3.687,2.812,4.125-1.5.5,1.437Z" transform="translate(-0.004 -0.002)" fill="#ffbc1a"/>
  </g>
</svg>
