<svg xmlns="http://www.w3.org/2000/svg" viewBox="0 0 173.78 101.54"><g id="Layer_2" data-name="Layer 2"><g id="Calque_2" data-name="Calque 2"><path d="M53.85,13.36c-2.56,0-2.87.85-2.87.85,1.8,4.82-6.14,64.44.87,64.44,2.08,0,3.71-1.21,3.71-5.17,0-1.94-1.13,1.61-2.25-.7C50.86,67.77,59.36,13.36,53.85,13.36Z" fill="#fbbb20"/><path d="M87.9,70c-.34,0-.6-.58-.81-1.59A13.22,13.22,0,0,1,87.9,70Z" fill="#fbbb20"/><path d="M106.64,70.13C98.46,70.13,94,39.34,94,33.75c0-1.08-3.15-.6-3.56-.6-2.54,0-2.29,43.05,3.23,43.05,5.9,0-2.37-9.94,0-19.19,1.24,4.82,5.59,17.33,13.75,17.33s1.71-21.29,1.71-36.9c1.56,2.16,2.64,2.72,4,2.72-3.29-5-2.52-10.33-5.52-10.33-5.89,0-1.08,15.8.13,30.51C108.3,66.49,108.3,70.13,106.64,70.13Z" fill="#fbbb20"/><path d="M137.65,71.83c0,2.91-3.18,1.6-6-2.72a1.15,1.15,0,0,0,.44-.81c0-1.32-1-2.69-2.72-3.86-.07-.17-.13-.34-.19-.51-5-14.69-5-24.35-5-52.2,0-1.05-1.4-1.5-2-1.5a3.52,3.52,0,0,0-2.35.74c-.09.06-.14,6.76.38,15.89-.24,8.93-.7,19.75-1.47,24.48-.51,3.13-1.18,6.8-1.69,10.13a44.64,44.64,0,0,0-13.34,3.39l5.3,1.81s1.39-1.52,7.55-1.78c-.44,3.63-.49,6.25.43,6.25h3c0-.57.19-3,.51-6.13a10.35,10.35,0,0,1,7.72,5.07.09.09,0,0,1,0,.06,1.72,1.72,0,0,1,.12.22l.12.25h0c2.21,4.28,5,7,8.45,7C141.92,77.56,141,71.83,137.65,71.83ZM120.92,61.54a58.32,58.32,0,0,1,2-10.21,103.23,103.23,0,0,0,2.51,11.18A21.41,21.41,0,0,0,120.92,61.54Z" fill="#fbbb20"/><path d="M132.13,31.61c-5.34,0-3.44,3.65-2,7.77s8.33,25.38,8.33,26.64,4.19,2.41,4.19-1.55c-1.16-4-7.08-15.61-4.81-15.06,11.38,2.76,12.12-14.57,13-13.65,2.65,11.08,2.3,58.58,10.69,58.58,1.88,0,2.17-4.35,1.65-4.35-.37,0,0,2.54-1.56,2.54-2.58,0-6.27-12.78-6.27-76,0-2.74-5-2.86-5,.64s-3.15,28.14-10,28.14c-2.27,0-3.42-3.43-4.09-5.69s-.86-6.55-1.17-7S134.82,31.61,132.13,31.61Z" fill="#fbbb20"/><path d="M170.79,56.94c2,0,3,1.16,3,3.1s-1.47,2.33-3.49,2.33S167,61.13,167,60s1.47-2.56,2-3.1C169,59.34,171.34,57.48,170.79,56.94Z" fill="#fbbb20"/><path d="M5.3,52.17C.7,52.17,0,56.59,0,57.4s.93,2.22,3.44,2.22S11,52.17,5.3,52.17Z" fill="#fbbb20"/><path d="M158,98.37c.06,2.32-6.47,3.88-6.47,2.86,0-.59,2.94-.68,2.94-2.59,0-1.32-3.68-5.75-12-8.48-4-1.31-11.27-2.22-17.49-2.22-1.39,0-19.49.34-34.14,1.61C73.57,91,62.2,92.49,55.8,92.49c-12.33,0-22.44-8.06-22.44-11.58,0-2.31,5.42-4.5,5.42-2.66,0,.58-2.69.44-2.69,2.84,0,3.15,3.35,8,20,8,7.39,0,29.79-5.47,69-5.47h0c9,0,13.51,1.22,18.37,3C153.21,90.08,157.91,95.77,158,98.37Z" fill="#fbbb20"/><path d="M87.9,70c-.34,0-.6-.58-.81-1.59-1.5-7.26,0-37,0-38s-1.52.5-4-.2h0c-2.67-.75-1.88,1.15-1.88,3.53a17.63,17.63,0,0,1-.53,2.66A151.49,151.49,0,0,1,72.06,61L71,61c-7.75,0-19.4,5.13-19.4,7.17a60.7,60.7,0,0,1,18.87-4c-2.45,4.49-5.05,7.64-7.5,7.64,0,.6,1.16,3.27,3.31,3.27s5.17-4.68,8.08-10.54a17.85,17.85,0,0,1,7.73,4.28c0,6.89.63,12.12,3,12.12C88.41,81,90.17,75.32,87.9,70Zm-5.74-6.38a19.17,19.17,0,0,0-6.31-2.23c3.94-8.56,7.28-18.21,7.28-19.56C83.16,47.29,82.44,55.88,82.16,63.64Z" fill="#fbbb20"/><path d="M85.06,17.41a42.62,42.62,0,0,1-2,12.84c-2.67-.75-1.88,1.15-1.88,3.53a17.63,17.63,0,0,1-.53,2.66C69.61,59.93,40.38,74.88,25.58,74.88c-11.81,0-13.21-5.36-7.61-9.17-2.9,2.9-2.53,6.22,7.9,6.22C42,71.93,81.1,48.56,81.1,20.52c0-11-6-17.26-11.4-17.26-14.38,0-44.12,22.61-44.12,34.49,0,6,6.08,5,6.36,4.24-.18.79-4.3,2-6,2s-5-.31-5-4.58C20.92,29.28,46.63,0,69.7,0,79.1,0,85.06,8.47,85.06,17.41Z" fill="#fbbb20"/></g></g></svg>