<svg xmlns="http://www.w3.org/2000/svg" viewBox="0 0 94.13 48.6"><g id="Layer_2" data-name="Layer 2"><g id="Layer_1-2" data-name="Layer 1"><path d="M16.2,38.7q0,9.9-8,9.9Q.54,48.6.18,41q-.12-3-.12-5.4H3.12q0,3.78.06,4.68.24,3.12,1.44,4.23a5,5,0,0,0,3.54,1.11,4.39,4.39,0,0,0,3.69-1.5Q13,42.66,13,39.06a20.1,20.1,0,0,0-1-6.81,25.69,25.69,0,0,0-3.6-6.15Q6.84,23.88,5.4,22a28.86,28.86,0,0,1-4.08-6.45A16.27,16.27,0,0,1,0,9Q0,4.68,2.1,2.34A7.57,7.57,0,0,1,8,0a7,7,0,0,1,5.43,2,9.77,9.77,0,0,1,2.19,5.88q.18,1.62.18,5.28H12.78q0-3-.18-4.92Q12.12,3.06,8,3.06A4.4,4.4,0,0,0,4.35,4.5,7.2,7.2,0,0,0,3.18,9.06a13.28,13.28,0,0,0,1.05,5.43A26.7,26.7,0,0,0,8,20.22q.36.42,1,1.26t1.29,1.74q.69.9.81,1.08a26.83,26.83,0,0,1,3.84,6.63A21.6,21.6,0,0,1,16.2,38.7Z"/><path d="M33.24,3.3h-6.6V48.18H23.52V3.3h-6.6V.3H33.24Z"/><path d="M49.8,48.18H35.94V.3H49.68v3H39V22.5h9.78v2.94H39v19.8H49.8Z"/><path d="M68.22,14.34q0,8.52-1.5,10.86a6.69,6.69,0,0,1-5.52,3l-5,.06V48.18H53.1V.3h8.22a5.78,5.78,0,0,1,5.46,3Q68.22,5.88,68.22,14.34ZM65,14.4q0-6.6-.84-9-.84-2-3.72-2H56.16v21.9H60.3q2.94,0,3.9-2.16Q65,21.24,65,14.4Z"/><path d="M87.84,22.38q5.4.54,6,6.42a78.19,78.19,0,0,1,.06,12.6q-.6,7.08-7.56,7.08t-7.5-6q-.18-2.34-.18-8h3q0,5,.24,7.56.06,3.66,4.38,3.66a4.44,4.44,0,0,0,3.24-1.17,4.71,4.71,0,0,0,1.26-3.39,95.7,95.7,0,0,0-.06-11.64q-.54-4.86-5.22-5.34l-2.94-.12V21.12l2.7-.12q4.62-.66,4.8-5.28.24-7.14.06-9.3-.24-3.48-3.78-3.48t-3.9,3.84q-.12,3.12-.12,6.48H79.38q0-3.78.12-6.66a7.36,7.36,0,0,1,2-4.8A6.49,6.49,0,0,1,86.34,0q6.36,0,6.78,6.54.18,2.88-.12,9.12a8.29,8.29,0,0,1-1.47,4.62A5,5,0,0,1,87.84,22.38Z"/></g></g></svg>